%TF.GenerationSoftware,KiCad,Pcbnew,9.0.6*%
%TF.CreationDate,2026-01-17T07:10:16-03:00*%
%TF.ProjectId,dual IMU_module,6475616c-2049-44d5-955f-6d6f64756c65,rev?*%
%TF.SameCoordinates,Original*%
%TF.FileFunction,Legend,Top*%
%TF.FilePolarity,Positive*%
%FSLAX46Y46*%
G04 Gerber Fmt 4.6, Leading zero omitted, Abs format (unit mm)*
G04 Created by KiCad (PCBNEW 9.0.6) date 2026-01-17 07:10:16*
%MOMM*%
%LPD*%
G01*
G04 APERTURE LIST*
%ADD10C,0.100000*%
%ADD11C,0.150000*%
%ADD12C,0.120000*%
%ADD13C,0.000000*%
G04 APERTURE END LIST*
D10*
X131876265Y-89898940D02*
X131876265Y-89098940D01*
X131876265Y-89098940D02*
X132066741Y-89098940D01*
X132066741Y-89098940D02*
X132181027Y-89137035D01*
X132181027Y-89137035D02*
X132257217Y-89213225D01*
X132257217Y-89213225D02*
X132295312Y-89289416D01*
X132295312Y-89289416D02*
X132333408Y-89441797D01*
X132333408Y-89441797D02*
X132333408Y-89556083D01*
X132333408Y-89556083D02*
X132295312Y-89708464D01*
X132295312Y-89708464D02*
X132257217Y-89784654D01*
X132257217Y-89784654D02*
X132181027Y-89860845D01*
X132181027Y-89860845D02*
X132066741Y-89898940D01*
X132066741Y-89898940D02*
X131876265Y-89898940D01*
X133019122Y-89365606D02*
X133019122Y-89898940D01*
X132676265Y-89365606D02*
X132676265Y-89784654D01*
X132676265Y-89784654D02*
X132714360Y-89860845D01*
X132714360Y-89860845D02*
X132790550Y-89898940D01*
X132790550Y-89898940D02*
X132904836Y-89898940D01*
X132904836Y-89898940D02*
X132981027Y-89860845D01*
X132981027Y-89860845D02*
X133019122Y-89822749D01*
X133742932Y-89898940D02*
X133742932Y-89479892D01*
X133742932Y-89479892D02*
X133704837Y-89403702D01*
X133704837Y-89403702D02*
X133628646Y-89365606D01*
X133628646Y-89365606D02*
X133476265Y-89365606D01*
X133476265Y-89365606D02*
X133400075Y-89403702D01*
X133742932Y-89860845D02*
X133666741Y-89898940D01*
X133666741Y-89898940D02*
X133476265Y-89898940D01*
X133476265Y-89898940D02*
X133400075Y-89860845D01*
X133400075Y-89860845D02*
X133361979Y-89784654D01*
X133361979Y-89784654D02*
X133361979Y-89708464D01*
X133361979Y-89708464D02*
X133400075Y-89632273D01*
X133400075Y-89632273D02*
X133476265Y-89594178D01*
X133476265Y-89594178D02*
X133666741Y-89594178D01*
X133666741Y-89594178D02*
X133742932Y-89556083D01*
X134238170Y-89898940D02*
X134161980Y-89860845D01*
X134161980Y-89860845D02*
X134123885Y-89784654D01*
X134123885Y-89784654D02*
X134123885Y-89098940D01*
X135152457Y-89898940D02*
X135152457Y-89098940D01*
X135533409Y-89898940D02*
X135533409Y-89098940D01*
X135533409Y-89098940D02*
X135800075Y-89670368D01*
X135800075Y-89670368D02*
X136066742Y-89098940D01*
X136066742Y-89098940D02*
X136066742Y-89898940D01*
X136447695Y-89098940D02*
X136447695Y-89746559D01*
X136447695Y-89746559D02*
X136485790Y-89822749D01*
X136485790Y-89822749D02*
X136523885Y-89860845D01*
X136523885Y-89860845D02*
X136600076Y-89898940D01*
X136600076Y-89898940D02*
X136752457Y-89898940D01*
X136752457Y-89898940D02*
X136828647Y-89860845D01*
X136828647Y-89860845D02*
X136866742Y-89822749D01*
X136866742Y-89822749D02*
X136904838Y-89746559D01*
X136904838Y-89746559D02*
X136904838Y-89098940D01*
X137781028Y-89098940D02*
X138238171Y-89098940D01*
X138009599Y-89898940D02*
X138009599Y-89098940D01*
X138809600Y-89860845D02*
X138733409Y-89898940D01*
X138733409Y-89898940D02*
X138581028Y-89898940D01*
X138581028Y-89898940D02*
X138504838Y-89860845D01*
X138504838Y-89860845D02*
X138466742Y-89784654D01*
X138466742Y-89784654D02*
X138466742Y-89479892D01*
X138466742Y-89479892D02*
X138504838Y-89403702D01*
X138504838Y-89403702D02*
X138581028Y-89365606D01*
X138581028Y-89365606D02*
X138733409Y-89365606D01*
X138733409Y-89365606D02*
X138809600Y-89403702D01*
X138809600Y-89403702D02*
X138847695Y-89479892D01*
X138847695Y-89479892D02*
X138847695Y-89556083D01*
X138847695Y-89556083D02*
X138466742Y-89632273D01*
X139152456Y-89860845D02*
X139228647Y-89898940D01*
X139228647Y-89898940D02*
X139381028Y-89898940D01*
X139381028Y-89898940D02*
X139457218Y-89860845D01*
X139457218Y-89860845D02*
X139495314Y-89784654D01*
X139495314Y-89784654D02*
X139495314Y-89746559D01*
X139495314Y-89746559D02*
X139457218Y-89670368D01*
X139457218Y-89670368D02*
X139381028Y-89632273D01*
X139381028Y-89632273D02*
X139266742Y-89632273D01*
X139266742Y-89632273D02*
X139190552Y-89594178D01*
X139190552Y-89594178D02*
X139152456Y-89517987D01*
X139152456Y-89517987D02*
X139152456Y-89479892D01*
X139152456Y-89479892D02*
X139190552Y-89403702D01*
X139190552Y-89403702D02*
X139266742Y-89365606D01*
X139266742Y-89365606D02*
X139381028Y-89365606D01*
X139381028Y-89365606D02*
X139457218Y-89403702D01*
X139723885Y-89365606D02*
X140028647Y-89365606D01*
X139838171Y-89098940D02*
X139838171Y-89784654D01*
X139838171Y-89784654D02*
X139876266Y-89860845D01*
X139876266Y-89860845D02*
X139952456Y-89898940D01*
X139952456Y-89898940D02*
X140028647Y-89898940D01*
X140295314Y-89898940D02*
X140295314Y-89365606D01*
X140295314Y-89098940D02*
X140257218Y-89137035D01*
X140257218Y-89137035D02*
X140295314Y-89175130D01*
X140295314Y-89175130D02*
X140333409Y-89137035D01*
X140333409Y-89137035D02*
X140295314Y-89098940D01*
X140295314Y-89098940D02*
X140295314Y-89175130D01*
X140676266Y-89365606D02*
X140676266Y-89898940D01*
X140676266Y-89441797D02*
X140714361Y-89403702D01*
X140714361Y-89403702D02*
X140790551Y-89365606D01*
X140790551Y-89365606D02*
X140904837Y-89365606D01*
X140904837Y-89365606D02*
X140981028Y-89403702D01*
X140981028Y-89403702D02*
X141019123Y-89479892D01*
X141019123Y-89479892D02*
X141019123Y-89898940D01*
X141742933Y-89365606D02*
X141742933Y-90013225D01*
X141742933Y-90013225D02*
X141704838Y-90089416D01*
X141704838Y-90089416D02*
X141666742Y-90127511D01*
X141666742Y-90127511D02*
X141590552Y-90165606D01*
X141590552Y-90165606D02*
X141476266Y-90165606D01*
X141476266Y-90165606D02*
X141400076Y-90127511D01*
X141742933Y-89860845D02*
X141666742Y-89898940D01*
X141666742Y-89898940D02*
X141514361Y-89898940D01*
X141514361Y-89898940D02*
X141438171Y-89860845D01*
X141438171Y-89860845D02*
X141400076Y-89822749D01*
X141400076Y-89822749D02*
X141361980Y-89746559D01*
X141361980Y-89746559D02*
X141361980Y-89517987D01*
X141361980Y-89517987D02*
X141400076Y-89441797D01*
X141400076Y-89441797D02*
X141438171Y-89403702D01*
X141438171Y-89403702D02*
X141514361Y-89365606D01*
X141514361Y-89365606D02*
X141666742Y-89365606D01*
X141666742Y-89365606D02*
X141742933Y-89403702D01*
X132333408Y-91110704D02*
X132295312Y-91148800D01*
X132295312Y-91148800D02*
X132181027Y-91186895D01*
X132181027Y-91186895D02*
X132104836Y-91186895D01*
X132104836Y-91186895D02*
X131990550Y-91148800D01*
X131990550Y-91148800D02*
X131914360Y-91072609D01*
X131914360Y-91072609D02*
X131876265Y-90996419D01*
X131876265Y-90996419D02*
X131838169Y-90844038D01*
X131838169Y-90844038D02*
X131838169Y-90729752D01*
X131838169Y-90729752D02*
X131876265Y-90577371D01*
X131876265Y-90577371D02*
X131914360Y-90501180D01*
X131914360Y-90501180D02*
X131990550Y-90424990D01*
X131990550Y-90424990D02*
X132104836Y-90386895D01*
X132104836Y-90386895D02*
X132181027Y-90386895D01*
X132181027Y-90386895D02*
X132295312Y-90424990D01*
X132295312Y-90424990D02*
X132333408Y-90463085D01*
X132676265Y-91186895D02*
X132676265Y-90653561D01*
X132676265Y-90805942D02*
X132714360Y-90729752D01*
X132714360Y-90729752D02*
X132752455Y-90691657D01*
X132752455Y-90691657D02*
X132828646Y-90653561D01*
X132828646Y-90653561D02*
X132904836Y-90653561D01*
X133171503Y-91186895D02*
X133171503Y-90653561D01*
X133171503Y-90386895D02*
X133133407Y-90424990D01*
X133133407Y-90424990D02*
X133171503Y-90463085D01*
X133171503Y-90463085D02*
X133209598Y-90424990D01*
X133209598Y-90424990D02*
X133171503Y-90386895D01*
X133171503Y-90386895D02*
X133171503Y-90463085D01*
X133514359Y-91148800D02*
X133590550Y-91186895D01*
X133590550Y-91186895D02*
X133742931Y-91186895D01*
X133742931Y-91186895D02*
X133819121Y-91148800D01*
X133819121Y-91148800D02*
X133857217Y-91072609D01*
X133857217Y-91072609D02*
X133857217Y-91034514D01*
X133857217Y-91034514D02*
X133819121Y-90958323D01*
X133819121Y-90958323D02*
X133742931Y-90920228D01*
X133742931Y-90920228D02*
X133628645Y-90920228D01*
X133628645Y-90920228D02*
X133552455Y-90882133D01*
X133552455Y-90882133D02*
X133514359Y-90805942D01*
X133514359Y-90805942D02*
X133514359Y-90767847D01*
X133514359Y-90767847D02*
X133552455Y-90691657D01*
X133552455Y-90691657D02*
X133628645Y-90653561D01*
X133628645Y-90653561D02*
X133742931Y-90653561D01*
X133742931Y-90653561D02*
X133819121Y-90691657D01*
X134085788Y-90653561D02*
X134390550Y-90653561D01*
X134200074Y-90386895D02*
X134200074Y-91072609D01*
X134200074Y-91072609D02*
X134238169Y-91148800D01*
X134238169Y-91148800D02*
X134314359Y-91186895D01*
X134314359Y-91186895D02*
X134390550Y-91186895D01*
X134657217Y-91186895D02*
X134657217Y-90653561D01*
X134657217Y-90386895D02*
X134619121Y-90424990D01*
X134619121Y-90424990D02*
X134657217Y-90463085D01*
X134657217Y-90463085D02*
X134695312Y-90424990D01*
X134695312Y-90424990D02*
X134657217Y-90386895D01*
X134657217Y-90386895D02*
X134657217Y-90463085D01*
X135381026Y-91186895D02*
X135381026Y-90767847D01*
X135381026Y-90767847D02*
X135342931Y-90691657D01*
X135342931Y-90691657D02*
X135266740Y-90653561D01*
X135266740Y-90653561D02*
X135114359Y-90653561D01*
X135114359Y-90653561D02*
X135038169Y-90691657D01*
X135381026Y-91148800D02*
X135304835Y-91186895D01*
X135304835Y-91186895D02*
X135114359Y-91186895D01*
X135114359Y-91186895D02*
X135038169Y-91148800D01*
X135038169Y-91148800D02*
X135000073Y-91072609D01*
X135000073Y-91072609D02*
X135000073Y-90996419D01*
X135000073Y-90996419D02*
X135038169Y-90920228D01*
X135038169Y-90920228D02*
X135114359Y-90882133D01*
X135114359Y-90882133D02*
X135304835Y-90882133D01*
X135304835Y-90882133D02*
X135381026Y-90844038D01*
X135761979Y-90653561D02*
X135761979Y-91186895D01*
X135761979Y-90729752D02*
X135800074Y-90691657D01*
X135800074Y-90691657D02*
X135876264Y-90653561D01*
X135876264Y-90653561D02*
X135990550Y-90653561D01*
X135990550Y-90653561D02*
X136066741Y-90691657D01*
X136066741Y-90691657D02*
X136104836Y-90767847D01*
X136104836Y-90767847D02*
X136104836Y-91186895D01*
X137552456Y-91110704D02*
X137514360Y-91148800D01*
X137514360Y-91148800D02*
X137400075Y-91186895D01*
X137400075Y-91186895D02*
X137323884Y-91186895D01*
X137323884Y-91186895D02*
X137209598Y-91148800D01*
X137209598Y-91148800D02*
X137133408Y-91072609D01*
X137133408Y-91072609D02*
X137095313Y-90996419D01*
X137095313Y-90996419D02*
X137057217Y-90844038D01*
X137057217Y-90844038D02*
X137057217Y-90729752D01*
X137057217Y-90729752D02*
X137095313Y-90577371D01*
X137095313Y-90577371D02*
X137133408Y-90501180D01*
X137133408Y-90501180D02*
X137209598Y-90424990D01*
X137209598Y-90424990D02*
X137323884Y-90386895D01*
X137323884Y-90386895D02*
X137400075Y-90386895D01*
X137400075Y-90386895D02*
X137514360Y-90424990D01*
X137514360Y-90424990D02*
X137552456Y-90463085D01*
X138238170Y-91186895D02*
X138238170Y-90767847D01*
X138238170Y-90767847D02*
X138200075Y-90691657D01*
X138200075Y-90691657D02*
X138123884Y-90653561D01*
X138123884Y-90653561D02*
X137971503Y-90653561D01*
X137971503Y-90653561D02*
X137895313Y-90691657D01*
X138238170Y-91148800D02*
X138161979Y-91186895D01*
X138161979Y-91186895D02*
X137971503Y-91186895D01*
X137971503Y-91186895D02*
X137895313Y-91148800D01*
X137895313Y-91148800D02*
X137857217Y-91072609D01*
X137857217Y-91072609D02*
X137857217Y-90996419D01*
X137857217Y-90996419D02*
X137895313Y-90920228D01*
X137895313Y-90920228D02*
X137971503Y-90882133D01*
X137971503Y-90882133D02*
X138161979Y-90882133D01*
X138161979Y-90882133D02*
X138238170Y-90844038D01*
X138581027Y-91148800D02*
X138657218Y-91186895D01*
X138657218Y-91186895D02*
X138809599Y-91186895D01*
X138809599Y-91186895D02*
X138885789Y-91148800D01*
X138885789Y-91148800D02*
X138923885Y-91072609D01*
X138923885Y-91072609D02*
X138923885Y-91034514D01*
X138923885Y-91034514D02*
X138885789Y-90958323D01*
X138885789Y-90958323D02*
X138809599Y-90920228D01*
X138809599Y-90920228D02*
X138695313Y-90920228D01*
X138695313Y-90920228D02*
X138619123Y-90882133D01*
X138619123Y-90882133D02*
X138581027Y-90805942D01*
X138581027Y-90805942D02*
X138581027Y-90767847D01*
X138581027Y-90767847D02*
X138619123Y-90691657D01*
X138619123Y-90691657D02*
X138695313Y-90653561D01*
X138695313Y-90653561D02*
X138809599Y-90653561D01*
X138809599Y-90653561D02*
X138885789Y-90691657D01*
X139152456Y-90653561D02*
X139457218Y-90653561D01*
X139266742Y-90386895D02*
X139266742Y-91072609D01*
X139266742Y-91072609D02*
X139304837Y-91148800D01*
X139304837Y-91148800D02*
X139381027Y-91186895D01*
X139381027Y-91186895D02*
X139457218Y-91186895D01*
X139723885Y-91186895D02*
X139723885Y-90653561D01*
X139723885Y-90805942D02*
X139761980Y-90729752D01*
X139761980Y-90729752D02*
X139800075Y-90691657D01*
X139800075Y-90691657D02*
X139876266Y-90653561D01*
X139876266Y-90653561D02*
X139952456Y-90653561D01*
X140333408Y-91186895D02*
X140257218Y-91148800D01*
X140257218Y-91148800D02*
X140219123Y-91110704D01*
X140219123Y-91110704D02*
X140181027Y-91034514D01*
X140181027Y-91034514D02*
X140181027Y-90805942D01*
X140181027Y-90805942D02*
X140219123Y-90729752D01*
X140219123Y-90729752D02*
X140257218Y-90691657D01*
X140257218Y-90691657D02*
X140333408Y-90653561D01*
X140333408Y-90653561D02*
X140447694Y-90653561D01*
X140447694Y-90653561D02*
X140523885Y-90691657D01*
X140523885Y-90691657D02*
X140561980Y-90729752D01*
X140561980Y-90729752D02*
X140600075Y-90805942D01*
X140600075Y-90805942D02*
X140600075Y-91034514D01*
X140600075Y-91034514D02*
X140561980Y-91110704D01*
X140561980Y-91110704D02*
X140523885Y-91148800D01*
X140523885Y-91148800D02*
X140447694Y-91186895D01*
X140447694Y-91186895D02*
X140333408Y-91186895D01*
X141933409Y-91186895D02*
X141552457Y-91186895D01*
X141552457Y-91186895D02*
X141552457Y-90386895D01*
X142542933Y-91186895D02*
X142542933Y-90767847D01*
X142542933Y-90767847D02*
X142504838Y-90691657D01*
X142504838Y-90691657D02*
X142428647Y-90653561D01*
X142428647Y-90653561D02*
X142276266Y-90653561D01*
X142276266Y-90653561D02*
X142200076Y-90691657D01*
X142542933Y-91148800D02*
X142466742Y-91186895D01*
X142466742Y-91186895D02*
X142276266Y-91186895D01*
X142276266Y-91186895D02*
X142200076Y-91148800D01*
X142200076Y-91148800D02*
X142161980Y-91072609D01*
X142161980Y-91072609D02*
X142161980Y-90996419D01*
X142161980Y-90996419D02*
X142200076Y-90920228D01*
X142200076Y-90920228D02*
X142276266Y-90882133D01*
X142276266Y-90882133D02*
X142466742Y-90882133D01*
X142466742Y-90882133D02*
X142542933Y-90844038D01*
X143266743Y-90653561D02*
X143266743Y-91301180D01*
X143266743Y-91301180D02*
X143228648Y-91377371D01*
X143228648Y-91377371D02*
X143190552Y-91415466D01*
X143190552Y-91415466D02*
X143114362Y-91453561D01*
X143114362Y-91453561D02*
X143000076Y-91453561D01*
X143000076Y-91453561D02*
X142923886Y-91415466D01*
X143266743Y-91148800D02*
X143190552Y-91186895D01*
X143190552Y-91186895D02*
X143038171Y-91186895D01*
X143038171Y-91186895D02*
X142961981Y-91148800D01*
X142961981Y-91148800D02*
X142923886Y-91110704D01*
X142923886Y-91110704D02*
X142885790Y-91034514D01*
X142885790Y-91034514D02*
X142885790Y-90805942D01*
X142885790Y-90805942D02*
X142923886Y-90729752D01*
X142923886Y-90729752D02*
X142961981Y-90691657D01*
X142961981Y-90691657D02*
X143038171Y-90653561D01*
X143038171Y-90653561D02*
X143190552Y-90653561D01*
X143190552Y-90653561D02*
X143266743Y-90691657D01*
X143761981Y-91186895D02*
X143685791Y-91148800D01*
X143685791Y-91148800D02*
X143647696Y-91110704D01*
X143647696Y-91110704D02*
X143609600Y-91034514D01*
X143609600Y-91034514D02*
X143609600Y-90805942D01*
X143609600Y-90805942D02*
X143647696Y-90729752D01*
X143647696Y-90729752D02*
X143685791Y-90691657D01*
X143685791Y-90691657D02*
X143761981Y-90653561D01*
X143761981Y-90653561D02*
X143876267Y-90653561D01*
X143876267Y-90653561D02*
X143952458Y-90691657D01*
X143952458Y-90691657D02*
X143990553Y-90729752D01*
X143990553Y-90729752D02*
X144028648Y-90805942D01*
X144028648Y-90805942D02*
X144028648Y-91034514D01*
X144028648Y-91034514D02*
X143990553Y-91110704D01*
X143990553Y-91110704D02*
X143952458Y-91148800D01*
X143952458Y-91148800D02*
X143876267Y-91186895D01*
X143876267Y-91186895D02*
X143761981Y-91186895D01*
X144333410Y-91148800D02*
X144409601Y-91186895D01*
X144409601Y-91186895D02*
X144561982Y-91186895D01*
X144561982Y-91186895D02*
X144638172Y-91148800D01*
X144638172Y-91148800D02*
X144676268Y-91072609D01*
X144676268Y-91072609D02*
X144676268Y-91034514D01*
X144676268Y-91034514D02*
X144638172Y-90958323D01*
X144638172Y-90958323D02*
X144561982Y-90920228D01*
X144561982Y-90920228D02*
X144447696Y-90920228D01*
X144447696Y-90920228D02*
X144371506Y-90882133D01*
X144371506Y-90882133D02*
X144333410Y-90805942D01*
X144333410Y-90805942D02*
X144333410Y-90767847D01*
X144333410Y-90767847D02*
X144371506Y-90691657D01*
X144371506Y-90691657D02*
X144447696Y-90653561D01*
X144447696Y-90653561D02*
X144561982Y-90653561D01*
X144561982Y-90653561D02*
X144638172Y-90691657D01*
X135296265Y-82906895D02*
X135296265Y-82106895D01*
X135677217Y-82906895D02*
X135677217Y-82106895D01*
X135677217Y-82106895D02*
X135943883Y-82678323D01*
X135943883Y-82678323D02*
X136210550Y-82106895D01*
X136210550Y-82106895D02*
X136210550Y-82906895D01*
X136591503Y-82106895D02*
X136591503Y-82754514D01*
X136591503Y-82754514D02*
X136629598Y-82830704D01*
X136629598Y-82830704D02*
X136667693Y-82868800D01*
X136667693Y-82868800D02*
X136743884Y-82906895D01*
X136743884Y-82906895D02*
X136896265Y-82906895D01*
X136896265Y-82906895D02*
X136972455Y-82868800D01*
X136972455Y-82868800D02*
X137010550Y-82830704D01*
X137010550Y-82830704D02*
X137048646Y-82754514D01*
X137048646Y-82754514D02*
X137048646Y-82106895D01*
X137848645Y-82906895D02*
X137391502Y-82906895D01*
X137620074Y-82906895D02*
X137620074Y-82106895D01*
X137620074Y-82106895D02*
X137543883Y-82221180D01*
X137543883Y-82221180D02*
X137467693Y-82297371D01*
X137467693Y-82297371D02*
X137391502Y-82335466D01*
X124760074Y-88120800D02*
X124874360Y-88158895D01*
X124874360Y-88158895D02*
X125064836Y-88158895D01*
X125064836Y-88158895D02*
X125141027Y-88120800D01*
X125141027Y-88120800D02*
X125179122Y-88082704D01*
X125179122Y-88082704D02*
X125217217Y-88006514D01*
X125217217Y-88006514D02*
X125217217Y-87930323D01*
X125217217Y-87930323D02*
X125179122Y-87854133D01*
X125179122Y-87854133D02*
X125141027Y-87816038D01*
X125141027Y-87816038D02*
X125064836Y-87777942D01*
X125064836Y-87777942D02*
X124912455Y-87739847D01*
X124912455Y-87739847D02*
X124836265Y-87701752D01*
X124836265Y-87701752D02*
X124798170Y-87663657D01*
X124798170Y-87663657D02*
X124760074Y-87587466D01*
X124760074Y-87587466D02*
X124760074Y-87511276D01*
X124760074Y-87511276D02*
X124798170Y-87435085D01*
X124798170Y-87435085D02*
X124836265Y-87396990D01*
X124836265Y-87396990D02*
X124912455Y-87358895D01*
X124912455Y-87358895D02*
X125102932Y-87358895D01*
X125102932Y-87358895D02*
X125217217Y-87396990D01*
X125560075Y-88158895D02*
X125560075Y-87358895D01*
X125560075Y-87358895D02*
X125750551Y-87358895D01*
X125750551Y-87358895D02*
X125864837Y-87396990D01*
X125864837Y-87396990D02*
X125941027Y-87473180D01*
X125941027Y-87473180D02*
X125979122Y-87549371D01*
X125979122Y-87549371D02*
X126017218Y-87701752D01*
X126017218Y-87701752D02*
X126017218Y-87816038D01*
X126017218Y-87816038D02*
X125979122Y-87968419D01*
X125979122Y-87968419D02*
X125941027Y-88044609D01*
X125941027Y-88044609D02*
X125864837Y-88120800D01*
X125864837Y-88120800D02*
X125750551Y-88158895D01*
X125750551Y-88158895D02*
X125560075Y-88158895D01*
X126321979Y-87930323D02*
X126702932Y-87930323D01*
X126245789Y-88158895D02*
X126512456Y-87358895D01*
X126512456Y-87358895D02*
X126779122Y-88158895D01*
X127007693Y-87435085D02*
X127045789Y-87396990D01*
X127045789Y-87396990D02*
X127121979Y-87358895D01*
X127121979Y-87358895D02*
X127312455Y-87358895D01*
X127312455Y-87358895D02*
X127388646Y-87396990D01*
X127388646Y-87396990D02*
X127426741Y-87435085D01*
X127426741Y-87435085D02*
X127464836Y-87511276D01*
X127464836Y-87511276D02*
X127464836Y-87587466D01*
X127464836Y-87587466D02*
X127426741Y-87701752D01*
X127426741Y-87701752D02*
X126969598Y-88158895D01*
X126969598Y-88158895D02*
X127464836Y-88158895D01*
X124798169Y-83168800D02*
X124912455Y-83206895D01*
X124912455Y-83206895D02*
X125102931Y-83206895D01*
X125102931Y-83206895D02*
X125179122Y-83168800D01*
X125179122Y-83168800D02*
X125217217Y-83130704D01*
X125217217Y-83130704D02*
X125255312Y-83054514D01*
X125255312Y-83054514D02*
X125255312Y-82978323D01*
X125255312Y-82978323D02*
X125217217Y-82902133D01*
X125217217Y-82902133D02*
X125179122Y-82864038D01*
X125179122Y-82864038D02*
X125102931Y-82825942D01*
X125102931Y-82825942D02*
X124950550Y-82787847D01*
X124950550Y-82787847D02*
X124874360Y-82749752D01*
X124874360Y-82749752D02*
X124836265Y-82711657D01*
X124836265Y-82711657D02*
X124798169Y-82635466D01*
X124798169Y-82635466D02*
X124798169Y-82559276D01*
X124798169Y-82559276D02*
X124836265Y-82483085D01*
X124836265Y-82483085D02*
X124874360Y-82444990D01*
X124874360Y-82444990D02*
X124950550Y-82406895D01*
X124950550Y-82406895D02*
X125141027Y-82406895D01*
X125141027Y-82406895D02*
X125255312Y-82444990D01*
X126055313Y-83130704D02*
X126017217Y-83168800D01*
X126017217Y-83168800D02*
X125902932Y-83206895D01*
X125902932Y-83206895D02*
X125826741Y-83206895D01*
X125826741Y-83206895D02*
X125712455Y-83168800D01*
X125712455Y-83168800D02*
X125636265Y-83092609D01*
X125636265Y-83092609D02*
X125598170Y-83016419D01*
X125598170Y-83016419D02*
X125560074Y-82864038D01*
X125560074Y-82864038D02*
X125560074Y-82749752D01*
X125560074Y-82749752D02*
X125598170Y-82597371D01*
X125598170Y-82597371D02*
X125636265Y-82521180D01*
X125636265Y-82521180D02*
X125712455Y-82444990D01*
X125712455Y-82444990D02*
X125826741Y-82406895D01*
X125826741Y-82406895D02*
X125902932Y-82406895D01*
X125902932Y-82406895D02*
X126017217Y-82444990D01*
X126017217Y-82444990D02*
X126055313Y-82483085D01*
X126779122Y-83206895D02*
X126398170Y-83206895D01*
X126398170Y-83206895D02*
X126398170Y-82406895D01*
X127464836Y-83206895D02*
X127007693Y-83206895D01*
X127236265Y-83206895D02*
X127236265Y-82406895D01*
X127236265Y-82406895D02*
X127160074Y-82521180D01*
X127160074Y-82521180D02*
X127083884Y-82597371D01*
X127083884Y-82597371D02*
X127007693Y-82635466D01*
X141076265Y-77046895D02*
X141076265Y-76246895D01*
X141457217Y-77046895D02*
X141457217Y-76246895D01*
X141457217Y-76246895D02*
X141723883Y-76818323D01*
X141723883Y-76818323D02*
X141990550Y-76246895D01*
X141990550Y-76246895D02*
X141990550Y-77046895D01*
X142371503Y-76246895D02*
X142371503Y-76894514D01*
X142371503Y-76894514D02*
X142409598Y-76970704D01*
X142409598Y-76970704D02*
X142447693Y-77008800D01*
X142447693Y-77008800D02*
X142523884Y-77046895D01*
X142523884Y-77046895D02*
X142676265Y-77046895D01*
X142676265Y-77046895D02*
X142752455Y-77008800D01*
X142752455Y-77008800D02*
X142790550Y-76970704D01*
X142790550Y-76970704D02*
X142828646Y-76894514D01*
X142828646Y-76894514D02*
X142828646Y-76246895D01*
X143171502Y-76323085D02*
X143209598Y-76284990D01*
X143209598Y-76284990D02*
X143285788Y-76246895D01*
X143285788Y-76246895D02*
X143476264Y-76246895D01*
X143476264Y-76246895D02*
X143552455Y-76284990D01*
X143552455Y-76284990D02*
X143590550Y-76323085D01*
X143590550Y-76323085D02*
X143628645Y-76399276D01*
X143628645Y-76399276D02*
X143628645Y-76475466D01*
X143628645Y-76475466D02*
X143590550Y-76589752D01*
X143590550Y-76589752D02*
X143133407Y-77046895D01*
X143133407Y-77046895D02*
X143628645Y-77046895D01*
X124760074Y-80692800D02*
X124874360Y-80730895D01*
X124874360Y-80730895D02*
X125064836Y-80730895D01*
X125064836Y-80730895D02*
X125141027Y-80692800D01*
X125141027Y-80692800D02*
X125179122Y-80654704D01*
X125179122Y-80654704D02*
X125217217Y-80578514D01*
X125217217Y-80578514D02*
X125217217Y-80502323D01*
X125217217Y-80502323D02*
X125179122Y-80426133D01*
X125179122Y-80426133D02*
X125141027Y-80388038D01*
X125141027Y-80388038D02*
X125064836Y-80349942D01*
X125064836Y-80349942D02*
X124912455Y-80311847D01*
X124912455Y-80311847D02*
X124836265Y-80273752D01*
X124836265Y-80273752D02*
X124798170Y-80235657D01*
X124798170Y-80235657D02*
X124760074Y-80159466D01*
X124760074Y-80159466D02*
X124760074Y-80083276D01*
X124760074Y-80083276D02*
X124798170Y-80007085D01*
X124798170Y-80007085D02*
X124836265Y-79968990D01*
X124836265Y-79968990D02*
X124912455Y-79930895D01*
X124912455Y-79930895D02*
X125102932Y-79930895D01*
X125102932Y-79930895D02*
X125217217Y-79968990D01*
X125560075Y-80730895D02*
X125560075Y-79930895D01*
X125560075Y-79930895D02*
X125750551Y-79930895D01*
X125750551Y-79930895D02*
X125864837Y-79968990D01*
X125864837Y-79968990D02*
X125941027Y-80045180D01*
X125941027Y-80045180D02*
X125979122Y-80121371D01*
X125979122Y-80121371D02*
X126017218Y-80273752D01*
X126017218Y-80273752D02*
X126017218Y-80388038D01*
X126017218Y-80388038D02*
X125979122Y-80540419D01*
X125979122Y-80540419D02*
X125941027Y-80616609D01*
X125941027Y-80616609D02*
X125864837Y-80692800D01*
X125864837Y-80692800D02*
X125750551Y-80730895D01*
X125750551Y-80730895D02*
X125560075Y-80730895D01*
X126321979Y-80502323D02*
X126702932Y-80502323D01*
X126245789Y-80730895D02*
X126512456Y-79930895D01*
X126512456Y-79930895D02*
X126779122Y-80730895D01*
X127464836Y-80730895D02*
X127007693Y-80730895D01*
X127236265Y-80730895D02*
X127236265Y-79930895D01*
X127236265Y-79930895D02*
X127160074Y-80045180D01*
X127160074Y-80045180D02*
X127083884Y-80121371D01*
X127083884Y-80121371D02*
X127007693Y-80159466D01*
X124798169Y-85644800D02*
X124912455Y-85682895D01*
X124912455Y-85682895D02*
X125102931Y-85682895D01*
X125102931Y-85682895D02*
X125179122Y-85644800D01*
X125179122Y-85644800D02*
X125217217Y-85606704D01*
X125217217Y-85606704D02*
X125255312Y-85530514D01*
X125255312Y-85530514D02*
X125255312Y-85454323D01*
X125255312Y-85454323D02*
X125217217Y-85378133D01*
X125217217Y-85378133D02*
X125179122Y-85340038D01*
X125179122Y-85340038D02*
X125102931Y-85301942D01*
X125102931Y-85301942D02*
X124950550Y-85263847D01*
X124950550Y-85263847D02*
X124874360Y-85225752D01*
X124874360Y-85225752D02*
X124836265Y-85187657D01*
X124836265Y-85187657D02*
X124798169Y-85111466D01*
X124798169Y-85111466D02*
X124798169Y-85035276D01*
X124798169Y-85035276D02*
X124836265Y-84959085D01*
X124836265Y-84959085D02*
X124874360Y-84920990D01*
X124874360Y-84920990D02*
X124950550Y-84882895D01*
X124950550Y-84882895D02*
X125141027Y-84882895D01*
X125141027Y-84882895D02*
X125255312Y-84920990D01*
X126055313Y-85606704D02*
X126017217Y-85644800D01*
X126017217Y-85644800D02*
X125902932Y-85682895D01*
X125902932Y-85682895D02*
X125826741Y-85682895D01*
X125826741Y-85682895D02*
X125712455Y-85644800D01*
X125712455Y-85644800D02*
X125636265Y-85568609D01*
X125636265Y-85568609D02*
X125598170Y-85492419D01*
X125598170Y-85492419D02*
X125560074Y-85340038D01*
X125560074Y-85340038D02*
X125560074Y-85225752D01*
X125560074Y-85225752D02*
X125598170Y-85073371D01*
X125598170Y-85073371D02*
X125636265Y-84997180D01*
X125636265Y-84997180D02*
X125712455Y-84920990D01*
X125712455Y-84920990D02*
X125826741Y-84882895D01*
X125826741Y-84882895D02*
X125902932Y-84882895D01*
X125902932Y-84882895D02*
X126017217Y-84920990D01*
X126017217Y-84920990D02*
X126055313Y-84959085D01*
X126779122Y-85682895D02*
X126398170Y-85682895D01*
X126398170Y-85682895D02*
X126398170Y-84882895D01*
X127007693Y-84959085D02*
X127045789Y-84920990D01*
X127045789Y-84920990D02*
X127121979Y-84882895D01*
X127121979Y-84882895D02*
X127312455Y-84882895D01*
X127312455Y-84882895D02*
X127388646Y-84920990D01*
X127388646Y-84920990D02*
X127426741Y-84959085D01*
X127426741Y-84959085D02*
X127464836Y-85035276D01*
X127464836Y-85035276D02*
X127464836Y-85111466D01*
X127464836Y-85111466D02*
X127426741Y-85225752D01*
X127426741Y-85225752D02*
X126969598Y-85682895D01*
X126969598Y-85682895D02*
X127464836Y-85682895D01*
X125788646Y-77492990D02*
X125712456Y-77454895D01*
X125712456Y-77454895D02*
X125598170Y-77454895D01*
X125598170Y-77454895D02*
X125483884Y-77492990D01*
X125483884Y-77492990D02*
X125407694Y-77569180D01*
X125407694Y-77569180D02*
X125369599Y-77645371D01*
X125369599Y-77645371D02*
X125331503Y-77797752D01*
X125331503Y-77797752D02*
X125331503Y-77912038D01*
X125331503Y-77912038D02*
X125369599Y-78064419D01*
X125369599Y-78064419D02*
X125407694Y-78140609D01*
X125407694Y-78140609D02*
X125483884Y-78216800D01*
X125483884Y-78216800D02*
X125598170Y-78254895D01*
X125598170Y-78254895D02*
X125674361Y-78254895D01*
X125674361Y-78254895D02*
X125788646Y-78216800D01*
X125788646Y-78216800D02*
X125826742Y-78178704D01*
X125826742Y-78178704D02*
X125826742Y-77912038D01*
X125826742Y-77912038D02*
X125674361Y-77912038D01*
X126169599Y-78254895D02*
X126169599Y-77454895D01*
X126169599Y-77454895D02*
X126626742Y-78254895D01*
X126626742Y-78254895D02*
X126626742Y-77454895D01*
X127007694Y-78254895D02*
X127007694Y-77454895D01*
X127007694Y-77454895D02*
X127198170Y-77454895D01*
X127198170Y-77454895D02*
X127312456Y-77492990D01*
X127312456Y-77492990D02*
X127388646Y-77569180D01*
X127388646Y-77569180D02*
X127426741Y-77645371D01*
X127426741Y-77645371D02*
X127464837Y-77797752D01*
X127464837Y-77797752D02*
X127464837Y-77912038D01*
X127464837Y-77912038D02*
X127426741Y-78064419D01*
X127426741Y-78064419D02*
X127388646Y-78140609D01*
X127388646Y-78140609D02*
X127312456Y-78216800D01*
X127312456Y-78216800D02*
X127198170Y-78254895D01*
X127198170Y-78254895D02*
X127007694Y-78254895D01*
X125141027Y-74978895D02*
X125636265Y-74978895D01*
X125636265Y-74978895D02*
X125369599Y-75283657D01*
X125369599Y-75283657D02*
X125483884Y-75283657D01*
X125483884Y-75283657D02*
X125560075Y-75321752D01*
X125560075Y-75321752D02*
X125598170Y-75359847D01*
X125598170Y-75359847D02*
X125636265Y-75436038D01*
X125636265Y-75436038D02*
X125636265Y-75626514D01*
X125636265Y-75626514D02*
X125598170Y-75702704D01*
X125598170Y-75702704D02*
X125560075Y-75740800D01*
X125560075Y-75740800D02*
X125483884Y-75778895D01*
X125483884Y-75778895D02*
X125255313Y-75778895D01*
X125255313Y-75778895D02*
X125179122Y-75740800D01*
X125179122Y-75740800D02*
X125141027Y-75702704D01*
X125979123Y-75702704D02*
X126017218Y-75740800D01*
X126017218Y-75740800D02*
X125979123Y-75778895D01*
X125979123Y-75778895D02*
X125941027Y-75740800D01*
X125941027Y-75740800D02*
X125979123Y-75702704D01*
X125979123Y-75702704D02*
X125979123Y-75778895D01*
X126283884Y-74978895D02*
X126779122Y-74978895D01*
X126779122Y-74978895D02*
X126512456Y-75283657D01*
X126512456Y-75283657D02*
X126626741Y-75283657D01*
X126626741Y-75283657D02*
X126702932Y-75321752D01*
X126702932Y-75321752D02*
X126741027Y-75359847D01*
X126741027Y-75359847D02*
X126779122Y-75436038D01*
X126779122Y-75436038D02*
X126779122Y-75626514D01*
X126779122Y-75626514D02*
X126741027Y-75702704D01*
X126741027Y-75702704D02*
X126702932Y-75740800D01*
X126702932Y-75740800D02*
X126626741Y-75778895D01*
X126626741Y-75778895D02*
X126398170Y-75778895D01*
X126398170Y-75778895D02*
X126321979Y-75740800D01*
X126321979Y-75740800D02*
X126283884Y-75702704D01*
X127007694Y-74978895D02*
X127274361Y-75778895D01*
X127274361Y-75778895D02*
X127541027Y-74978895D01*
D11*
X149123333Y-77899580D02*
X149075714Y-77947200D01*
X149075714Y-77947200D02*
X148932857Y-77994819D01*
X148932857Y-77994819D02*
X148837619Y-77994819D01*
X148837619Y-77994819D02*
X148694762Y-77947200D01*
X148694762Y-77947200D02*
X148599524Y-77851961D01*
X148599524Y-77851961D02*
X148551905Y-77756723D01*
X148551905Y-77756723D02*
X148504286Y-77566247D01*
X148504286Y-77566247D02*
X148504286Y-77423390D01*
X148504286Y-77423390D02*
X148551905Y-77232914D01*
X148551905Y-77232914D02*
X148599524Y-77137676D01*
X148599524Y-77137676D02*
X148694762Y-77042438D01*
X148694762Y-77042438D02*
X148837619Y-76994819D01*
X148837619Y-76994819D02*
X148932857Y-76994819D01*
X148932857Y-76994819D02*
X149075714Y-77042438D01*
X149075714Y-77042438D02*
X149123333Y-77090057D01*
X149980476Y-76994819D02*
X149790000Y-76994819D01*
X149790000Y-76994819D02*
X149694762Y-77042438D01*
X149694762Y-77042438D02*
X149647143Y-77090057D01*
X149647143Y-77090057D02*
X149551905Y-77232914D01*
X149551905Y-77232914D02*
X149504286Y-77423390D01*
X149504286Y-77423390D02*
X149504286Y-77804342D01*
X149504286Y-77804342D02*
X149551905Y-77899580D01*
X149551905Y-77899580D02*
X149599524Y-77947200D01*
X149599524Y-77947200D02*
X149694762Y-77994819D01*
X149694762Y-77994819D02*
X149885238Y-77994819D01*
X149885238Y-77994819D02*
X149980476Y-77947200D01*
X149980476Y-77947200D02*
X150028095Y-77899580D01*
X150028095Y-77899580D02*
X150075714Y-77804342D01*
X150075714Y-77804342D02*
X150075714Y-77566247D01*
X150075714Y-77566247D02*
X150028095Y-77471009D01*
X150028095Y-77471009D02*
X149980476Y-77423390D01*
X149980476Y-77423390D02*
X149885238Y-77375771D01*
X149885238Y-77375771D02*
X149694762Y-77375771D01*
X149694762Y-77375771D02*
X149599524Y-77423390D01*
X149599524Y-77423390D02*
X149551905Y-77471009D01*
X149551905Y-77471009D02*
X149504286Y-77566247D01*
X142003333Y-82229580D02*
X141955714Y-82277200D01*
X141955714Y-82277200D02*
X141812857Y-82324819D01*
X141812857Y-82324819D02*
X141717619Y-82324819D01*
X141717619Y-82324819D02*
X141574762Y-82277200D01*
X141574762Y-82277200D02*
X141479524Y-82181961D01*
X141479524Y-82181961D02*
X141431905Y-82086723D01*
X141431905Y-82086723D02*
X141384286Y-81896247D01*
X141384286Y-81896247D02*
X141384286Y-81753390D01*
X141384286Y-81753390D02*
X141431905Y-81562914D01*
X141431905Y-81562914D02*
X141479524Y-81467676D01*
X141479524Y-81467676D02*
X141574762Y-81372438D01*
X141574762Y-81372438D02*
X141717619Y-81324819D01*
X141717619Y-81324819D02*
X141812857Y-81324819D01*
X141812857Y-81324819D02*
X141955714Y-81372438D01*
X141955714Y-81372438D02*
X142003333Y-81420057D01*
X142336667Y-81324819D02*
X142955714Y-81324819D01*
X142955714Y-81324819D02*
X142622381Y-81705771D01*
X142622381Y-81705771D02*
X142765238Y-81705771D01*
X142765238Y-81705771D02*
X142860476Y-81753390D01*
X142860476Y-81753390D02*
X142908095Y-81801009D01*
X142908095Y-81801009D02*
X142955714Y-81896247D01*
X142955714Y-81896247D02*
X142955714Y-82134342D01*
X142955714Y-82134342D02*
X142908095Y-82229580D01*
X142908095Y-82229580D02*
X142860476Y-82277200D01*
X142860476Y-82277200D02*
X142765238Y-82324819D01*
X142765238Y-82324819D02*
X142479524Y-82324819D01*
X142479524Y-82324819D02*
X142384286Y-82277200D01*
X142384286Y-82277200D02*
X142336667Y-82229580D01*
X144333333Y-71564819D02*
X144000000Y-71088628D01*
X143761905Y-71564819D02*
X143761905Y-70564819D01*
X143761905Y-70564819D02*
X144142857Y-70564819D01*
X144142857Y-70564819D02*
X144238095Y-70612438D01*
X144238095Y-70612438D02*
X144285714Y-70660057D01*
X144285714Y-70660057D02*
X144333333Y-70755295D01*
X144333333Y-70755295D02*
X144333333Y-70898152D01*
X144333333Y-70898152D02*
X144285714Y-70993390D01*
X144285714Y-70993390D02*
X144238095Y-71041009D01*
X144238095Y-71041009D02*
X144142857Y-71088628D01*
X144142857Y-71088628D02*
X143761905Y-71088628D01*
X145285714Y-71564819D02*
X144714286Y-71564819D01*
X145000000Y-71564819D02*
X145000000Y-70564819D01*
X145000000Y-70564819D02*
X144904762Y-70707676D01*
X144904762Y-70707676D02*
X144809524Y-70802914D01*
X144809524Y-70802914D02*
X144714286Y-70850533D01*
X141933333Y-89074819D02*
X141600000Y-88598628D01*
X141361905Y-89074819D02*
X141361905Y-88074819D01*
X141361905Y-88074819D02*
X141742857Y-88074819D01*
X141742857Y-88074819D02*
X141838095Y-88122438D01*
X141838095Y-88122438D02*
X141885714Y-88170057D01*
X141885714Y-88170057D02*
X141933333Y-88265295D01*
X141933333Y-88265295D02*
X141933333Y-88408152D01*
X141933333Y-88408152D02*
X141885714Y-88503390D01*
X141885714Y-88503390D02*
X141838095Y-88551009D01*
X141838095Y-88551009D02*
X141742857Y-88598628D01*
X141742857Y-88598628D02*
X141361905Y-88598628D01*
X142314286Y-88170057D02*
X142361905Y-88122438D01*
X142361905Y-88122438D02*
X142457143Y-88074819D01*
X142457143Y-88074819D02*
X142695238Y-88074819D01*
X142695238Y-88074819D02*
X142790476Y-88122438D01*
X142790476Y-88122438D02*
X142838095Y-88170057D01*
X142838095Y-88170057D02*
X142885714Y-88265295D01*
X142885714Y-88265295D02*
X142885714Y-88360533D01*
X142885714Y-88360533D02*
X142838095Y-88503390D01*
X142838095Y-88503390D02*
X142266667Y-89074819D01*
X142266667Y-89074819D02*
X142885714Y-89074819D01*
X138632319Y-80171904D02*
X139441842Y-80171904D01*
X139441842Y-80171904D02*
X139537080Y-80124285D01*
X139537080Y-80124285D02*
X139584700Y-80076666D01*
X139584700Y-80076666D02*
X139632319Y-79981428D01*
X139632319Y-79981428D02*
X139632319Y-79790952D01*
X139632319Y-79790952D02*
X139584700Y-79695714D01*
X139584700Y-79695714D02*
X139537080Y-79648095D01*
X139537080Y-79648095D02*
X139441842Y-79600476D01*
X139441842Y-79600476D02*
X138632319Y-79600476D01*
X139632319Y-78600476D02*
X139632319Y-79171904D01*
X139632319Y-78886190D02*
X138632319Y-78886190D01*
X138632319Y-78886190D02*
X138775176Y-78981428D01*
X138775176Y-78981428D02*
X138870414Y-79076666D01*
X138870414Y-79076666D02*
X138918033Y-79171904D01*
X148183333Y-84419580D02*
X148135714Y-84467200D01*
X148135714Y-84467200D02*
X147992857Y-84514819D01*
X147992857Y-84514819D02*
X147897619Y-84514819D01*
X147897619Y-84514819D02*
X147754762Y-84467200D01*
X147754762Y-84467200D02*
X147659524Y-84371961D01*
X147659524Y-84371961D02*
X147611905Y-84276723D01*
X147611905Y-84276723D02*
X147564286Y-84086247D01*
X147564286Y-84086247D02*
X147564286Y-83943390D01*
X147564286Y-83943390D02*
X147611905Y-83752914D01*
X147611905Y-83752914D02*
X147659524Y-83657676D01*
X147659524Y-83657676D02*
X147754762Y-83562438D01*
X147754762Y-83562438D02*
X147897619Y-83514819D01*
X147897619Y-83514819D02*
X147992857Y-83514819D01*
X147992857Y-83514819D02*
X148135714Y-83562438D01*
X148135714Y-83562438D02*
X148183333Y-83610057D01*
X149040476Y-83848152D02*
X149040476Y-84514819D01*
X148802381Y-83467200D02*
X148564286Y-84181485D01*
X148564286Y-84181485D02*
X149183333Y-84181485D01*
X136623333Y-73129580D02*
X136575714Y-73177200D01*
X136575714Y-73177200D02*
X136432857Y-73224819D01*
X136432857Y-73224819D02*
X136337619Y-73224819D01*
X136337619Y-73224819D02*
X136194762Y-73177200D01*
X136194762Y-73177200D02*
X136099524Y-73081961D01*
X136099524Y-73081961D02*
X136051905Y-72986723D01*
X136051905Y-72986723D02*
X136004286Y-72796247D01*
X136004286Y-72796247D02*
X136004286Y-72653390D01*
X136004286Y-72653390D02*
X136051905Y-72462914D01*
X136051905Y-72462914D02*
X136099524Y-72367676D01*
X136099524Y-72367676D02*
X136194762Y-72272438D01*
X136194762Y-72272438D02*
X136337619Y-72224819D01*
X136337619Y-72224819D02*
X136432857Y-72224819D01*
X136432857Y-72224819D02*
X136575714Y-72272438D01*
X136575714Y-72272438D02*
X136623333Y-72320057D01*
X137575714Y-73224819D02*
X137004286Y-73224819D01*
X137290000Y-73224819D02*
X137290000Y-72224819D01*
X137290000Y-72224819D02*
X137194762Y-72367676D01*
X137194762Y-72367676D02*
X137099524Y-72462914D01*
X137099524Y-72462914D02*
X137004286Y-72510533D01*
X136083333Y-86379580D02*
X136035714Y-86427200D01*
X136035714Y-86427200D02*
X135892857Y-86474819D01*
X135892857Y-86474819D02*
X135797619Y-86474819D01*
X135797619Y-86474819D02*
X135654762Y-86427200D01*
X135654762Y-86427200D02*
X135559524Y-86331961D01*
X135559524Y-86331961D02*
X135511905Y-86236723D01*
X135511905Y-86236723D02*
X135464286Y-86046247D01*
X135464286Y-86046247D02*
X135464286Y-85903390D01*
X135464286Y-85903390D02*
X135511905Y-85712914D01*
X135511905Y-85712914D02*
X135559524Y-85617676D01*
X135559524Y-85617676D02*
X135654762Y-85522438D01*
X135654762Y-85522438D02*
X135797619Y-85474819D01*
X135797619Y-85474819D02*
X135892857Y-85474819D01*
X135892857Y-85474819D02*
X136035714Y-85522438D01*
X136035714Y-85522438D02*
X136083333Y-85570057D01*
X136464286Y-85570057D02*
X136511905Y-85522438D01*
X136511905Y-85522438D02*
X136607143Y-85474819D01*
X136607143Y-85474819D02*
X136845238Y-85474819D01*
X136845238Y-85474819D02*
X136940476Y-85522438D01*
X136940476Y-85522438D02*
X136988095Y-85570057D01*
X136988095Y-85570057D02*
X137035714Y-85665295D01*
X137035714Y-85665295D02*
X137035714Y-85760533D01*
X137035714Y-85760533D02*
X136988095Y-85903390D01*
X136988095Y-85903390D02*
X136416667Y-86474819D01*
X136416667Y-86474819D02*
X137035714Y-86474819D01*
X129206666Y-72274819D02*
X129206666Y-72989104D01*
X129206666Y-72989104D02*
X129159047Y-73131961D01*
X129159047Y-73131961D02*
X129063809Y-73227200D01*
X129063809Y-73227200D02*
X128920952Y-73274819D01*
X128920952Y-73274819D02*
X128825714Y-73274819D01*
X129635238Y-72370057D02*
X129682857Y-72322438D01*
X129682857Y-72322438D02*
X129778095Y-72274819D01*
X129778095Y-72274819D02*
X130016190Y-72274819D01*
X130016190Y-72274819D02*
X130111428Y-72322438D01*
X130111428Y-72322438D02*
X130159047Y-72370057D01*
X130159047Y-72370057D02*
X130206666Y-72465295D01*
X130206666Y-72465295D02*
X130206666Y-72560533D01*
X130206666Y-72560533D02*
X130159047Y-72703390D01*
X130159047Y-72703390D02*
X129587619Y-73274819D01*
X129587619Y-73274819D02*
X130206666Y-73274819D01*
X145159104Y-80634285D02*
X145159104Y-80158095D01*
X145444819Y-80729523D02*
X144444819Y-80396190D01*
X144444819Y-80396190D02*
X145444819Y-80062857D01*
X145349580Y-79158095D02*
X145397200Y-79205714D01*
X145397200Y-79205714D02*
X145444819Y-79348571D01*
X145444819Y-79348571D02*
X145444819Y-79443809D01*
X145444819Y-79443809D02*
X145397200Y-79586666D01*
X145397200Y-79586666D02*
X145301961Y-79681904D01*
X145301961Y-79681904D02*
X145206723Y-79729523D01*
X145206723Y-79729523D02*
X145016247Y-79777142D01*
X145016247Y-79777142D02*
X144873390Y-79777142D01*
X144873390Y-79777142D02*
X144682914Y-79729523D01*
X144682914Y-79729523D02*
X144587676Y-79681904D01*
X144587676Y-79681904D02*
X144492438Y-79586666D01*
X144492438Y-79586666D02*
X144444819Y-79443809D01*
X144444819Y-79443809D02*
X144444819Y-79348571D01*
X144444819Y-79348571D02*
X144492438Y-79205714D01*
X144492438Y-79205714D02*
X144540057Y-79158095D01*
X145444819Y-78205714D02*
X145444819Y-78777142D01*
X145444819Y-78491428D02*
X144444819Y-78491428D01*
X144444819Y-78491428D02*
X144587676Y-78586666D01*
X144587676Y-78586666D02*
X144682914Y-78681904D01*
X144682914Y-78681904D02*
X144730533Y-78777142D01*
D12*
%TO.C,C6*%
X146290000Y-79180000D02*
X146790000Y-79180000D01*
X146540000Y-78930000D02*
X146540000Y-79430000D01*
X147030000Y-79544437D02*
X147030000Y-79680000D01*
X147030000Y-79544437D02*
X148094437Y-78480000D01*
X147030000Y-81935563D02*
X147030000Y-81800000D01*
X147030000Y-81935563D02*
X148094437Y-83000000D01*
X148094437Y-78480000D02*
X151550000Y-78480000D01*
X148094437Y-83000000D02*
X151550000Y-83000000D01*
X151550000Y-78480000D02*
X151550000Y-79680000D01*
X151550000Y-83000000D02*
X151550000Y-81800000D01*
%TO.C,C3*%
X141458748Y-82810000D02*
X142881252Y-82810000D01*
X141458748Y-84630000D02*
X142881252Y-84630000D01*
%TO.C,R1*%
X143772936Y-72030000D02*
X145227064Y-72030000D01*
X143772936Y-73850000D02*
X145227064Y-73850000D01*
%TO.C,R2*%
X142827064Y-85880000D02*
X141372936Y-85880000D01*
X142827064Y-87700000D02*
X141372936Y-87700000D01*
%TO.C,U1*%
X135017500Y-77050000D02*
X136242500Y-77050000D01*
X135017500Y-77525000D02*
X135017500Y-77050000D01*
X135017500Y-81770000D02*
X135017500Y-81295000D01*
X136242500Y-81770000D02*
X135017500Y-81770000D01*
X137012500Y-77050000D02*
X138237500Y-77050000D01*
X138237500Y-77050000D02*
X138237500Y-77525000D01*
X138237500Y-81295000D02*
X138237500Y-81770000D01*
X138237500Y-81770000D02*
X137012500Y-81770000D01*
X138817500Y-78150000D02*
X138487500Y-77910000D01*
X138817500Y-77670000D01*
X138817500Y-78150000D01*
G36*
X138817500Y-78150000D02*
G01*
X138487500Y-77910000D01*
X138817500Y-77670000D01*
X138817500Y-78150000D01*
G37*
D13*
%TO.C,G\u002A\u002A\u002A*%
G36*
X148829231Y-89752920D02*
G01*
X148866342Y-89770086D01*
X148897756Y-89794431D01*
X148906961Y-89805065D01*
X148919918Y-89827255D01*
X148925756Y-89852873D01*
X148926706Y-89875890D01*
X148920464Y-89919632D01*
X148901146Y-89954443D01*
X148867867Y-89981703D01*
X148853832Y-89989198D01*
X148809733Y-90003329D01*
X148766844Y-90001674D01*
X148731895Y-89989022D01*
X148694050Y-89963662D01*
X148670506Y-89931429D01*
X148660291Y-89890801D01*
X148659678Y-89875890D01*
X148661860Y-89843777D01*
X148669773Y-89820070D01*
X148679423Y-89805065D01*
X148706803Y-89778873D01*
X148742506Y-89758506D01*
X148779765Y-89747455D01*
X148793192Y-89746422D01*
X148829231Y-89752920D01*
G37*
G36*
X149258309Y-88172577D02*
G01*
X149277982Y-88208848D01*
X149295354Y-88239357D01*
X149308897Y-88261537D01*
X149317088Y-88272823D01*
X149318428Y-88273724D01*
X149324371Y-88266984D01*
X149336292Y-88248464D01*
X149352652Y-88220720D01*
X149371912Y-88186305D01*
X149379365Y-88172577D01*
X149433842Y-88071430D01*
X149465672Y-88071430D01*
X149497503Y-88071430D01*
X149481812Y-88101774D01*
X149472045Y-88119972D01*
X149456241Y-88148642D01*
X149436391Y-88184204D01*
X149414486Y-88223077D01*
X149408822Y-88233067D01*
X149351523Y-88334015D01*
X149351523Y-88425246D01*
X149351523Y-88516477D01*
X149319156Y-88516477D01*
X149286789Y-88516477D01*
X149286789Y-88427479D01*
X149286789Y-88338481D01*
X149213963Y-88209868D01*
X149190789Y-88168684D01*
X149170659Y-88132421D01*
X149154834Y-88103391D01*
X149144577Y-88083906D01*
X149141137Y-88076342D01*
X149148314Y-88073241D01*
X149166200Y-88071541D01*
X149172894Y-88071430D01*
X149204651Y-88071430D01*
X149258309Y-88172577D01*
G37*
G36*
X150513186Y-89147571D02*
G01*
X150517937Y-89147633D01*
X150538572Y-89149060D01*
X150545234Y-89153861D01*
X150543963Y-89157748D01*
X150537598Y-89167947D01*
X150524283Y-89189044D01*
X150505759Y-89218287D01*
X150483768Y-89252923D01*
X150475469Y-89265976D01*
X150413069Y-89364090D01*
X150467184Y-89448041D01*
X150490134Y-89483765D01*
X150511701Y-89517553D01*
X150529345Y-89545411D01*
X150539906Y-89562335D01*
X150558513Y-89592679D01*
X150523463Y-89592430D01*
X150488413Y-89592181D01*
X150435817Y-89503541D01*
X150415714Y-89470170D01*
X150398482Y-89442520D01*
X150385805Y-89423225D01*
X150379367Y-89414917D01*
X150379064Y-89414780D01*
X150373488Y-89421209D01*
X150361194Y-89438878D01*
X150343901Y-89465216D01*
X150323330Y-89497653D01*
X150319580Y-89503670D01*
X150296847Y-89540015D01*
X150280487Y-89564812D01*
X150268345Y-89580269D01*
X150258267Y-89588594D01*
X150248100Y-89591993D01*
X150235687Y-89592675D01*
X150232704Y-89592679D01*
X150212731Y-89591791D01*
X150201835Y-89589580D01*
X150201156Y-89588775D01*
X150205299Y-89580977D01*
X150216737Y-89561987D01*
X150233986Y-89534207D01*
X150255560Y-89500039D01*
X150269936Y-89477514D01*
X150293466Y-89440259D01*
X150313532Y-89407491D01*
X150328631Y-89381739D01*
X150337263Y-89365535D01*
X150338715Y-89361501D01*
X150334546Y-89351947D01*
X150323072Y-89331478D01*
X150305849Y-89302725D01*
X150284427Y-89268319D01*
X150274199Y-89252262D01*
X150209681Y-89151679D01*
X150238852Y-89149104D01*
X150260369Y-89149444D01*
X150274937Y-89153650D01*
X150276044Y-89154549D01*
X150283237Y-89164434D01*
X150296607Y-89185100D01*
X150314139Y-89213368D01*
X150330867Y-89241096D01*
X150377670Y-89319621D01*
X150399917Y-89284201D01*
X150429032Y-89237766D01*
X150450873Y-89203193D01*
X150466939Y-89178743D01*
X150478731Y-89162681D01*
X150487751Y-89153269D01*
X150495500Y-89148771D01*
X150503478Y-89147451D01*
X150513186Y-89147571D01*
G37*
G36*
X148798171Y-87689874D02*
G01*
X148810190Y-87708850D01*
X148828261Y-87738423D01*
X148851356Y-87776890D01*
X148878449Y-87822545D01*
X148908509Y-87873686D01*
X148920678Y-87894512D01*
X148960148Y-87962966D01*
X148992434Y-88020633D01*
X149017200Y-88066878D01*
X149034114Y-88101071D01*
X149042843Y-88122579D01*
X149044036Y-88128585D01*
X149037568Y-88149257D01*
X149021754Y-88169048D01*
X149001978Y-88182281D01*
X148990800Y-88184715D01*
X148972018Y-88176963D01*
X148948631Y-88153716D01*
X148920653Y-88114993D01*
X148894138Y-88071430D01*
X148849938Y-87994559D01*
X148849886Y-88698712D01*
X148849834Y-89402866D01*
X148900408Y-89412470D01*
X148967745Y-89432602D01*
X149034701Y-89466150D01*
X149097771Y-89510652D01*
X149153448Y-89563646D01*
X149197067Y-89620823D01*
X149216471Y-89655537D01*
X149235180Y-89695932D01*
X149251486Y-89737511D01*
X149263682Y-89775773D01*
X149270061Y-89806220D01*
X149270605Y-89814606D01*
X149270605Y-89835432D01*
X150037238Y-89835432D01*
X150803871Y-89835432D01*
X150714922Y-89783790D01*
X150671062Y-89757211D01*
X150640576Y-89735539D01*
X150622081Y-89717029D01*
X150614197Y-89699937D01*
X150615542Y-89682518D01*
X150622447Y-89666977D01*
X150630605Y-89654465D01*
X150640000Y-89646103D01*
X150652171Y-89642413D01*
X150668656Y-89643914D01*
X150690992Y-89651127D01*
X150720717Y-89664573D01*
X150759370Y-89684771D01*
X150808490Y-89712244D01*
X150869613Y-89747510D01*
X150882351Y-89754925D01*
X150934370Y-89785265D01*
X150982587Y-89813445D01*
X151025002Y-89838292D01*
X151059618Y-89858634D01*
X151084434Y-89873299D01*
X151097452Y-89881112D01*
X151098009Y-89881460D01*
X151102860Y-89885092D01*
X151104678Y-89889152D01*
X151102137Y-89894572D01*
X151093911Y-89902283D01*
X151078675Y-89913217D01*
X151055103Y-89928305D01*
X151021867Y-89948481D01*
X150977644Y-89974674D01*
X150921106Y-90007818D01*
X150903807Y-90017934D01*
X150838677Y-90055576D01*
X150782463Y-90087179D01*
X150736177Y-90112204D01*
X150700834Y-90130113D01*
X150677448Y-90140369D01*
X150668455Y-90142716D01*
X150644516Y-90136439D01*
X150624685Y-90120365D01*
X150614320Y-90099289D01*
X150613836Y-90093836D01*
X150616372Y-90075711D01*
X150625500Y-90059447D01*
X150643497Y-90042712D01*
X150672638Y-90023173D01*
X150696640Y-90009008D01*
X150727739Y-89990978D01*
X150754975Y-89974856D01*
X150774240Y-89963087D01*
X150779494Y-89959671D01*
X150780247Y-89957800D01*
X150776142Y-89956148D01*
X150766307Y-89954702D01*
X150749870Y-89953449D01*
X150725957Y-89952376D01*
X150693696Y-89951470D01*
X150652216Y-89950719D01*
X150600643Y-89950110D01*
X150538104Y-89949630D01*
X150463728Y-89949266D01*
X150376642Y-89949006D01*
X150275974Y-89948836D01*
X150160850Y-89948743D01*
X150033030Y-89948716D01*
X149270605Y-89948716D01*
X149270605Y-89969542D01*
X149268068Y-89987161D01*
X149261369Y-90014508D01*
X149251876Y-90046102D01*
X149250356Y-90050689D01*
X149215216Y-90131451D01*
X149168066Y-90202659D01*
X149110475Y-90263416D01*
X149044008Y-90312824D01*
X148970231Y-90349985D01*
X148890713Y-90373999D01*
X148807019Y-90383970D01*
X148720715Y-90378999D01*
X148687999Y-90373099D01*
X148608647Y-90347995D01*
X148535181Y-90308724D01*
X148469154Y-90256711D01*
X148412115Y-90193382D01*
X148365613Y-90120161D01*
X148334428Y-90048070D01*
X148324371Y-90016782D01*
X148317917Y-89989099D01*
X148314312Y-89959623D01*
X148312799Y-89922957D01*
X148312579Y-89892074D01*
X148312724Y-89880225D01*
X148421941Y-89880225D01*
X148426932Y-89954912D01*
X148433362Y-89984793D01*
X148459868Y-90057254D01*
X148498416Y-90121024D01*
X148547279Y-90174994D01*
X148604729Y-90218056D01*
X148669038Y-90249101D01*
X148738478Y-90267022D01*
X148811323Y-90270711D01*
X148867642Y-90263367D01*
X148938709Y-90240413D01*
X149003084Y-90203712D01*
X149059088Y-90154904D01*
X149105039Y-90095631D01*
X149139256Y-90027534D01*
X149153022Y-89984793D01*
X149164496Y-89911526D01*
X149161427Y-89840080D01*
X149145156Y-89771955D01*
X149117022Y-89708648D01*
X149078364Y-89651656D01*
X149030521Y-89602478D01*
X148974834Y-89562610D01*
X148912642Y-89533552D01*
X148845283Y-89516800D01*
X148774098Y-89513852D01*
X148735849Y-89518301D01*
X148663530Y-89537468D01*
X148599530Y-89569469D01*
X148543302Y-89613324D01*
X148493253Y-89670233D01*
X148455847Y-89735366D01*
X148431827Y-89806203D01*
X148421941Y-89880225D01*
X148312724Y-89880225D01*
X148313123Y-89847674D01*
X148315258Y-89814039D01*
X148319740Y-89785771D01*
X148327326Y-89757475D01*
X148334428Y-89736078D01*
X148369052Y-89657835D01*
X148415139Y-89587226D01*
X148470908Y-89525894D01*
X148534572Y-89475480D01*
X148604348Y-89437628D01*
X148678451Y-89413980D01*
X148685976Y-89412470D01*
X148736550Y-89402866D01*
X148736488Y-88698712D01*
X148736426Y-87994559D01*
X148685914Y-88079299D01*
X148661649Y-88117877D01*
X148639664Y-88148797D01*
X148621872Y-88169501D01*
X148613521Y-88176234D01*
X148597315Y-88183555D01*
X148584645Y-88181877D01*
X148569017Y-88171611D01*
X148557586Y-88162301D01*
X148549646Y-88152653D01*
X148545742Y-88141108D01*
X148546422Y-88126106D01*
X148552230Y-88106088D01*
X148563714Y-88079497D01*
X148581420Y-88044773D01*
X148605893Y-88000358D01*
X148637679Y-87944692D01*
X148665166Y-87897176D01*
X148696115Y-87844021D01*
X148724506Y-87795673D01*
X148749320Y-87753836D01*
X148769539Y-87720210D01*
X148784142Y-87696500D01*
X148792113Y-87684405D01*
X148793233Y-87683199D01*
X148798171Y-87689874D01*
G37*
D12*
%TO.C,C4*%
X147638748Y-85000000D02*
X149061252Y-85000000D01*
X147638748Y-86820000D02*
X149061252Y-86820000D01*
%TO.C,C1*%
X136078748Y-73710000D02*
X137501252Y-73710000D01*
X136078748Y-75530000D02*
X137501252Y-75530000D01*
%TO.C,C2*%
X136961252Y-83260000D02*
X135538748Y-83260000D01*
X136961252Y-85080000D02*
X135538748Y-85080000D01*
%TO.C,J2*%
X128160000Y-73820000D02*
X129540000Y-73820000D01*
X128160000Y-75200000D02*
X128160000Y-73820000D01*
X128160000Y-76470000D02*
X128160000Y-89280000D01*
X128160000Y-76470000D02*
X130920000Y-76470000D01*
X128160000Y-89280000D02*
X130920000Y-89280000D01*
X130920000Y-76470000D02*
X130920000Y-89280000D01*
D10*
%TO.C,AC1*%
X140400000Y-78600000D02*
X140400000Y-78600000D01*
X140400000Y-78700000D02*
X140400000Y-78700000D01*
X140800000Y-78150000D02*
X141500000Y-78150000D01*
X140800000Y-78400000D02*
X140800000Y-78150000D01*
X140800000Y-80500000D02*
X140800000Y-80650000D01*
X140800000Y-80650000D02*
X141500000Y-80650000D01*
X143100000Y-78150000D02*
X143800000Y-78150000D01*
X143100000Y-80650000D02*
X143800000Y-80650000D01*
X143800000Y-78150000D02*
X143800000Y-78400000D01*
X143800000Y-80650000D02*
X143800000Y-80400000D01*
X140400000Y-78600000D02*
G75*
G02*
X140400000Y-78700000I0J-50000D01*
G01*
X140400000Y-78700000D02*
G75*
G02*
X140400000Y-78600000I0J50000D01*
G01*
%TD*%
M02*
