%TF.GenerationSoftware,KiCad,Pcbnew,9.0.6*%
%TF.CreationDate,2026-01-18T05:45:25-03:00*%
%TF.ProjectId,dual IMU_moduleV2,6475616c-2049-44d5-955f-6d6f64756c65,rev?*%
%TF.SameCoordinates,Original*%
%TF.FileFunction,Drillmap*%
%TF.FilePolarity,Positive*%
%FSLAX45Y45*%
G04 Gerber Fmt 4.5, Leading zero omitted, Abs format (unit mm)*
G04 Created by KiCad (PCBNEW 9.0.6) date 2026-01-18 05:45:25*
%MOMM*%
%LPD*%
G01*
G04 APERTURE LIST*
%ADD10C,0.050000*%
%ADD11C,0.200000*%
G04 APERTURE END LIST*
D10*
X12539000Y-6959000D02*
X15615000Y-6959000D01*
X15615000Y-9355000D01*
X12539000Y-9355000D01*
X12539000Y-6959000D01*
D11*
X12797277Y-9668984D02*
X12797277Y-9468984D01*
X12797277Y-9468984D02*
X12844896Y-9468984D01*
X12844896Y-9468984D02*
X12873467Y-9478508D01*
X12873467Y-9478508D02*
X12892515Y-9497555D01*
X12892515Y-9497555D02*
X12902039Y-9516603D01*
X12902039Y-9516603D02*
X12911562Y-9554698D01*
X12911562Y-9554698D02*
X12911562Y-9583270D01*
X12911562Y-9583270D02*
X12902039Y-9621365D01*
X12902039Y-9621365D02*
X12892515Y-9640412D01*
X12892515Y-9640412D02*
X12873467Y-9659460D01*
X12873467Y-9659460D02*
X12844896Y-9668984D01*
X12844896Y-9668984D02*
X12797277Y-9668984D01*
X12997277Y-9668984D02*
X12997277Y-9535650D01*
X12997277Y-9573746D02*
X13006801Y-9554698D01*
X13006801Y-9554698D02*
X13016324Y-9545174D01*
X13016324Y-9545174D02*
X13035372Y-9535650D01*
X13035372Y-9535650D02*
X13054420Y-9535650D01*
X13121086Y-9668984D02*
X13121086Y-9535650D01*
X13121086Y-9468984D02*
X13111562Y-9478508D01*
X13111562Y-9478508D02*
X13121086Y-9488031D01*
X13121086Y-9488031D02*
X13130610Y-9478508D01*
X13130610Y-9478508D02*
X13121086Y-9468984D01*
X13121086Y-9468984D02*
X13121086Y-9488031D01*
X13244896Y-9668984D02*
X13225848Y-9659460D01*
X13225848Y-9659460D02*
X13216324Y-9640412D01*
X13216324Y-9640412D02*
X13216324Y-9468984D01*
X13349658Y-9668984D02*
X13330610Y-9659460D01*
X13330610Y-9659460D02*
X13321086Y-9640412D01*
X13321086Y-9640412D02*
X13321086Y-9468984D01*
X13578229Y-9668984D02*
X13578229Y-9468984D01*
X13578229Y-9468984D02*
X13644896Y-9611841D01*
X13644896Y-9611841D02*
X13711562Y-9468984D01*
X13711562Y-9468984D02*
X13711562Y-9668984D01*
X13892515Y-9668984D02*
X13892515Y-9564222D01*
X13892515Y-9564222D02*
X13882991Y-9545174D01*
X13882991Y-9545174D02*
X13863943Y-9535650D01*
X13863943Y-9535650D02*
X13825848Y-9535650D01*
X13825848Y-9535650D02*
X13806801Y-9545174D01*
X13892515Y-9659460D02*
X13873467Y-9668984D01*
X13873467Y-9668984D02*
X13825848Y-9668984D01*
X13825848Y-9668984D02*
X13806801Y-9659460D01*
X13806801Y-9659460D02*
X13797277Y-9640412D01*
X13797277Y-9640412D02*
X13797277Y-9621365D01*
X13797277Y-9621365D02*
X13806801Y-9602317D01*
X13806801Y-9602317D02*
X13825848Y-9592793D01*
X13825848Y-9592793D02*
X13873467Y-9592793D01*
X13873467Y-9592793D02*
X13892515Y-9583270D01*
X13987753Y-9535650D02*
X13987753Y-9735650D01*
X13987753Y-9545174D02*
X14006801Y-9535650D01*
X14006801Y-9535650D02*
X14044896Y-9535650D01*
X14044896Y-9535650D02*
X14063943Y-9545174D01*
X14063943Y-9545174D02*
X14073467Y-9554698D01*
X14073467Y-9554698D02*
X14082991Y-9573746D01*
X14082991Y-9573746D02*
X14082991Y-9630889D01*
X14082991Y-9630889D02*
X14073467Y-9649936D01*
X14073467Y-9649936D02*
X14063943Y-9659460D01*
X14063943Y-9659460D02*
X14044896Y-9668984D01*
X14044896Y-9668984D02*
X14006801Y-9668984D01*
X14006801Y-9668984D02*
X13987753Y-9659460D01*
X14168705Y-9649936D02*
X14178229Y-9659460D01*
X14178229Y-9659460D02*
X14168705Y-9668984D01*
X14168705Y-9668984D02*
X14159182Y-9659460D01*
X14159182Y-9659460D02*
X14168705Y-9649936D01*
X14168705Y-9649936D02*
X14168705Y-9668984D01*
X14168705Y-9545174D02*
X14178229Y-9554698D01*
X14178229Y-9554698D02*
X14168705Y-9564222D01*
X14168705Y-9564222D02*
X14159182Y-9554698D01*
X14159182Y-9554698D02*
X14168705Y-9545174D01*
X14168705Y-9545174D02*
X14168705Y-9564222D01*
M02*
