%TF.GenerationSoftware,KiCad,Pcbnew,9.0.6*%
%TF.CreationDate,2026-01-27T06:15:14-03:00*%
%TF.ProjectId,dual IMU_moduleV2,6475616c-2049-44d5-955f-6d6f64756c65,rev?*%
%TF.SameCoordinates,Original*%
%TF.FileFunction,Drillmap*%
%TF.FilePolarity,Positive*%
%FSLAX45Y45*%
G04 Gerber Fmt 4.5, Leading zero omitted, Abs format (unit mm)*
G04 Created by KiCad (PCBNEW 9.0.6) date 2026-01-27 06:15:14*
%MOMM*%
%LPD*%
G01*
G04 APERTURE LIST*
%ADD10C,0.050000*%
%ADD11C,0.200000*%
G04 APERTURE END LIST*
D10*
X12702000Y-9355000D02*
G75*
G02*
X12602000Y-9255000I0J100000D01*
G01*
X12602000Y-7059000D02*
G75*
G02*
X12702000Y-6959000I100000J0D01*
G01*
X15615000Y-9255000D02*
G75*
G02*
X15515000Y-9355000I-100000J0D01*
G01*
X15515000Y-6959000D02*
G75*
G02*
X15615000Y-7059000I0J-100000D01*
G01*
X12602000Y-9255000D02*
X12602000Y-7059000D01*
X15515000Y-9355000D02*
X12702000Y-9355000D01*
X12702000Y-6959000D02*
X15515000Y-6959000D01*
X15615000Y-7059000D02*
X15615000Y-9255000D01*
D11*
X12860277Y-9668984D02*
X12860277Y-9468984D01*
X12860277Y-9468984D02*
X12907896Y-9468984D01*
X12907896Y-9468984D02*
X12936467Y-9478508D01*
X12936467Y-9478508D02*
X12955515Y-9497555D01*
X12955515Y-9497555D02*
X12965039Y-9516603D01*
X12965039Y-9516603D02*
X12974562Y-9554698D01*
X12974562Y-9554698D02*
X12974562Y-9583270D01*
X12974562Y-9583270D02*
X12965039Y-9621365D01*
X12965039Y-9621365D02*
X12955515Y-9640412D01*
X12955515Y-9640412D02*
X12936467Y-9659460D01*
X12936467Y-9659460D02*
X12907896Y-9668984D01*
X12907896Y-9668984D02*
X12860277Y-9668984D01*
X13060277Y-9668984D02*
X13060277Y-9535650D01*
X13060277Y-9573746D02*
X13069801Y-9554698D01*
X13069801Y-9554698D02*
X13079324Y-9545174D01*
X13079324Y-9545174D02*
X13098372Y-9535650D01*
X13098372Y-9535650D02*
X13117420Y-9535650D01*
X13184086Y-9668984D02*
X13184086Y-9535650D01*
X13184086Y-9468984D02*
X13174562Y-9478508D01*
X13174562Y-9478508D02*
X13184086Y-9488031D01*
X13184086Y-9488031D02*
X13193610Y-9478508D01*
X13193610Y-9478508D02*
X13184086Y-9468984D01*
X13184086Y-9468984D02*
X13184086Y-9488031D01*
X13307896Y-9668984D02*
X13288848Y-9659460D01*
X13288848Y-9659460D02*
X13279324Y-9640412D01*
X13279324Y-9640412D02*
X13279324Y-9468984D01*
X13412658Y-9668984D02*
X13393610Y-9659460D01*
X13393610Y-9659460D02*
X13384086Y-9640412D01*
X13384086Y-9640412D02*
X13384086Y-9468984D01*
X13641229Y-9668984D02*
X13641229Y-9468984D01*
X13641229Y-9468984D02*
X13707896Y-9611841D01*
X13707896Y-9611841D02*
X13774562Y-9468984D01*
X13774562Y-9468984D02*
X13774562Y-9668984D01*
X13955515Y-9668984D02*
X13955515Y-9564222D01*
X13955515Y-9564222D02*
X13945991Y-9545174D01*
X13945991Y-9545174D02*
X13926943Y-9535650D01*
X13926943Y-9535650D02*
X13888848Y-9535650D01*
X13888848Y-9535650D02*
X13869801Y-9545174D01*
X13955515Y-9659460D02*
X13936467Y-9668984D01*
X13936467Y-9668984D02*
X13888848Y-9668984D01*
X13888848Y-9668984D02*
X13869801Y-9659460D01*
X13869801Y-9659460D02*
X13860277Y-9640412D01*
X13860277Y-9640412D02*
X13860277Y-9621365D01*
X13860277Y-9621365D02*
X13869801Y-9602317D01*
X13869801Y-9602317D02*
X13888848Y-9592793D01*
X13888848Y-9592793D02*
X13936467Y-9592793D01*
X13936467Y-9592793D02*
X13955515Y-9583270D01*
X14050753Y-9535650D02*
X14050753Y-9735650D01*
X14050753Y-9545174D02*
X14069801Y-9535650D01*
X14069801Y-9535650D02*
X14107896Y-9535650D01*
X14107896Y-9535650D02*
X14126943Y-9545174D01*
X14126943Y-9545174D02*
X14136467Y-9554698D01*
X14136467Y-9554698D02*
X14145991Y-9573746D01*
X14145991Y-9573746D02*
X14145991Y-9630889D01*
X14145991Y-9630889D02*
X14136467Y-9649936D01*
X14136467Y-9649936D02*
X14126943Y-9659460D01*
X14126943Y-9659460D02*
X14107896Y-9668984D01*
X14107896Y-9668984D02*
X14069801Y-9668984D01*
X14069801Y-9668984D02*
X14050753Y-9659460D01*
X14231705Y-9649936D02*
X14241229Y-9659460D01*
X14241229Y-9659460D02*
X14231705Y-9668984D01*
X14231705Y-9668984D02*
X14222182Y-9659460D01*
X14222182Y-9659460D02*
X14231705Y-9649936D01*
X14231705Y-9649936D02*
X14231705Y-9668984D01*
X14231705Y-9545174D02*
X14241229Y-9554698D01*
X14241229Y-9554698D02*
X14231705Y-9564222D01*
X14231705Y-9564222D02*
X14222182Y-9554698D01*
X14222182Y-9554698D02*
X14231705Y-9545174D01*
X14231705Y-9545174D02*
X14231705Y-9564222D01*
M02*
