%TF.GenerationSoftware,KiCad,Pcbnew,9.0.6*%
%TF.CreationDate,2026-01-18T05:45:24-03:00*%
%TF.ProjectId,dual IMU_moduleV2,6475616c-2049-44d5-955f-6d6f64756c65,rev?*%
%TF.SameCoordinates,Original*%
%TF.FileFunction,Drillmap*%
%TF.FilePolarity,Positive*%
%FSLAX45Y45*%
G04 Gerber Fmt 4.5, Leading zero omitted, Abs format (unit mm)*
G04 Created by KiCad (PCBNEW 9.0.6) date 2026-01-18 05:45:24*
%MOMM*%
%LPD*%
G01*
G04 APERTURE LIST*
%ADD10C,0.050000*%
%ADD11C,0.200000*%
%ADD12C,0.100000*%
G04 APERTURE END LIST*
D10*
X12539000Y-6959000D02*
X15615000Y-6959000D01*
X15615000Y-9355000D01*
X12539000Y-9355000D01*
X12539000Y-6959000D01*
D11*
D12*
X13295000Y-7905000D02*
X13325000Y-7935000D01*
X13325000Y-7905000D02*
X13295000Y-7935000D01*
X13336000Y-7686000D02*
X13366000Y-7716000D01*
X13366000Y-7686000D02*
X13336000Y-7716000D01*
X13898000Y-8037000D02*
X13928000Y-8067000D01*
X13928000Y-8037000D02*
X13898000Y-8067000D01*
X13909000Y-7688000D02*
X13939000Y-7718000D01*
X13939000Y-7688000D02*
X13909000Y-7718000D01*
X14319000Y-8151000D02*
X14349000Y-8181000D01*
X14349000Y-8151000D02*
X14319000Y-8181000D01*
X14508000Y-7819000D02*
X14538000Y-7849000D01*
X14538000Y-7819000D02*
X14508000Y-7849000D01*
X14587000Y-8385000D02*
X14617000Y-8415000D01*
X14617000Y-8385000D02*
X14587000Y-8415000D01*
X14646000Y-7040000D02*
X14676000Y-7070000D01*
X14676000Y-7040000D02*
X14646000Y-7070000D01*
X15131000Y-8424000D02*
X15161000Y-8454000D01*
X15161000Y-8424000D02*
X15131000Y-8454000D01*
X15265000Y-7853000D02*
X15295000Y-7883000D01*
X15295000Y-7853000D02*
X15265000Y-7883000D01*
X12829000Y-7520000D02*
G75*
G02*
X12729000Y-7520000I-50000J0D01*
G01*
X12729000Y-7520000D02*
G75*
G02*
X12829000Y-7520000I50000J0D01*
G01*
X12829000Y-7774000D02*
G75*
G02*
X12729000Y-7774000I-50000J0D01*
G01*
X12729000Y-7774000D02*
G75*
G02*
X12829000Y-7774000I50000J0D01*
G01*
X12829000Y-8028000D02*
G75*
G02*
X12729000Y-8028000I-50000J0D01*
G01*
X12729000Y-8028000D02*
G75*
G02*
X12829000Y-8028000I50000J0D01*
G01*
X12829000Y-8282000D02*
G75*
G02*
X12729000Y-8282000I-50000J0D01*
G01*
X12729000Y-8282000D02*
G75*
G02*
X12829000Y-8282000I50000J0D01*
G01*
X12829000Y-8536000D02*
G75*
G02*
X12729000Y-8536000I-50000J0D01*
G01*
X12729000Y-8536000D02*
G75*
G02*
X12829000Y-8536000I50000J0D01*
G01*
X12829000Y-8790000D02*
G75*
G02*
X12729000Y-8790000I-50000J0D01*
G01*
X12729000Y-8790000D02*
G75*
G02*
X12829000Y-8790000I50000J0D01*
G01*
D11*
X12797277Y-9668984D02*
X12797277Y-9468984D01*
X12797277Y-9468984D02*
X12844896Y-9468984D01*
X12844896Y-9468984D02*
X12873467Y-9478508D01*
X12873467Y-9478508D02*
X12892515Y-9497555D01*
X12892515Y-9497555D02*
X12902039Y-9516603D01*
X12902039Y-9516603D02*
X12911562Y-9554698D01*
X12911562Y-9554698D02*
X12911562Y-9583270D01*
X12911562Y-9583270D02*
X12902039Y-9621365D01*
X12902039Y-9621365D02*
X12892515Y-9640412D01*
X12892515Y-9640412D02*
X12873467Y-9659460D01*
X12873467Y-9659460D02*
X12844896Y-9668984D01*
X12844896Y-9668984D02*
X12797277Y-9668984D01*
X12997277Y-9668984D02*
X12997277Y-9535650D01*
X12997277Y-9573746D02*
X13006801Y-9554698D01*
X13006801Y-9554698D02*
X13016324Y-9545174D01*
X13016324Y-9545174D02*
X13035372Y-9535650D01*
X13035372Y-9535650D02*
X13054420Y-9535650D01*
X13121086Y-9668984D02*
X13121086Y-9535650D01*
X13121086Y-9468984D02*
X13111562Y-9478508D01*
X13111562Y-9478508D02*
X13121086Y-9488031D01*
X13121086Y-9488031D02*
X13130610Y-9478508D01*
X13130610Y-9478508D02*
X13121086Y-9468984D01*
X13121086Y-9468984D02*
X13121086Y-9488031D01*
X13244896Y-9668984D02*
X13225848Y-9659460D01*
X13225848Y-9659460D02*
X13216324Y-9640412D01*
X13216324Y-9640412D02*
X13216324Y-9468984D01*
X13349658Y-9668984D02*
X13330610Y-9659460D01*
X13330610Y-9659460D02*
X13321086Y-9640412D01*
X13321086Y-9640412D02*
X13321086Y-9468984D01*
X13578229Y-9668984D02*
X13578229Y-9468984D01*
X13578229Y-9468984D02*
X13644896Y-9611841D01*
X13644896Y-9611841D02*
X13711562Y-9468984D01*
X13711562Y-9468984D02*
X13711562Y-9668984D01*
X13892515Y-9668984D02*
X13892515Y-9564222D01*
X13892515Y-9564222D02*
X13882991Y-9545174D01*
X13882991Y-9545174D02*
X13863943Y-9535650D01*
X13863943Y-9535650D02*
X13825848Y-9535650D01*
X13825848Y-9535650D02*
X13806801Y-9545174D01*
X13892515Y-9659460D02*
X13873467Y-9668984D01*
X13873467Y-9668984D02*
X13825848Y-9668984D01*
X13825848Y-9668984D02*
X13806801Y-9659460D01*
X13806801Y-9659460D02*
X13797277Y-9640412D01*
X13797277Y-9640412D02*
X13797277Y-9621365D01*
X13797277Y-9621365D02*
X13806801Y-9602317D01*
X13806801Y-9602317D02*
X13825848Y-9592793D01*
X13825848Y-9592793D02*
X13873467Y-9592793D01*
X13873467Y-9592793D02*
X13892515Y-9583270D01*
X13987753Y-9535650D02*
X13987753Y-9735650D01*
X13987753Y-9545174D02*
X14006801Y-9535650D01*
X14006801Y-9535650D02*
X14044896Y-9535650D01*
X14044896Y-9535650D02*
X14063943Y-9545174D01*
X14063943Y-9545174D02*
X14073467Y-9554698D01*
X14073467Y-9554698D02*
X14082991Y-9573746D01*
X14082991Y-9573746D02*
X14082991Y-9630889D01*
X14082991Y-9630889D02*
X14073467Y-9649936D01*
X14073467Y-9649936D02*
X14063943Y-9659460D01*
X14063943Y-9659460D02*
X14044896Y-9668984D01*
X14044896Y-9668984D02*
X14006801Y-9668984D01*
X14006801Y-9668984D02*
X13987753Y-9659460D01*
X14168705Y-9649936D02*
X14178229Y-9659460D01*
X14178229Y-9659460D02*
X14168705Y-9668984D01*
X14168705Y-9668984D02*
X14159182Y-9659460D01*
X14159182Y-9659460D02*
X14168705Y-9649936D01*
X14168705Y-9649936D02*
X14168705Y-9668984D01*
X14168705Y-9545174D02*
X14178229Y-9554698D01*
X14178229Y-9554698D02*
X14168705Y-9564222D01*
X14168705Y-9564222D02*
X14159182Y-9554698D01*
X14159182Y-9554698D02*
X14168705Y-9545174D01*
X14168705Y-9545174D02*
X14168705Y-9564222D01*
D12*
X12506500Y-9982500D02*
X12536500Y-10012500D01*
X12536500Y-9982500D02*
X12506500Y-10012500D01*
D11*
X12835372Y-9888984D02*
X12854420Y-9888984D01*
X12854420Y-9888984D02*
X12873467Y-9898508D01*
X12873467Y-9898508D02*
X12882991Y-9908031D01*
X12882991Y-9908031D02*
X12892515Y-9927079D01*
X12892515Y-9927079D02*
X12902039Y-9965174D01*
X12902039Y-9965174D02*
X12902039Y-10012793D01*
X12902039Y-10012793D02*
X12892515Y-10050889D01*
X12892515Y-10050889D02*
X12882991Y-10069936D01*
X12882991Y-10069936D02*
X12873467Y-10079460D01*
X12873467Y-10079460D02*
X12854420Y-10088984D01*
X12854420Y-10088984D02*
X12835372Y-10088984D01*
X12835372Y-10088984D02*
X12816324Y-10079460D01*
X12816324Y-10079460D02*
X12806801Y-10069936D01*
X12806801Y-10069936D02*
X12797277Y-10050889D01*
X12797277Y-10050889D02*
X12787753Y-10012793D01*
X12787753Y-10012793D02*
X12787753Y-9965174D01*
X12787753Y-9965174D02*
X12797277Y-9927079D01*
X12797277Y-9927079D02*
X12806801Y-9908031D01*
X12806801Y-9908031D02*
X12816324Y-9898508D01*
X12816324Y-9898508D02*
X12835372Y-9888984D01*
X12987753Y-10069936D02*
X12997277Y-10079460D01*
X12997277Y-10079460D02*
X12987753Y-10088984D01*
X12987753Y-10088984D02*
X12978229Y-10079460D01*
X12978229Y-10079460D02*
X12987753Y-10069936D01*
X12987753Y-10069936D02*
X12987753Y-10088984D01*
X13063943Y-9888984D02*
X13187753Y-9888984D01*
X13187753Y-9888984D02*
X13121086Y-9965174D01*
X13121086Y-9965174D02*
X13149658Y-9965174D01*
X13149658Y-9965174D02*
X13168705Y-9974698D01*
X13168705Y-9974698D02*
X13178229Y-9984222D01*
X13178229Y-9984222D02*
X13187753Y-10003270D01*
X13187753Y-10003270D02*
X13187753Y-10050889D01*
X13187753Y-10050889D02*
X13178229Y-10069936D01*
X13178229Y-10069936D02*
X13168705Y-10079460D01*
X13168705Y-10079460D02*
X13149658Y-10088984D01*
X13149658Y-10088984D02*
X13092515Y-10088984D01*
X13092515Y-10088984D02*
X13073467Y-10079460D01*
X13073467Y-10079460D02*
X13063943Y-10069936D01*
X13311562Y-9888984D02*
X13330610Y-9888984D01*
X13330610Y-9888984D02*
X13349658Y-9898508D01*
X13349658Y-9898508D02*
X13359182Y-9908031D01*
X13359182Y-9908031D02*
X13368705Y-9927079D01*
X13368705Y-9927079D02*
X13378229Y-9965174D01*
X13378229Y-9965174D02*
X13378229Y-10012793D01*
X13378229Y-10012793D02*
X13368705Y-10050889D01*
X13368705Y-10050889D02*
X13359182Y-10069936D01*
X13359182Y-10069936D02*
X13349658Y-10079460D01*
X13349658Y-10079460D02*
X13330610Y-10088984D01*
X13330610Y-10088984D02*
X13311562Y-10088984D01*
X13311562Y-10088984D02*
X13292515Y-10079460D01*
X13292515Y-10079460D02*
X13282991Y-10069936D01*
X13282991Y-10069936D02*
X13273467Y-10050889D01*
X13273467Y-10050889D02*
X13263943Y-10012793D01*
X13263943Y-10012793D02*
X13263943Y-9965174D01*
X13263943Y-9965174D02*
X13273467Y-9927079D01*
X13273467Y-9927079D02*
X13282991Y-9908031D01*
X13282991Y-9908031D02*
X13292515Y-9898508D01*
X13292515Y-9898508D02*
X13311562Y-9888984D01*
X13502039Y-9888984D02*
X13521086Y-9888984D01*
X13521086Y-9888984D02*
X13540134Y-9898508D01*
X13540134Y-9898508D02*
X13549658Y-9908031D01*
X13549658Y-9908031D02*
X13559182Y-9927079D01*
X13559182Y-9927079D02*
X13568705Y-9965174D01*
X13568705Y-9965174D02*
X13568705Y-10012793D01*
X13568705Y-10012793D02*
X13559182Y-10050889D01*
X13559182Y-10050889D02*
X13549658Y-10069936D01*
X13549658Y-10069936D02*
X13540134Y-10079460D01*
X13540134Y-10079460D02*
X13521086Y-10088984D01*
X13521086Y-10088984D02*
X13502039Y-10088984D01*
X13502039Y-10088984D02*
X13482991Y-10079460D01*
X13482991Y-10079460D02*
X13473467Y-10069936D01*
X13473467Y-10069936D02*
X13463943Y-10050889D01*
X13463943Y-10050889D02*
X13454420Y-10012793D01*
X13454420Y-10012793D02*
X13454420Y-9965174D01*
X13454420Y-9965174D02*
X13463943Y-9927079D01*
X13463943Y-9927079D02*
X13473467Y-9908031D01*
X13473467Y-9908031D02*
X13482991Y-9898508D01*
X13482991Y-9898508D02*
X13502039Y-9888984D01*
X13654420Y-10088984D02*
X13654420Y-9955650D01*
X13654420Y-9974698D02*
X13663943Y-9965174D01*
X13663943Y-9965174D02*
X13682991Y-9955650D01*
X13682991Y-9955650D02*
X13711563Y-9955650D01*
X13711563Y-9955650D02*
X13730610Y-9965174D01*
X13730610Y-9965174D02*
X13740134Y-9984222D01*
X13740134Y-9984222D02*
X13740134Y-10088984D01*
X13740134Y-9984222D02*
X13749658Y-9965174D01*
X13749658Y-9965174D02*
X13768705Y-9955650D01*
X13768705Y-9955650D02*
X13797277Y-9955650D01*
X13797277Y-9955650D02*
X13816324Y-9965174D01*
X13816324Y-9965174D02*
X13825848Y-9984222D01*
X13825848Y-9984222D02*
X13825848Y-10088984D01*
X13921086Y-10088984D02*
X13921086Y-9955650D01*
X13921086Y-9974698D02*
X13930610Y-9965174D01*
X13930610Y-9965174D02*
X13949658Y-9955650D01*
X13949658Y-9955650D02*
X13978229Y-9955650D01*
X13978229Y-9955650D02*
X13997277Y-9965174D01*
X13997277Y-9965174D02*
X14006801Y-9984222D01*
X14006801Y-9984222D02*
X14006801Y-10088984D01*
X14006801Y-9984222D02*
X14016324Y-9965174D01*
X14016324Y-9965174D02*
X14035372Y-9955650D01*
X14035372Y-9955650D02*
X14063943Y-9955650D01*
X14063943Y-9955650D02*
X14082991Y-9965174D01*
X14082991Y-9965174D02*
X14092515Y-9984222D01*
X14092515Y-9984222D02*
X14092515Y-10088984D01*
X14482991Y-9879460D02*
X14311563Y-10136603D01*
X14740134Y-9888984D02*
X14759182Y-9888984D01*
X14759182Y-9888984D02*
X14778229Y-9898508D01*
X14778229Y-9898508D02*
X14787753Y-9908031D01*
X14787753Y-9908031D02*
X14797277Y-9927079D01*
X14797277Y-9927079D02*
X14806801Y-9965174D01*
X14806801Y-9965174D02*
X14806801Y-10012793D01*
X14806801Y-10012793D02*
X14797277Y-10050889D01*
X14797277Y-10050889D02*
X14787753Y-10069936D01*
X14787753Y-10069936D02*
X14778229Y-10079460D01*
X14778229Y-10079460D02*
X14759182Y-10088984D01*
X14759182Y-10088984D02*
X14740134Y-10088984D01*
X14740134Y-10088984D02*
X14721086Y-10079460D01*
X14721086Y-10079460D02*
X14711563Y-10069936D01*
X14711563Y-10069936D02*
X14702039Y-10050889D01*
X14702039Y-10050889D02*
X14692515Y-10012793D01*
X14692515Y-10012793D02*
X14692515Y-9965174D01*
X14692515Y-9965174D02*
X14702039Y-9927079D01*
X14702039Y-9927079D02*
X14711563Y-9908031D01*
X14711563Y-9908031D02*
X14721086Y-9898508D01*
X14721086Y-9898508D02*
X14740134Y-9888984D01*
X14892515Y-10069936D02*
X14902039Y-10079460D01*
X14902039Y-10079460D02*
X14892515Y-10088984D01*
X14892515Y-10088984D02*
X14882991Y-10079460D01*
X14882991Y-10079460D02*
X14892515Y-10069936D01*
X14892515Y-10069936D02*
X14892515Y-10088984D01*
X15025848Y-9888984D02*
X15044896Y-9888984D01*
X15044896Y-9888984D02*
X15063944Y-9898508D01*
X15063944Y-9898508D02*
X15073467Y-9908031D01*
X15073467Y-9908031D02*
X15082991Y-9927079D01*
X15082991Y-9927079D02*
X15092515Y-9965174D01*
X15092515Y-9965174D02*
X15092515Y-10012793D01*
X15092515Y-10012793D02*
X15082991Y-10050889D01*
X15082991Y-10050889D02*
X15073467Y-10069936D01*
X15073467Y-10069936D02*
X15063944Y-10079460D01*
X15063944Y-10079460D02*
X15044896Y-10088984D01*
X15044896Y-10088984D02*
X15025848Y-10088984D01*
X15025848Y-10088984D02*
X15006801Y-10079460D01*
X15006801Y-10079460D02*
X14997277Y-10069936D01*
X14997277Y-10069936D02*
X14987753Y-10050889D01*
X14987753Y-10050889D02*
X14978229Y-10012793D01*
X14978229Y-10012793D02*
X14978229Y-9965174D01*
X14978229Y-9965174D02*
X14987753Y-9927079D01*
X14987753Y-9927079D02*
X14997277Y-9908031D01*
X14997277Y-9908031D02*
X15006801Y-9898508D01*
X15006801Y-9898508D02*
X15025848Y-9888984D01*
X15282991Y-10088984D02*
X15168706Y-10088984D01*
X15225848Y-10088984D02*
X15225848Y-9888984D01*
X15225848Y-9888984D02*
X15206801Y-9917555D01*
X15206801Y-9917555D02*
X15187753Y-9936603D01*
X15187753Y-9936603D02*
X15168706Y-9946127D01*
X15473467Y-10088984D02*
X15359182Y-10088984D01*
X15416325Y-10088984D02*
X15416325Y-9888984D01*
X15416325Y-9888984D02*
X15397277Y-9917555D01*
X15397277Y-9917555D02*
X15378229Y-9936603D01*
X15378229Y-9936603D02*
X15359182Y-9946127D01*
X15587753Y-9974698D02*
X15568706Y-9965174D01*
X15568706Y-9965174D02*
X15559182Y-9955650D01*
X15559182Y-9955650D02*
X15549658Y-9936603D01*
X15549658Y-9936603D02*
X15549658Y-9927079D01*
X15549658Y-9927079D02*
X15559182Y-9908031D01*
X15559182Y-9908031D02*
X15568706Y-9898508D01*
X15568706Y-9898508D02*
X15587753Y-9888984D01*
X15587753Y-9888984D02*
X15625848Y-9888984D01*
X15625848Y-9888984D02*
X15644896Y-9898508D01*
X15644896Y-9898508D02*
X15654420Y-9908031D01*
X15654420Y-9908031D02*
X15663944Y-9927079D01*
X15663944Y-9927079D02*
X15663944Y-9936603D01*
X15663944Y-9936603D02*
X15654420Y-9955650D01*
X15654420Y-9955650D02*
X15644896Y-9965174D01*
X15644896Y-9965174D02*
X15625848Y-9974698D01*
X15625848Y-9974698D02*
X15587753Y-9974698D01*
X15587753Y-9974698D02*
X15568706Y-9984222D01*
X15568706Y-9984222D02*
X15559182Y-9993746D01*
X15559182Y-9993746D02*
X15549658Y-10012793D01*
X15549658Y-10012793D02*
X15549658Y-10050889D01*
X15549658Y-10050889D02*
X15559182Y-10069936D01*
X15559182Y-10069936D02*
X15568706Y-10079460D01*
X15568706Y-10079460D02*
X15587753Y-10088984D01*
X15587753Y-10088984D02*
X15625848Y-10088984D01*
X15625848Y-10088984D02*
X15644896Y-10079460D01*
X15644896Y-10079460D02*
X15654420Y-10069936D01*
X15654420Y-10069936D02*
X15663944Y-10050889D01*
X15663944Y-10050889D02*
X15663944Y-10012793D01*
X15663944Y-10012793D02*
X15654420Y-9993746D01*
X15654420Y-9993746D02*
X15644896Y-9984222D01*
X15644896Y-9984222D02*
X15625848Y-9974698D01*
X15740134Y-9888984D02*
X15740134Y-9927079D01*
X15816325Y-9888984D02*
X15816325Y-9927079D01*
X16111563Y-10165174D02*
X16102039Y-10155650D01*
X16102039Y-10155650D02*
X16082991Y-10127079D01*
X16082991Y-10127079D02*
X16073468Y-10108031D01*
X16073468Y-10108031D02*
X16063944Y-10079460D01*
X16063944Y-10079460D02*
X16054420Y-10031841D01*
X16054420Y-10031841D02*
X16054420Y-9993746D01*
X16054420Y-9993746D02*
X16063944Y-9946127D01*
X16063944Y-9946127D02*
X16073468Y-9917555D01*
X16073468Y-9917555D02*
X16082991Y-9898508D01*
X16082991Y-9898508D02*
X16102039Y-9869936D01*
X16102039Y-9869936D02*
X16111563Y-9860412D01*
X16292515Y-10088984D02*
X16178229Y-10088984D01*
X16235372Y-10088984D02*
X16235372Y-9888984D01*
X16235372Y-9888984D02*
X16216325Y-9917555D01*
X16216325Y-9917555D02*
X16197277Y-9936603D01*
X16197277Y-9936603D02*
X16178229Y-9946127D01*
X16416325Y-9888984D02*
X16435372Y-9888984D01*
X16435372Y-9888984D02*
X16454420Y-9898508D01*
X16454420Y-9898508D02*
X16463944Y-9908031D01*
X16463944Y-9908031D02*
X16473468Y-9927079D01*
X16473468Y-9927079D02*
X16482991Y-9965174D01*
X16482991Y-9965174D02*
X16482991Y-10012793D01*
X16482991Y-10012793D02*
X16473468Y-10050889D01*
X16473468Y-10050889D02*
X16463944Y-10069936D01*
X16463944Y-10069936D02*
X16454420Y-10079460D01*
X16454420Y-10079460D02*
X16435372Y-10088984D01*
X16435372Y-10088984D02*
X16416325Y-10088984D01*
X16416325Y-10088984D02*
X16397277Y-10079460D01*
X16397277Y-10079460D02*
X16387753Y-10069936D01*
X16387753Y-10069936D02*
X16378229Y-10050889D01*
X16378229Y-10050889D02*
X16368706Y-10012793D01*
X16368706Y-10012793D02*
X16368706Y-9965174D01*
X16368706Y-9965174D02*
X16378229Y-9927079D01*
X16378229Y-9927079D02*
X16387753Y-9908031D01*
X16387753Y-9908031D02*
X16397277Y-9898508D01*
X16397277Y-9898508D02*
X16416325Y-9888984D01*
X16721087Y-10088984D02*
X16721087Y-9888984D01*
X16806801Y-10088984D02*
X16806801Y-9984222D01*
X16806801Y-9984222D02*
X16797277Y-9965174D01*
X16797277Y-9965174D02*
X16778230Y-9955650D01*
X16778230Y-9955650D02*
X16749658Y-9955650D01*
X16749658Y-9955650D02*
X16730610Y-9965174D01*
X16730610Y-9965174D02*
X16721087Y-9974698D01*
X16930611Y-10088984D02*
X16911563Y-10079460D01*
X16911563Y-10079460D02*
X16902039Y-10069936D01*
X16902039Y-10069936D02*
X16892515Y-10050889D01*
X16892515Y-10050889D02*
X16892515Y-9993746D01*
X16892515Y-9993746D02*
X16902039Y-9974698D01*
X16902039Y-9974698D02*
X16911563Y-9965174D01*
X16911563Y-9965174D02*
X16930611Y-9955650D01*
X16930611Y-9955650D02*
X16959182Y-9955650D01*
X16959182Y-9955650D02*
X16978230Y-9965174D01*
X16978230Y-9965174D02*
X16987753Y-9974698D01*
X16987753Y-9974698D02*
X16997277Y-9993746D01*
X16997277Y-9993746D02*
X16997277Y-10050889D01*
X16997277Y-10050889D02*
X16987753Y-10069936D01*
X16987753Y-10069936D02*
X16978230Y-10079460D01*
X16978230Y-10079460D02*
X16959182Y-10088984D01*
X16959182Y-10088984D02*
X16930611Y-10088984D01*
X17111563Y-10088984D02*
X17092515Y-10079460D01*
X17092515Y-10079460D02*
X17082992Y-10060412D01*
X17082992Y-10060412D02*
X17082992Y-9888984D01*
X17263944Y-10079460D02*
X17244896Y-10088984D01*
X17244896Y-10088984D02*
X17206801Y-10088984D01*
X17206801Y-10088984D02*
X17187753Y-10079460D01*
X17187753Y-10079460D02*
X17178230Y-10060412D01*
X17178230Y-10060412D02*
X17178230Y-9984222D01*
X17178230Y-9984222D02*
X17187753Y-9965174D01*
X17187753Y-9965174D02*
X17206801Y-9955650D01*
X17206801Y-9955650D02*
X17244896Y-9955650D01*
X17244896Y-9955650D02*
X17263944Y-9965174D01*
X17263944Y-9965174D02*
X17273468Y-9984222D01*
X17273468Y-9984222D02*
X17273468Y-10003270D01*
X17273468Y-10003270D02*
X17178230Y-10022317D01*
X17349658Y-10079460D02*
X17368706Y-10088984D01*
X17368706Y-10088984D02*
X17406801Y-10088984D01*
X17406801Y-10088984D02*
X17425849Y-10079460D01*
X17425849Y-10079460D02*
X17435373Y-10060412D01*
X17435373Y-10060412D02*
X17435373Y-10050889D01*
X17435373Y-10050889D02*
X17425849Y-10031841D01*
X17425849Y-10031841D02*
X17406801Y-10022317D01*
X17406801Y-10022317D02*
X17378230Y-10022317D01*
X17378230Y-10022317D02*
X17359182Y-10012793D01*
X17359182Y-10012793D02*
X17349658Y-9993746D01*
X17349658Y-9993746D02*
X17349658Y-9984222D01*
X17349658Y-9984222D02*
X17359182Y-9965174D01*
X17359182Y-9965174D02*
X17378230Y-9955650D01*
X17378230Y-9955650D02*
X17406801Y-9955650D01*
X17406801Y-9955650D02*
X17425849Y-9965174D01*
X17502039Y-10165174D02*
X17511563Y-10155650D01*
X17511563Y-10155650D02*
X17530611Y-10127079D01*
X17530611Y-10127079D02*
X17540134Y-10108031D01*
X17540134Y-10108031D02*
X17549658Y-10079460D01*
X17549658Y-10079460D02*
X17559182Y-10031841D01*
X17559182Y-10031841D02*
X17559182Y-9993746D01*
X17559182Y-9993746D02*
X17549658Y-9946127D01*
X17549658Y-9946127D02*
X17540134Y-9917555D01*
X17540134Y-9917555D02*
X17530611Y-9898508D01*
X17530611Y-9898508D02*
X17511563Y-9869936D01*
X17511563Y-9869936D02*
X17502039Y-9860412D01*
D12*
X12536500Y-10261500D02*
G75*
G02*
X12436500Y-10261500I-50000J0D01*
G01*
X12436500Y-10261500D02*
G75*
G02*
X12536500Y-10261500I50000J0D01*
G01*
D11*
X12902039Y-10352984D02*
X12787753Y-10352984D01*
X12844896Y-10352984D02*
X12844896Y-10152984D01*
X12844896Y-10152984D02*
X12825848Y-10181555D01*
X12825848Y-10181555D02*
X12806801Y-10200603D01*
X12806801Y-10200603D02*
X12787753Y-10210127D01*
X12987753Y-10333936D02*
X12997277Y-10343460D01*
X12997277Y-10343460D02*
X12987753Y-10352984D01*
X12987753Y-10352984D02*
X12978229Y-10343460D01*
X12978229Y-10343460D02*
X12987753Y-10333936D01*
X12987753Y-10333936D02*
X12987753Y-10352984D01*
X13121086Y-10152984D02*
X13140134Y-10152984D01*
X13140134Y-10152984D02*
X13159182Y-10162508D01*
X13159182Y-10162508D02*
X13168705Y-10172031D01*
X13168705Y-10172031D02*
X13178229Y-10191079D01*
X13178229Y-10191079D02*
X13187753Y-10229174D01*
X13187753Y-10229174D02*
X13187753Y-10276793D01*
X13187753Y-10276793D02*
X13178229Y-10314889D01*
X13178229Y-10314889D02*
X13168705Y-10333936D01*
X13168705Y-10333936D02*
X13159182Y-10343460D01*
X13159182Y-10343460D02*
X13140134Y-10352984D01*
X13140134Y-10352984D02*
X13121086Y-10352984D01*
X13121086Y-10352984D02*
X13102039Y-10343460D01*
X13102039Y-10343460D02*
X13092515Y-10333936D01*
X13092515Y-10333936D02*
X13082991Y-10314889D01*
X13082991Y-10314889D02*
X13073467Y-10276793D01*
X13073467Y-10276793D02*
X13073467Y-10229174D01*
X13073467Y-10229174D02*
X13082991Y-10191079D01*
X13082991Y-10191079D02*
X13092515Y-10172031D01*
X13092515Y-10172031D02*
X13102039Y-10162508D01*
X13102039Y-10162508D02*
X13121086Y-10152984D01*
X13311562Y-10152984D02*
X13330610Y-10152984D01*
X13330610Y-10152984D02*
X13349658Y-10162508D01*
X13349658Y-10162508D02*
X13359182Y-10172031D01*
X13359182Y-10172031D02*
X13368705Y-10191079D01*
X13368705Y-10191079D02*
X13378229Y-10229174D01*
X13378229Y-10229174D02*
X13378229Y-10276793D01*
X13378229Y-10276793D02*
X13368705Y-10314889D01*
X13368705Y-10314889D02*
X13359182Y-10333936D01*
X13359182Y-10333936D02*
X13349658Y-10343460D01*
X13349658Y-10343460D02*
X13330610Y-10352984D01*
X13330610Y-10352984D02*
X13311562Y-10352984D01*
X13311562Y-10352984D02*
X13292515Y-10343460D01*
X13292515Y-10343460D02*
X13282991Y-10333936D01*
X13282991Y-10333936D02*
X13273467Y-10314889D01*
X13273467Y-10314889D02*
X13263943Y-10276793D01*
X13263943Y-10276793D02*
X13263943Y-10229174D01*
X13263943Y-10229174D02*
X13273467Y-10191079D01*
X13273467Y-10191079D02*
X13282991Y-10172031D01*
X13282991Y-10172031D02*
X13292515Y-10162508D01*
X13292515Y-10162508D02*
X13311562Y-10152984D01*
X13502039Y-10152984D02*
X13521086Y-10152984D01*
X13521086Y-10152984D02*
X13540134Y-10162508D01*
X13540134Y-10162508D02*
X13549658Y-10172031D01*
X13549658Y-10172031D02*
X13559182Y-10191079D01*
X13559182Y-10191079D02*
X13568705Y-10229174D01*
X13568705Y-10229174D02*
X13568705Y-10276793D01*
X13568705Y-10276793D02*
X13559182Y-10314889D01*
X13559182Y-10314889D02*
X13549658Y-10333936D01*
X13549658Y-10333936D02*
X13540134Y-10343460D01*
X13540134Y-10343460D02*
X13521086Y-10352984D01*
X13521086Y-10352984D02*
X13502039Y-10352984D01*
X13502039Y-10352984D02*
X13482991Y-10343460D01*
X13482991Y-10343460D02*
X13473467Y-10333936D01*
X13473467Y-10333936D02*
X13463943Y-10314889D01*
X13463943Y-10314889D02*
X13454420Y-10276793D01*
X13454420Y-10276793D02*
X13454420Y-10229174D01*
X13454420Y-10229174D02*
X13463943Y-10191079D01*
X13463943Y-10191079D02*
X13473467Y-10172031D01*
X13473467Y-10172031D02*
X13482991Y-10162508D01*
X13482991Y-10162508D02*
X13502039Y-10152984D01*
X13654420Y-10352984D02*
X13654420Y-10219650D01*
X13654420Y-10238698D02*
X13663943Y-10229174D01*
X13663943Y-10229174D02*
X13682991Y-10219650D01*
X13682991Y-10219650D02*
X13711563Y-10219650D01*
X13711563Y-10219650D02*
X13730610Y-10229174D01*
X13730610Y-10229174D02*
X13740134Y-10248222D01*
X13740134Y-10248222D02*
X13740134Y-10352984D01*
X13740134Y-10248222D02*
X13749658Y-10229174D01*
X13749658Y-10229174D02*
X13768705Y-10219650D01*
X13768705Y-10219650D02*
X13797277Y-10219650D01*
X13797277Y-10219650D02*
X13816324Y-10229174D01*
X13816324Y-10229174D02*
X13825848Y-10248222D01*
X13825848Y-10248222D02*
X13825848Y-10352984D01*
X13921086Y-10352984D02*
X13921086Y-10219650D01*
X13921086Y-10238698D02*
X13930610Y-10229174D01*
X13930610Y-10229174D02*
X13949658Y-10219650D01*
X13949658Y-10219650D02*
X13978229Y-10219650D01*
X13978229Y-10219650D02*
X13997277Y-10229174D01*
X13997277Y-10229174D02*
X14006801Y-10248222D01*
X14006801Y-10248222D02*
X14006801Y-10352984D01*
X14006801Y-10248222D02*
X14016324Y-10229174D01*
X14016324Y-10229174D02*
X14035372Y-10219650D01*
X14035372Y-10219650D02*
X14063943Y-10219650D01*
X14063943Y-10219650D02*
X14082991Y-10229174D01*
X14082991Y-10229174D02*
X14092515Y-10248222D01*
X14092515Y-10248222D02*
X14092515Y-10352984D01*
X14482991Y-10143460D02*
X14311563Y-10400603D01*
X14740134Y-10152984D02*
X14759182Y-10152984D01*
X14759182Y-10152984D02*
X14778229Y-10162508D01*
X14778229Y-10162508D02*
X14787753Y-10172031D01*
X14787753Y-10172031D02*
X14797277Y-10191079D01*
X14797277Y-10191079D02*
X14806801Y-10229174D01*
X14806801Y-10229174D02*
X14806801Y-10276793D01*
X14806801Y-10276793D02*
X14797277Y-10314889D01*
X14797277Y-10314889D02*
X14787753Y-10333936D01*
X14787753Y-10333936D02*
X14778229Y-10343460D01*
X14778229Y-10343460D02*
X14759182Y-10352984D01*
X14759182Y-10352984D02*
X14740134Y-10352984D01*
X14740134Y-10352984D02*
X14721086Y-10343460D01*
X14721086Y-10343460D02*
X14711563Y-10333936D01*
X14711563Y-10333936D02*
X14702039Y-10314889D01*
X14702039Y-10314889D02*
X14692515Y-10276793D01*
X14692515Y-10276793D02*
X14692515Y-10229174D01*
X14692515Y-10229174D02*
X14702039Y-10191079D01*
X14702039Y-10191079D02*
X14711563Y-10172031D01*
X14711563Y-10172031D02*
X14721086Y-10162508D01*
X14721086Y-10162508D02*
X14740134Y-10152984D01*
X14892515Y-10333936D02*
X14902039Y-10343460D01*
X14902039Y-10343460D02*
X14892515Y-10352984D01*
X14892515Y-10352984D02*
X14882991Y-10343460D01*
X14882991Y-10343460D02*
X14892515Y-10333936D01*
X14892515Y-10333936D02*
X14892515Y-10352984D01*
X15025848Y-10152984D02*
X15044896Y-10152984D01*
X15044896Y-10152984D02*
X15063944Y-10162508D01*
X15063944Y-10162508D02*
X15073467Y-10172031D01*
X15073467Y-10172031D02*
X15082991Y-10191079D01*
X15082991Y-10191079D02*
X15092515Y-10229174D01*
X15092515Y-10229174D02*
X15092515Y-10276793D01*
X15092515Y-10276793D02*
X15082991Y-10314889D01*
X15082991Y-10314889D02*
X15073467Y-10333936D01*
X15073467Y-10333936D02*
X15063944Y-10343460D01*
X15063944Y-10343460D02*
X15044896Y-10352984D01*
X15044896Y-10352984D02*
X15025848Y-10352984D01*
X15025848Y-10352984D02*
X15006801Y-10343460D01*
X15006801Y-10343460D02*
X14997277Y-10333936D01*
X14997277Y-10333936D02*
X14987753Y-10314889D01*
X14987753Y-10314889D02*
X14978229Y-10276793D01*
X14978229Y-10276793D02*
X14978229Y-10229174D01*
X14978229Y-10229174D02*
X14987753Y-10191079D01*
X14987753Y-10191079D02*
X14997277Y-10172031D01*
X14997277Y-10172031D02*
X15006801Y-10162508D01*
X15006801Y-10162508D02*
X15025848Y-10152984D01*
X15159182Y-10152984D02*
X15282991Y-10152984D01*
X15282991Y-10152984D02*
X15216325Y-10229174D01*
X15216325Y-10229174D02*
X15244896Y-10229174D01*
X15244896Y-10229174D02*
X15263944Y-10238698D01*
X15263944Y-10238698D02*
X15273467Y-10248222D01*
X15273467Y-10248222D02*
X15282991Y-10267270D01*
X15282991Y-10267270D02*
X15282991Y-10314889D01*
X15282991Y-10314889D02*
X15273467Y-10333936D01*
X15273467Y-10333936D02*
X15263944Y-10343460D01*
X15263944Y-10343460D02*
X15244896Y-10352984D01*
X15244896Y-10352984D02*
X15187753Y-10352984D01*
X15187753Y-10352984D02*
X15168706Y-10343460D01*
X15168706Y-10343460D02*
X15159182Y-10333936D01*
X15378229Y-10352984D02*
X15416325Y-10352984D01*
X15416325Y-10352984D02*
X15435372Y-10343460D01*
X15435372Y-10343460D02*
X15444896Y-10333936D01*
X15444896Y-10333936D02*
X15463944Y-10305365D01*
X15463944Y-10305365D02*
X15473467Y-10267270D01*
X15473467Y-10267270D02*
X15473467Y-10191079D01*
X15473467Y-10191079D02*
X15463944Y-10172031D01*
X15463944Y-10172031D02*
X15454420Y-10162508D01*
X15454420Y-10162508D02*
X15435372Y-10152984D01*
X15435372Y-10152984D02*
X15397277Y-10152984D01*
X15397277Y-10152984D02*
X15378229Y-10162508D01*
X15378229Y-10162508D02*
X15368706Y-10172031D01*
X15368706Y-10172031D02*
X15359182Y-10191079D01*
X15359182Y-10191079D02*
X15359182Y-10238698D01*
X15359182Y-10238698D02*
X15368706Y-10257746D01*
X15368706Y-10257746D02*
X15378229Y-10267270D01*
X15378229Y-10267270D02*
X15397277Y-10276793D01*
X15397277Y-10276793D02*
X15435372Y-10276793D01*
X15435372Y-10276793D02*
X15454420Y-10267270D01*
X15454420Y-10267270D02*
X15463944Y-10257746D01*
X15463944Y-10257746D02*
X15473467Y-10238698D01*
X15644896Y-10219650D02*
X15644896Y-10352984D01*
X15597277Y-10143460D02*
X15549658Y-10286317D01*
X15549658Y-10286317D02*
X15673467Y-10286317D01*
X15740134Y-10152984D02*
X15740134Y-10191079D01*
X15816325Y-10152984D02*
X15816325Y-10191079D01*
X16111563Y-10429174D02*
X16102039Y-10419650D01*
X16102039Y-10419650D02*
X16082991Y-10391079D01*
X16082991Y-10391079D02*
X16073468Y-10372031D01*
X16073468Y-10372031D02*
X16063944Y-10343460D01*
X16063944Y-10343460D02*
X16054420Y-10295841D01*
X16054420Y-10295841D02*
X16054420Y-10257746D01*
X16054420Y-10257746D02*
X16063944Y-10210127D01*
X16063944Y-10210127D02*
X16073468Y-10181555D01*
X16073468Y-10181555D02*
X16082991Y-10162508D01*
X16082991Y-10162508D02*
X16102039Y-10133936D01*
X16102039Y-10133936D02*
X16111563Y-10124412D01*
X16273468Y-10152984D02*
X16235372Y-10152984D01*
X16235372Y-10152984D02*
X16216325Y-10162508D01*
X16216325Y-10162508D02*
X16206801Y-10172031D01*
X16206801Y-10172031D02*
X16187753Y-10200603D01*
X16187753Y-10200603D02*
X16178229Y-10238698D01*
X16178229Y-10238698D02*
X16178229Y-10314889D01*
X16178229Y-10314889D02*
X16187753Y-10333936D01*
X16187753Y-10333936D02*
X16197277Y-10343460D01*
X16197277Y-10343460D02*
X16216325Y-10352984D01*
X16216325Y-10352984D02*
X16254420Y-10352984D01*
X16254420Y-10352984D02*
X16273468Y-10343460D01*
X16273468Y-10343460D02*
X16282991Y-10333936D01*
X16282991Y-10333936D02*
X16292515Y-10314889D01*
X16292515Y-10314889D02*
X16292515Y-10267270D01*
X16292515Y-10267270D02*
X16282991Y-10248222D01*
X16282991Y-10248222D02*
X16273468Y-10238698D01*
X16273468Y-10238698D02*
X16254420Y-10229174D01*
X16254420Y-10229174D02*
X16216325Y-10229174D01*
X16216325Y-10229174D02*
X16197277Y-10238698D01*
X16197277Y-10238698D02*
X16187753Y-10248222D01*
X16187753Y-10248222D02*
X16178229Y-10267270D01*
X16530610Y-10352984D02*
X16530610Y-10152984D01*
X16616325Y-10352984D02*
X16616325Y-10248222D01*
X16616325Y-10248222D02*
X16606801Y-10229174D01*
X16606801Y-10229174D02*
X16587753Y-10219650D01*
X16587753Y-10219650D02*
X16559182Y-10219650D01*
X16559182Y-10219650D02*
X16540134Y-10229174D01*
X16540134Y-10229174D02*
X16530610Y-10238698D01*
X16740134Y-10352984D02*
X16721087Y-10343460D01*
X16721087Y-10343460D02*
X16711563Y-10333936D01*
X16711563Y-10333936D02*
X16702039Y-10314889D01*
X16702039Y-10314889D02*
X16702039Y-10257746D01*
X16702039Y-10257746D02*
X16711563Y-10238698D01*
X16711563Y-10238698D02*
X16721087Y-10229174D01*
X16721087Y-10229174D02*
X16740134Y-10219650D01*
X16740134Y-10219650D02*
X16768706Y-10219650D01*
X16768706Y-10219650D02*
X16787753Y-10229174D01*
X16787753Y-10229174D02*
X16797277Y-10238698D01*
X16797277Y-10238698D02*
X16806801Y-10257746D01*
X16806801Y-10257746D02*
X16806801Y-10314889D01*
X16806801Y-10314889D02*
X16797277Y-10333936D01*
X16797277Y-10333936D02*
X16787753Y-10343460D01*
X16787753Y-10343460D02*
X16768706Y-10352984D01*
X16768706Y-10352984D02*
X16740134Y-10352984D01*
X16921087Y-10352984D02*
X16902039Y-10343460D01*
X16902039Y-10343460D02*
X16892515Y-10324412D01*
X16892515Y-10324412D02*
X16892515Y-10152984D01*
X17073468Y-10343460D02*
X17054420Y-10352984D01*
X17054420Y-10352984D02*
X17016325Y-10352984D01*
X17016325Y-10352984D02*
X16997277Y-10343460D01*
X16997277Y-10343460D02*
X16987753Y-10324412D01*
X16987753Y-10324412D02*
X16987753Y-10248222D01*
X16987753Y-10248222D02*
X16997277Y-10229174D01*
X16997277Y-10229174D02*
X17016325Y-10219650D01*
X17016325Y-10219650D02*
X17054420Y-10219650D01*
X17054420Y-10219650D02*
X17073468Y-10229174D01*
X17073468Y-10229174D02*
X17082992Y-10248222D01*
X17082992Y-10248222D02*
X17082992Y-10267270D01*
X17082992Y-10267270D02*
X16987753Y-10286317D01*
X17159182Y-10343460D02*
X17178230Y-10352984D01*
X17178230Y-10352984D02*
X17216325Y-10352984D01*
X17216325Y-10352984D02*
X17235373Y-10343460D01*
X17235373Y-10343460D02*
X17244896Y-10324412D01*
X17244896Y-10324412D02*
X17244896Y-10314889D01*
X17244896Y-10314889D02*
X17235373Y-10295841D01*
X17235373Y-10295841D02*
X17216325Y-10286317D01*
X17216325Y-10286317D02*
X17187753Y-10286317D01*
X17187753Y-10286317D02*
X17168706Y-10276793D01*
X17168706Y-10276793D02*
X17159182Y-10257746D01*
X17159182Y-10257746D02*
X17159182Y-10248222D01*
X17159182Y-10248222D02*
X17168706Y-10229174D01*
X17168706Y-10229174D02*
X17187753Y-10219650D01*
X17187753Y-10219650D02*
X17216325Y-10219650D01*
X17216325Y-10219650D02*
X17235373Y-10229174D01*
X17311563Y-10429174D02*
X17321087Y-10419650D01*
X17321087Y-10419650D02*
X17340134Y-10391079D01*
X17340134Y-10391079D02*
X17349658Y-10372031D01*
X17349658Y-10372031D02*
X17359182Y-10343460D01*
X17359182Y-10343460D02*
X17368706Y-10295841D01*
X17368706Y-10295841D02*
X17368706Y-10257746D01*
X17368706Y-10257746D02*
X17359182Y-10210127D01*
X17359182Y-10210127D02*
X17349658Y-10181555D01*
X17349658Y-10181555D02*
X17340134Y-10162508D01*
X17340134Y-10162508D02*
X17321087Y-10133936D01*
X17321087Y-10133936D02*
X17311563Y-10124412D01*
M02*
