%TF.GenerationSoftware,KiCad,Pcbnew,9.0.6*%
%TF.CreationDate,2026-01-18T05:45:19-03:00*%
%TF.ProjectId,dual IMU_moduleV2,6475616c-2049-44d5-955f-6d6f64756c65,rev?*%
%TF.SameCoordinates,Original*%
%TF.FileFunction,Copper,L2,Bot*%
%TF.FilePolarity,Positive*%
%FSLAX46Y46*%
G04 Gerber Fmt 4.6, Leading zero omitted, Abs format (unit mm)*
G04 Created by KiCad (PCBNEW 9.0.6) date 2026-01-18 05:45:19*
%MOMM*%
%LPD*%
G01*
G04 APERTURE LIST*
%TA.AperFunction,ComponentPad*%
%ADD10R,1.700000X1.700000*%
%TD*%
%TA.AperFunction,ComponentPad*%
%ADD11C,1.700000*%
%TD*%
%TA.AperFunction,ViaPad*%
%ADD12C,0.600000*%
%TD*%
G04 APERTURE END LIST*
D10*
%TO.P,J2,1,Pin_1*%
%TO.N,+3.3V*%
X127790000Y-75200000D03*
D11*
%TO.P,J2,2,Pin_2*%
%TO.N,GND*%
X127790000Y-77740000D03*
%TO.P,J2,3,Pin_3*%
%TO.N,SDA_IMU1*%
X127790000Y-80280000D03*
%TO.P,J2,4,Pin_4*%
%TO.N,SCL_IMU1*%
X127790000Y-82820000D03*
%TO.P,J2,5,Pin_5*%
%TO.N,SCL_IMU2*%
X127790000Y-85360000D03*
%TO.P,J2,6,Pin_6*%
%TO.N,SDA_IMU2*%
X127790000Y-87900000D03*
%TD*%
D12*
%TO.N,GND*%
X143340000Y-81660000D03*
X146020000Y-84000000D03*
X133100000Y-79200000D03*
X145230000Y-78340000D03*
X151460000Y-84390000D03*
X139130000Y-80520000D03*
X139240000Y-77030000D03*
X152800000Y-78680000D03*
X133510000Y-77010000D03*
X146610000Y-70550000D03*
%TD*%
%TA.AperFunction,Conductor*%
%TO.N,GND*%
G36*
X155592539Y-70110185D02*
G01*
X155638294Y-70162989D01*
X155649500Y-70214500D01*
X155649500Y-92925500D01*
X155629815Y-92992539D01*
X155577011Y-93038294D01*
X155525500Y-93049500D01*
X126014500Y-93049500D01*
X125947461Y-93029815D01*
X125901706Y-92977011D01*
X125890500Y-92925500D01*
X125890500Y-80173713D01*
X126439500Y-80173713D01*
X126439500Y-80386286D01*
X126472753Y-80596239D01*
X126538444Y-80798414D01*
X126634951Y-80987820D01*
X126759890Y-81159786D01*
X126910213Y-81310109D01*
X127082182Y-81435050D01*
X127090946Y-81439516D01*
X127141742Y-81487491D01*
X127158536Y-81555312D01*
X127135998Y-81621447D01*
X127090946Y-81660484D01*
X127082182Y-81664949D01*
X126910213Y-81789890D01*
X126759890Y-81940213D01*
X126634951Y-82112179D01*
X126538444Y-82301585D01*
X126472753Y-82503760D01*
X126439500Y-82713713D01*
X126439500Y-82926286D01*
X126472753Y-83136239D01*
X126538444Y-83338414D01*
X126634951Y-83527820D01*
X126759890Y-83699786D01*
X126910213Y-83850109D01*
X127082182Y-83975050D01*
X127090946Y-83979516D01*
X127141742Y-84027491D01*
X127158536Y-84095312D01*
X127135998Y-84161447D01*
X127090946Y-84200484D01*
X127082182Y-84204949D01*
X126910213Y-84329890D01*
X126759890Y-84480213D01*
X126634951Y-84652179D01*
X126538444Y-84841585D01*
X126472753Y-85043760D01*
X126439500Y-85253713D01*
X126439500Y-85466286D01*
X126472753Y-85676239D01*
X126538444Y-85878414D01*
X126634951Y-86067820D01*
X126759890Y-86239786D01*
X126910213Y-86390109D01*
X127082182Y-86515050D01*
X127090946Y-86519516D01*
X127141742Y-86567491D01*
X127158536Y-86635312D01*
X127135998Y-86701447D01*
X127090946Y-86740484D01*
X127082182Y-86744949D01*
X126910213Y-86869890D01*
X126759890Y-87020213D01*
X126634951Y-87192179D01*
X126538444Y-87381585D01*
X126472753Y-87583760D01*
X126439500Y-87793713D01*
X126439500Y-88006286D01*
X126472753Y-88216239D01*
X126538444Y-88418414D01*
X126634951Y-88607820D01*
X126759890Y-88779786D01*
X126910213Y-88930109D01*
X127082179Y-89055048D01*
X127082181Y-89055049D01*
X127082184Y-89055051D01*
X127271588Y-89151557D01*
X127473757Y-89217246D01*
X127683713Y-89250500D01*
X127683714Y-89250500D01*
X127896286Y-89250500D01*
X127896287Y-89250500D01*
X128106243Y-89217246D01*
X128308412Y-89151557D01*
X128497816Y-89055051D01*
X128519789Y-89039086D01*
X128669786Y-88930109D01*
X128669788Y-88930106D01*
X128669792Y-88930104D01*
X128820104Y-88779792D01*
X128820106Y-88779788D01*
X128820109Y-88779786D01*
X128945048Y-88607820D01*
X128945047Y-88607820D01*
X128945051Y-88607816D01*
X129041557Y-88418412D01*
X129107246Y-88216243D01*
X129140500Y-88006287D01*
X129140500Y-87793713D01*
X129107246Y-87583757D01*
X129041557Y-87381588D01*
X128945051Y-87192184D01*
X128945049Y-87192181D01*
X128945048Y-87192179D01*
X128820109Y-87020213D01*
X128669786Y-86869890D01*
X128497820Y-86744951D01*
X128497115Y-86744591D01*
X128489054Y-86740485D01*
X128438259Y-86692512D01*
X128421463Y-86624692D01*
X128443999Y-86558556D01*
X128489054Y-86519515D01*
X128497816Y-86515051D01*
X128519789Y-86499086D01*
X128669786Y-86390109D01*
X128669788Y-86390106D01*
X128669792Y-86390104D01*
X128820104Y-86239792D01*
X128820106Y-86239788D01*
X128820109Y-86239786D01*
X128945048Y-86067820D01*
X128945047Y-86067820D01*
X128945051Y-86067816D01*
X129041557Y-85878412D01*
X129107246Y-85676243D01*
X129140500Y-85466287D01*
X129140500Y-85253713D01*
X129107246Y-85043757D01*
X129041557Y-84841588D01*
X128945051Y-84652184D01*
X128945049Y-84652181D01*
X128945048Y-84652179D01*
X128820109Y-84480213D01*
X128669786Y-84329890D01*
X128497820Y-84204951D01*
X128497115Y-84204591D01*
X128489054Y-84200485D01*
X128438259Y-84152512D01*
X128421463Y-84084692D01*
X128443999Y-84018556D01*
X128489054Y-83979515D01*
X128497816Y-83975051D01*
X128519789Y-83959086D01*
X128669786Y-83850109D01*
X128669788Y-83850106D01*
X128669792Y-83850104D01*
X128820104Y-83699792D01*
X128820106Y-83699788D01*
X128820109Y-83699786D01*
X128945048Y-83527820D01*
X128945047Y-83527820D01*
X128945051Y-83527816D01*
X129041557Y-83338412D01*
X129107246Y-83136243D01*
X129140500Y-82926287D01*
X129140500Y-82713713D01*
X129107246Y-82503757D01*
X129041557Y-82301588D01*
X128945051Y-82112184D01*
X128945049Y-82112181D01*
X128945048Y-82112179D01*
X128820109Y-81940213D01*
X128669786Y-81789890D01*
X128497820Y-81664951D01*
X128497115Y-81664591D01*
X128489054Y-81660485D01*
X128438259Y-81612512D01*
X128421463Y-81544692D01*
X128443999Y-81478556D01*
X128489054Y-81439515D01*
X128497816Y-81435051D01*
X128519789Y-81419086D01*
X128669786Y-81310109D01*
X128669788Y-81310106D01*
X128669792Y-81310104D01*
X128820104Y-81159792D01*
X128820106Y-81159788D01*
X128820109Y-81159786D01*
X128945048Y-80987820D01*
X128945047Y-80987820D01*
X128945051Y-80987816D01*
X129041557Y-80798412D01*
X129107246Y-80596243D01*
X129140500Y-80386287D01*
X129140500Y-80173713D01*
X129107246Y-79963757D01*
X129041557Y-79761588D01*
X128945051Y-79572184D01*
X128945049Y-79572181D01*
X128945048Y-79572179D01*
X128820109Y-79400213D01*
X128669786Y-79249890D01*
X128497820Y-79124951D01*
X128308414Y-79028444D01*
X128308413Y-79028443D01*
X128308412Y-79028443D01*
X128106243Y-78962754D01*
X128106241Y-78962753D01*
X128106240Y-78962753D01*
X127944957Y-78937208D01*
X127896287Y-78929500D01*
X127683713Y-78929500D01*
X127635042Y-78937208D01*
X127473760Y-78962753D01*
X127271585Y-79028444D01*
X127082179Y-79124951D01*
X126910213Y-79249890D01*
X126759890Y-79400213D01*
X126634951Y-79572179D01*
X126538444Y-79761585D01*
X126472753Y-79963760D01*
X126439500Y-80173713D01*
X125890500Y-80173713D01*
X125890500Y-74302135D01*
X126439500Y-74302135D01*
X126439500Y-76097870D01*
X126439501Y-76097876D01*
X126445908Y-76157483D01*
X126496202Y-76292328D01*
X126496206Y-76292335D01*
X126582452Y-76407544D01*
X126582455Y-76407547D01*
X126697664Y-76493793D01*
X126697671Y-76493797D01*
X126832517Y-76544091D01*
X126832516Y-76544091D01*
X126839444Y-76544835D01*
X126892127Y-76550500D01*
X128687872Y-76550499D01*
X128747483Y-76544091D01*
X128882331Y-76493796D01*
X128997546Y-76407546D01*
X129083796Y-76292331D01*
X129134091Y-76157483D01*
X129140500Y-76097873D01*
X129140499Y-74302128D01*
X129134091Y-74242517D01*
X129083796Y-74107669D01*
X129083795Y-74107668D01*
X129083793Y-74107664D01*
X128997547Y-73992455D01*
X128997544Y-73992452D01*
X128882335Y-73906206D01*
X128882328Y-73906202D01*
X128747482Y-73855908D01*
X128747483Y-73855908D01*
X128687883Y-73849501D01*
X128687881Y-73849500D01*
X128687873Y-73849500D01*
X128687864Y-73849500D01*
X126892129Y-73849500D01*
X126892123Y-73849501D01*
X126832516Y-73855908D01*
X126697671Y-73906202D01*
X126697664Y-73906206D01*
X126582455Y-73992452D01*
X126582452Y-73992455D01*
X126496206Y-74107664D01*
X126496202Y-74107671D01*
X126445908Y-74242517D01*
X126439501Y-74302116D01*
X126439501Y-74302123D01*
X126439500Y-74302135D01*
X125890500Y-74302135D01*
X125890500Y-70214500D01*
X125910185Y-70147461D01*
X125962989Y-70101706D01*
X126014500Y-70090500D01*
X155525500Y-70090500D01*
X155592539Y-70110185D01*
G37*
%TD.AperFunction*%
%TD*%
M02*
