%TF.GenerationSoftware,KiCad,Pcbnew,9.0.6*%
%TF.CreationDate,2026-01-27T06:15:12-03:00*%
%TF.ProjectId,dual IMU_moduleV2,6475616c-2049-44d5-955f-6d6f64756c65,rev?*%
%TF.SameCoordinates,Original*%
%TF.FileFunction,Copper,L1,Top*%
%TF.FilePolarity,Positive*%
%FSLAX46Y46*%
G04 Gerber Fmt 4.6, Leading zero omitted, Abs format (unit mm)*
G04 Created by KiCad (PCBNEW 9.0.6) date 2026-01-27 06:15:12*
%MOMM*%
%LPD*%
G01*
G04 APERTURE LIST*
G04 Aperture macros list*
%AMRoundRect*
0 Rectangle with rounded corners*
0 $1 Rounding radius*
0 $2 $3 $4 $5 $6 $7 $8 $9 X,Y pos of 4 corners*
0 Add a 4 corners polygon primitive as box body*
4,1,4,$2,$3,$4,$5,$6,$7,$8,$9,$2,$3,0*
0 Add four circle primitives for the rounded corners*
1,1,$1+$1,$2,$3*
1,1,$1+$1,$4,$5*
1,1,$1+$1,$6,$7*
1,1,$1+$1,$8,$9*
0 Add four rect primitives between the rounded corners*
20,1,$1+$1,$2,$3,$4,$5,0*
20,1,$1+$1,$4,$5,$6,$7,0*
20,1,$1+$1,$6,$7,$8,$9,0*
20,1,$1+$1,$8,$9,$2,$3,0*%
G04 Aperture macros list end*
%TA.AperFunction,SMDPad,CuDef*%
%ADD10RoundRect,0.250000X-1.050000X-0.550000X1.050000X-0.550000X1.050000X0.550000X-1.050000X0.550000X0*%
%TD*%
%TA.AperFunction,SMDPad,CuDef*%
%ADD11RoundRect,0.250000X0.400000X0.625000X-0.400000X0.625000X-0.400000X-0.625000X0.400000X-0.625000X0*%
%TD*%
%TA.AperFunction,SMDPad,CuDef*%
%ADD12RoundRect,0.250000X-0.412500X-0.650000X0.412500X-0.650000X0.412500X0.650000X-0.412500X0.650000X0*%
%TD*%
%TA.AperFunction,SMDPad,CuDef*%
%ADD13RoundRect,0.250000X-0.400000X-0.625000X0.400000X-0.625000X0.400000X0.625000X-0.400000X0.625000X0*%
%TD*%
%TA.AperFunction,SMDPad,CuDef*%
%ADD14RoundRect,0.062500X-0.275000X0.062500X-0.275000X-0.062500X0.275000X-0.062500X0.275000X0.062500X0*%
%TD*%
%TA.AperFunction,SMDPad,CuDef*%
%ADD15RoundRect,0.062500X-0.062500X0.275000X-0.062500X-0.275000X0.062500X-0.275000X0.062500X0.275000X0*%
%TD*%
%TA.AperFunction,ComponentPad*%
%ADD16R,1.700000X1.700000*%
%TD*%
%TA.AperFunction,ComponentPad*%
%ADD17C,1.700000*%
%TD*%
%TA.AperFunction,SMDPad,CuDef*%
%ADD18R,0.600000X0.300000*%
%TD*%
%TA.AperFunction,SMDPad,CuDef*%
%ADD19R,0.300000X0.600000*%
%TD*%
%TA.AperFunction,ViaPad*%
%ADD20C,0.600000*%
%TD*%
%TA.AperFunction,Conductor*%
%ADD21C,0.200000*%
%TD*%
G04 APERTURE END LIST*
D10*
%TO.P,C6,1*%
%TO.N,+3.3V*%
X147490000Y-80740000D03*
%TO.P,C6,2*%
%TO.N,GND*%
X151090000Y-80740000D03*
%TD*%
D11*
%TO.P,R3,1*%
%TO.N,+3.3V*%
X137860000Y-88100000D03*
%TO.P,R3,2*%
%TO.N,SCL_IMU1*%
X134760000Y-88100000D03*
%TD*%
D12*
%TO.P,C3,1*%
%TO.N,+3.3V*%
X140607500Y-83720000D03*
%TO.P,C3,2*%
%TO.N,GND*%
X143732500Y-83720000D03*
%TD*%
D13*
%TO.P,R1,1*%
%TO.N,+3.3V*%
X147470000Y-72980000D03*
%TO.P,R1,2*%
%TO.N,SDA_IMU2*%
X150570000Y-72980000D03*
%TD*%
D11*
%TO.P,R4,1*%
%TO.N,+3.3V*%
X137860000Y-84500000D03*
%TO.P,R4,2*%
%TO.N,SDA_IMU1*%
X134760000Y-84500000D03*
%TD*%
%TO.P,R2,1*%
%TO.N,SCL_IMU2*%
X143650000Y-86790000D03*
%TO.P,R2,2*%
%TO.N,+3.3V*%
X140550000Y-86790000D03*
%TD*%
D14*
%TO.P,U1,1,INT2*%
%TO.N,unconnected-(U1-INT2-Pad1)*%
X137890000Y-77910000D03*
%TO.P,U1,2,GNDA*%
%TO.N,GND*%
X137890000Y-78410000D03*
%TO.P,U1,3,VDD*%
%TO.N,+3.3V*%
X137890000Y-78910000D03*
%TO.P,U1,4,GNDA*%
%TO.N,GND*%
X137890000Y-79410000D03*
%TO.P,U1,5,~{CSB2}*%
%TO.N,unconnected-(U1-~{CSB2}-Pad5)*%
X137890000Y-79910000D03*
%TO.P,U1,6,GNDIO*%
%TO.N,GND*%
X137890000Y-80410000D03*
%TO.P,U1,7,PS*%
%TO.N,+3.3V*%
X137890000Y-80910000D03*
D15*
%TO.P,U1,8,SCK/SCL*%
%TO.N,SCL_IMU1*%
X136627500Y-81422500D03*
D14*
%TO.P,U1,9,SDI/SDA*%
%TO.N,SDA_IMU1*%
X135365000Y-80910000D03*
%TO.P,U1,10,SDO2*%
%TO.N,GND*%
X135365000Y-80410000D03*
%TO.P,U1,11,VDDIO*%
%TO.N,+3.3V*%
X135365000Y-79910000D03*
%TO.P,U1,12,INT3*%
%TO.N,unconnected-(U1-INT3-Pad12)*%
X135365000Y-79410000D03*
%TO.P,U1,13,INT4*%
%TO.N,unconnected-(U1-INT4-Pad13)*%
X135365000Y-78910000D03*
%TO.P,U1,14,~{CSB1}*%
%TO.N,+3.3V*%
X135365000Y-78410000D03*
%TO.P,U1,15,SDO1*%
%TO.N,GND*%
X135365000Y-77910000D03*
D15*
%TO.P,U1,16,INT1*%
%TO.N,unconnected-(U1-INT1-Pad16)*%
X136627500Y-77397500D03*
%TD*%
D12*
%TO.P,C4,1*%
%TO.N,+3.3V*%
X146787500Y-85910000D03*
%TO.P,C4,2*%
%TO.N,GND*%
X149912500Y-85910000D03*
%TD*%
%TO.P,C1,1*%
%TO.N,+3.3V*%
X142057500Y-72960000D03*
%TO.P,C1,2*%
%TO.N,GND*%
X145182500Y-72960000D03*
%TD*%
%TO.P,C2,1*%
%TO.N,+3.3V*%
X135757500Y-72960000D03*
%TO.P,C2,2*%
%TO.N,GND*%
X138882500Y-72960000D03*
%TD*%
D16*
%TO.P,J2,1,Pin_1*%
%TO.N,+3.3V*%
X127790000Y-75200000D03*
D17*
%TO.P,J2,2,Pin_2*%
%TO.N,GND*%
X127790000Y-77740000D03*
%TO.P,J2,3,Pin_3*%
%TO.N,SDA_IMU1*%
X127790000Y-80280000D03*
%TO.P,J2,4,Pin_4*%
%TO.N,SCL_IMU1*%
X127790000Y-82820000D03*
%TO.P,J2,5,Pin_5*%
%TO.N,SCL_IMU2*%
X127790000Y-85360000D03*
%TO.P,J2,6,Pin_6*%
%TO.N,SDA_IMU2*%
X127790000Y-87900000D03*
%TD*%
D18*
%TO.P,AC1,1,AP_SDO_/_AP_AD0*%
%TO.N,+3.3V*%
X141150000Y-78650000D03*
%TO.P,AC1,2,RESV_1*%
%TO.N,unconnected-(AC1-RESV_1-Pad2)*%
X141150000Y-79150000D03*
%TO.P,AC1,3,RESV_2*%
%TO.N,unconnected-(AC1-RESV_2-Pad3)*%
X141150000Y-79650000D03*
%TO.P,AC1,4,INT1_/_INT*%
%TO.N,unconnected-(AC1-INT1_{slash}_INT-Pad4)*%
X141150000Y-80150000D03*
D19*
%TO.P,AC1,5,VDDIO*%
%TO.N,+3.3V*%
X141800000Y-80300000D03*
%TO.P,AC1,6,GND*%
%TO.N,GND*%
X142300000Y-80300000D03*
%TO.P,AC1,7,RESV_3*%
%TO.N,unconnected-(AC1-RESV_3-Pad7)*%
X142800000Y-80300000D03*
D18*
%TO.P,AC1,8,VDD*%
%TO.N,+3.3V*%
X143450000Y-80150000D03*
%TO.P,AC1,9,INT2_/_FSYNC*%
%TO.N,GND*%
X143450000Y-79650000D03*
%TO.P,AC1,10,RESV_4*%
%TO.N,unconnected-(AC1-RESV_4-Pad10)*%
X143450000Y-79150000D03*
%TO.P,AC1,11,RESV_5*%
%TO.N,unconnected-(AC1-RESV_5-Pad11)*%
X143450000Y-78650000D03*
D19*
%TO.P,AC1,12,AP_CS*%
%TO.N,+3.3V*%
X142800000Y-78500000D03*
%TO.P,AC1,13,AP_SCL_/_AP_SCLK*%
%TO.N,SCL_IMU2*%
X142300000Y-78500000D03*
%TO.P,AC1,14,AP_SDA_/_AP_SDIO_/_AP_SDI*%
%TO.N,SDA_IMU2*%
X141800000Y-78500000D03*
%TD*%
D20*
%TO.N,GND*%
X143340000Y-81660000D03*
X146020000Y-84000000D03*
X133100000Y-79200000D03*
X145230000Y-78340000D03*
X151460000Y-84390000D03*
X139130000Y-80520000D03*
X139240000Y-77030000D03*
X152800000Y-78680000D03*
X133510000Y-77010000D03*
X146610000Y-70550000D03*
%TD*%
D21*
%TO.N,GND*%
X139250000Y-78290000D02*
X139130000Y-78410000D01*
X139130000Y-79720000D02*
X139130000Y-80520000D01*
X133860000Y-77910000D02*
X135365000Y-77910000D01*
X139200000Y-70550000D02*
X138882500Y-70867500D01*
X133100000Y-79200000D02*
X133100000Y-79580000D01*
X133510000Y-77560000D02*
X133860000Y-77910000D01*
X152380000Y-80740000D02*
X152800000Y-80320000D01*
X145182500Y-70737500D02*
X145182500Y-72960000D01*
X145560000Y-70550000D02*
X139200000Y-70550000D01*
X139250000Y-77040000D02*
X139250000Y-78290000D01*
X145230000Y-79270000D02*
X145230000Y-78340000D01*
X139020000Y-80410000D02*
X137890000Y-80410000D01*
X143450000Y-79650000D02*
X144850000Y-79650000D01*
X139240000Y-77030000D02*
X139250000Y-77040000D01*
X139130000Y-80520000D02*
X139020000Y-80410000D01*
X142310000Y-80310000D02*
X142310000Y-81290000D01*
X138820000Y-79410000D02*
X139130000Y-79720000D01*
X137890000Y-79410000D02*
X138820000Y-79410000D01*
X151090000Y-80740000D02*
X152380000Y-80740000D01*
X149852500Y-85560000D02*
X150830000Y-85560000D01*
X145730000Y-83720000D02*
X143732500Y-83720000D01*
X151460000Y-84930000D02*
X151460000Y-84390000D01*
X144850000Y-79650000D02*
X145230000Y-79270000D01*
X146010000Y-84000000D02*
X145730000Y-83720000D01*
X146610000Y-70550000D02*
X145560000Y-70550000D01*
X139130000Y-78410000D02*
X137890000Y-78410000D01*
X150830000Y-85560000D02*
X151460000Y-84930000D01*
X145560000Y-70550000D02*
X145370000Y-70550000D01*
X146020000Y-84000000D02*
X146010000Y-84000000D01*
X133930000Y-80410000D02*
X135365000Y-80410000D01*
X145370000Y-70550000D02*
X145182500Y-70737500D01*
X142310000Y-81290000D02*
X142680000Y-81660000D01*
X142680000Y-81660000D02*
X143340000Y-81660000D01*
X133100000Y-79580000D02*
X133930000Y-80410000D01*
X138882500Y-70867500D02*
X138882500Y-72960000D01*
X133510000Y-77010000D02*
X133510000Y-77560000D01*
X152800000Y-80320000D02*
X152800000Y-78680000D01*
%TO.N,+3.3V*%
X132360000Y-76300000D02*
X131820000Y-75760000D01*
X140550000Y-86790000D02*
X140550000Y-83777500D01*
X141070000Y-81700000D02*
X141070000Y-82370000D01*
X141800000Y-80970000D02*
X141070000Y-81700000D01*
X147380000Y-74640000D02*
X147372500Y-74632500D01*
X140607500Y-83720000D02*
X139420000Y-83720000D01*
X137890000Y-80910000D02*
X138680000Y-80910000D01*
X147380000Y-73070000D02*
X147380000Y-74640000D01*
X131820000Y-75760000D02*
X130850000Y-75760000D01*
X137860000Y-84500000D02*
X137860000Y-88100000D01*
X141800000Y-80300000D02*
X141800000Y-80970000D01*
X147372500Y-74632500D02*
X146635000Y-75370000D01*
X137890000Y-78910000D02*
X139831000Y-78910000D01*
X135365000Y-78410000D02*
X133780057Y-78410000D01*
X138680000Y-80919943D02*
X138940000Y-81179943D01*
X139831000Y-78910000D02*
X139881000Y-78860000D01*
X140161000Y-82370000D02*
X139881000Y-82090000D01*
X130220000Y-75130000D02*
X131820000Y-73530000D01*
X141021000Y-75370000D02*
X140091000Y-76300000D01*
X145330000Y-80760000D02*
X146830000Y-80760000D01*
X132370000Y-76300000D02*
X132360000Y-76300000D01*
X144720000Y-80150000D02*
X145330000Y-80760000D01*
X134140000Y-79910000D02*
X133780057Y-79550057D01*
X146727500Y-85560000D02*
X146727500Y-83250000D01*
X138940000Y-83300000D02*
X138940000Y-82390000D01*
X141780000Y-75370000D02*
X141021000Y-75370000D01*
X140091000Y-78650000D02*
X139881000Y-78860000D01*
X138680000Y-80910000D02*
X138680000Y-80919943D01*
X132390000Y-72960000D02*
X135757500Y-72960000D01*
X146240000Y-77530000D02*
X143060000Y-77530000D01*
X146830000Y-80760000D02*
X146830000Y-78120000D01*
X133300000Y-78410000D02*
X132370000Y-77480000D01*
X139881000Y-78860000D02*
X139881000Y-82090000D01*
X146635000Y-75370000D02*
X141780000Y-75370000D01*
X133780057Y-79550057D02*
X133780057Y-78410000D01*
X143450000Y-80150000D02*
X144720000Y-80150000D01*
X146727500Y-83250000D02*
X145847500Y-82370000D01*
X142800000Y-77790000D02*
X142800000Y-78500000D01*
X141780000Y-73237500D02*
X141780000Y-75370000D01*
X130850000Y-75760000D02*
X130220000Y-75130000D01*
X133780057Y-78410000D02*
X133300000Y-78410000D01*
X145847500Y-82370000D02*
X141070000Y-82370000D01*
X139370000Y-84120000D02*
X139370000Y-83730000D01*
X139240000Y-82090000D02*
X138940000Y-82390000D01*
X146727500Y-83250000D02*
X146727500Y-80862500D01*
X140161000Y-82370000D02*
X141070000Y-82370000D01*
X139370000Y-83730000D02*
X138940000Y-83300000D01*
X138990000Y-84500000D02*
X139370000Y-84120000D01*
X131820000Y-73530000D02*
X132390000Y-72960000D01*
X137860000Y-84500000D02*
X138990000Y-84500000D01*
X141150000Y-78650000D02*
X140091000Y-78650000D01*
X138940000Y-81179943D02*
X138940000Y-82390000D01*
X143060000Y-77530000D02*
X142800000Y-77790000D01*
X135365000Y-79910000D02*
X134140000Y-79910000D01*
X132370000Y-77480000D02*
X132370000Y-76300000D01*
X140091000Y-76300000D02*
X132370000Y-76300000D01*
X140091000Y-78650000D02*
X140091000Y-76300000D01*
X139881000Y-82090000D02*
X139240000Y-82090000D01*
X146830000Y-78120000D02*
X146240000Y-77530000D01*
X130150000Y-75200000D02*
X131820000Y-73530000D01*
X127790000Y-75200000D02*
X130150000Y-75200000D01*
%TO.N,SCL_IMU2*%
X150433612Y-88350000D02*
X146170000Y-88350000D01*
X130540000Y-85360000D02*
X127790000Y-85360000D01*
X133760000Y-90630000D02*
X131319000Y-88189000D01*
X147030000Y-88360000D02*
X147030000Y-89830000D01*
X142730000Y-77010000D02*
X151980000Y-77010000D01*
X145240000Y-86790000D02*
X143650000Y-86790000D01*
X153410000Y-78440000D02*
X153410000Y-85373612D01*
X131319000Y-86139000D02*
X130540000Y-85360000D01*
X142399000Y-77341000D02*
X142730000Y-77010000D01*
X151980000Y-77010000D02*
X153410000Y-78440000D01*
X142399000Y-78380000D02*
X142399000Y-77341000D01*
X145560000Y-87740000D02*
X145560000Y-87110000D01*
X153410000Y-85373612D02*
X150433612Y-88350000D01*
X146170000Y-88350000D02*
X145560000Y-87740000D01*
X131319000Y-88189000D02*
X131319000Y-86139000D01*
X145560000Y-87110000D02*
X145240000Y-86790000D01*
X147030000Y-89830000D02*
X146230000Y-90630000D01*
X146230000Y-90630000D02*
X133760000Y-90630000D01*
%TO.N,SDA_IMU2*%
X150570000Y-72940000D02*
X150570000Y-76659000D01*
X127790000Y-87900000D02*
X130220000Y-87900000D01*
X153790000Y-87940000D02*
X153790000Y-78250000D01*
X150070000Y-91660000D02*
X153790000Y-87940000D01*
X141800000Y-77112611D02*
X141800000Y-78500000D01*
X153790000Y-78250000D02*
X152199000Y-76659000D01*
X133980000Y-91660000D02*
X150070000Y-91660000D01*
X142253611Y-76659000D02*
X152199000Y-76659000D01*
X142253611Y-76659000D02*
X141800000Y-77112611D01*
X130220000Y-87900000D02*
X133980000Y-91660000D01*
%TO.N,SDA_IMU1*%
X135365000Y-80910000D02*
X134100000Y-80910000D01*
X132510000Y-83700000D02*
X132510000Y-81980000D01*
X131190000Y-80280000D02*
X127790000Y-80280000D01*
X133030000Y-81980000D02*
X132510000Y-81980000D01*
X132510000Y-81980000D02*
X132510000Y-81610000D01*
X132510000Y-81610000D02*
X131185000Y-80285000D01*
X134100000Y-80910000D02*
X133030000Y-81980000D01*
X133310000Y-84500000D02*
X132510000Y-83700000D01*
X131185000Y-80285000D02*
X131190000Y-80280000D01*
X134760000Y-84500000D02*
X133310000Y-84500000D01*
%TO.N,SCL_IMU1*%
X134760000Y-88100000D02*
X132840000Y-88100000D01*
X131670000Y-83510000D02*
X130980000Y-82820000D01*
X130980000Y-82820000D02*
X127790000Y-82820000D01*
X136627500Y-81422500D02*
X136627500Y-87382500D01*
X131670000Y-86930000D02*
X131670000Y-83510000D01*
X132840000Y-88100000D02*
X131670000Y-86930000D01*
X135910000Y-88100000D02*
X134760000Y-88100000D01*
X136627500Y-87382500D02*
X135910000Y-88100000D01*
%TD*%
M02*
