%TF.GenerationSoftware,KiCad,Pcbnew,9.0.6*%
%TF.CreationDate,2026-01-27T06:15:14-03:00*%
%TF.ProjectId,dual IMU_moduleV2,6475616c-2049-44d5-955f-6d6f64756c65,rev?*%
%TF.SameCoordinates,Original*%
%TF.FileFunction,Drillmap*%
%TF.FilePolarity,Positive*%
%FSLAX45Y45*%
G04 Gerber Fmt 4.5, Leading zero omitted, Abs format (unit mm)*
G04 Created by KiCad (PCBNEW 9.0.6) date 2026-01-27 06:15:14*
%MOMM*%
%LPD*%
G01*
G04 APERTURE LIST*
%ADD10C,0.050000*%
%ADD11C,0.200000*%
%ADD12C,0.100000*%
G04 APERTURE END LIST*
D10*
X12702000Y-9355000D02*
G75*
G02*
X12602000Y-9255000I0J100000D01*
G01*
X12602000Y-7059000D02*
G75*
G02*
X12702000Y-6959000I100000J0D01*
G01*
X15615000Y-9255000D02*
G75*
G02*
X15515000Y-9355000I-100000J0D01*
G01*
X15515000Y-6959000D02*
G75*
G02*
X15615000Y-7059000I0J-100000D01*
G01*
X12602000Y-9255000D02*
X12602000Y-7059000D01*
X15515000Y-9355000D02*
X12702000Y-9355000D01*
X12702000Y-6959000D02*
X15515000Y-6959000D01*
X15615000Y-7059000D02*
X15615000Y-9255000D01*
D11*
D12*
X13295000Y-7905000D02*
X13325000Y-7935000D01*
X13325000Y-7905000D02*
X13295000Y-7935000D01*
X13336000Y-7686000D02*
X13366000Y-7716000D01*
X13366000Y-7686000D02*
X13336000Y-7716000D01*
X13898000Y-8037000D02*
X13928000Y-8067000D01*
X13928000Y-8037000D02*
X13898000Y-8067000D01*
X13909000Y-7688000D02*
X13939000Y-7718000D01*
X13939000Y-7688000D02*
X13909000Y-7718000D01*
X14319000Y-8151000D02*
X14349000Y-8181000D01*
X14349000Y-8151000D02*
X14319000Y-8181000D01*
X14508000Y-7819000D02*
X14538000Y-7849000D01*
X14538000Y-7819000D02*
X14508000Y-7849000D01*
X14587000Y-8385000D02*
X14617000Y-8415000D01*
X14617000Y-8385000D02*
X14587000Y-8415000D01*
X14646000Y-7040000D02*
X14676000Y-7070000D01*
X14676000Y-7040000D02*
X14646000Y-7070000D01*
X15131000Y-8424000D02*
X15161000Y-8454000D01*
X15161000Y-8424000D02*
X15131000Y-8454000D01*
X15265000Y-7853000D02*
X15295000Y-7883000D01*
X15295000Y-7853000D02*
X15265000Y-7883000D01*
X12829000Y-7520000D02*
G75*
G02*
X12729000Y-7520000I-50000J0D01*
G01*
X12729000Y-7520000D02*
G75*
G02*
X12829000Y-7520000I50000J0D01*
G01*
X12829000Y-7774000D02*
G75*
G02*
X12729000Y-7774000I-50000J0D01*
G01*
X12729000Y-7774000D02*
G75*
G02*
X12829000Y-7774000I50000J0D01*
G01*
X12829000Y-8028000D02*
G75*
G02*
X12729000Y-8028000I-50000J0D01*
G01*
X12729000Y-8028000D02*
G75*
G02*
X12829000Y-8028000I50000J0D01*
G01*
X12829000Y-8282000D02*
G75*
G02*
X12729000Y-8282000I-50000J0D01*
G01*
X12729000Y-8282000D02*
G75*
G02*
X12829000Y-8282000I50000J0D01*
G01*
X12829000Y-8536000D02*
G75*
G02*
X12729000Y-8536000I-50000J0D01*
G01*
X12729000Y-8536000D02*
G75*
G02*
X12829000Y-8536000I50000J0D01*
G01*
X12829000Y-8790000D02*
G75*
G02*
X12729000Y-8790000I-50000J0D01*
G01*
X12729000Y-8790000D02*
G75*
G02*
X12829000Y-8790000I50000J0D01*
G01*
D11*
X12860277Y-9668984D02*
X12860277Y-9468984D01*
X12860277Y-9468984D02*
X12907896Y-9468984D01*
X12907896Y-9468984D02*
X12936467Y-9478508D01*
X12936467Y-9478508D02*
X12955515Y-9497555D01*
X12955515Y-9497555D02*
X12965039Y-9516603D01*
X12965039Y-9516603D02*
X12974562Y-9554698D01*
X12974562Y-9554698D02*
X12974562Y-9583270D01*
X12974562Y-9583270D02*
X12965039Y-9621365D01*
X12965039Y-9621365D02*
X12955515Y-9640412D01*
X12955515Y-9640412D02*
X12936467Y-9659460D01*
X12936467Y-9659460D02*
X12907896Y-9668984D01*
X12907896Y-9668984D02*
X12860277Y-9668984D01*
X13060277Y-9668984D02*
X13060277Y-9535650D01*
X13060277Y-9573746D02*
X13069801Y-9554698D01*
X13069801Y-9554698D02*
X13079324Y-9545174D01*
X13079324Y-9545174D02*
X13098372Y-9535650D01*
X13098372Y-9535650D02*
X13117420Y-9535650D01*
X13184086Y-9668984D02*
X13184086Y-9535650D01*
X13184086Y-9468984D02*
X13174562Y-9478508D01*
X13174562Y-9478508D02*
X13184086Y-9488031D01*
X13184086Y-9488031D02*
X13193610Y-9478508D01*
X13193610Y-9478508D02*
X13184086Y-9468984D01*
X13184086Y-9468984D02*
X13184086Y-9488031D01*
X13307896Y-9668984D02*
X13288848Y-9659460D01*
X13288848Y-9659460D02*
X13279324Y-9640412D01*
X13279324Y-9640412D02*
X13279324Y-9468984D01*
X13412658Y-9668984D02*
X13393610Y-9659460D01*
X13393610Y-9659460D02*
X13384086Y-9640412D01*
X13384086Y-9640412D02*
X13384086Y-9468984D01*
X13641229Y-9668984D02*
X13641229Y-9468984D01*
X13641229Y-9468984D02*
X13707896Y-9611841D01*
X13707896Y-9611841D02*
X13774562Y-9468984D01*
X13774562Y-9468984D02*
X13774562Y-9668984D01*
X13955515Y-9668984D02*
X13955515Y-9564222D01*
X13955515Y-9564222D02*
X13945991Y-9545174D01*
X13945991Y-9545174D02*
X13926943Y-9535650D01*
X13926943Y-9535650D02*
X13888848Y-9535650D01*
X13888848Y-9535650D02*
X13869801Y-9545174D01*
X13955515Y-9659460D02*
X13936467Y-9668984D01*
X13936467Y-9668984D02*
X13888848Y-9668984D01*
X13888848Y-9668984D02*
X13869801Y-9659460D01*
X13869801Y-9659460D02*
X13860277Y-9640412D01*
X13860277Y-9640412D02*
X13860277Y-9621365D01*
X13860277Y-9621365D02*
X13869801Y-9602317D01*
X13869801Y-9602317D02*
X13888848Y-9592793D01*
X13888848Y-9592793D02*
X13936467Y-9592793D01*
X13936467Y-9592793D02*
X13955515Y-9583270D01*
X14050753Y-9535650D02*
X14050753Y-9735650D01*
X14050753Y-9545174D02*
X14069801Y-9535650D01*
X14069801Y-9535650D02*
X14107896Y-9535650D01*
X14107896Y-9535650D02*
X14126943Y-9545174D01*
X14126943Y-9545174D02*
X14136467Y-9554698D01*
X14136467Y-9554698D02*
X14145991Y-9573746D01*
X14145991Y-9573746D02*
X14145991Y-9630889D01*
X14145991Y-9630889D02*
X14136467Y-9649936D01*
X14136467Y-9649936D02*
X14126943Y-9659460D01*
X14126943Y-9659460D02*
X14107896Y-9668984D01*
X14107896Y-9668984D02*
X14069801Y-9668984D01*
X14069801Y-9668984D02*
X14050753Y-9659460D01*
X14231705Y-9649936D02*
X14241229Y-9659460D01*
X14241229Y-9659460D02*
X14231705Y-9668984D01*
X14231705Y-9668984D02*
X14222182Y-9659460D01*
X14222182Y-9659460D02*
X14231705Y-9649936D01*
X14231705Y-9649936D02*
X14231705Y-9668984D01*
X14231705Y-9545174D02*
X14241229Y-9554698D01*
X14241229Y-9554698D02*
X14231705Y-9564222D01*
X14231705Y-9564222D02*
X14222182Y-9554698D01*
X14222182Y-9554698D02*
X14231705Y-9545174D01*
X14231705Y-9545174D02*
X14231705Y-9564222D01*
D12*
X12569500Y-9982500D02*
X12599500Y-10012500D01*
X12599500Y-9982500D02*
X12569500Y-10012500D01*
D11*
X12898372Y-9888984D02*
X12917420Y-9888984D01*
X12917420Y-9888984D02*
X12936467Y-9898508D01*
X12936467Y-9898508D02*
X12945991Y-9908031D01*
X12945991Y-9908031D02*
X12955515Y-9927079D01*
X12955515Y-9927079D02*
X12965039Y-9965174D01*
X12965039Y-9965174D02*
X12965039Y-10012793D01*
X12965039Y-10012793D02*
X12955515Y-10050889D01*
X12955515Y-10050889D02*
X12945991Y-10069936D01*
X12945991Y-10069936D02*
X12936467Y-10079460D01*
X12936467Y-10079460D02*
X12917420Y-10088984D01*
X12917420Y-10088984D02*
X12898372Y-10088984D01*
X12898372Y-10088984D02*
X12879324Y-10079460D01*
X12879324Y-10079460D02*
X12869801Y-10069936D01*
X12869801Y-10069936D02*
X12860277Y-10050889D01*
X12860277Y-10050889D02*
X12850753Y-10012793D01*
X12850753Y-10012793D02*
X12850753Y-9965174D01*
X12850753Y-9965174D02*
X12860277Y-9927079D01*
X12860277Y-9927079D02*
X12869801Y-9908031D01*
X12869801Y-9908031D02*
X12879324Y-9898508D01*
X12879324Y-9898508D02*
X12898372Y-9888984D01*
X13050753Y-10069936D02*
X13060277Y-10079460D01*
X13060277Y-10079460D02*
X13050753Y-10088984D01*
X13050753Y-10088984D02*
X13041229Y-10079460D01*
X13041229Y-10079460D02*
X13050753Y-10069936D01*
X13050753Y-10069936D02*
X13050753Y-10088984D01*
X13126943Y-9888984D02*
X13250753Y-9888984D01*
X13250753Y-9888984D02*
X13184086Y-9965174D01*
X13184086Y-9965174D02*
X13212658Y-9965174D01*
X13212658Y-9965174D02*
X13231705Y-9974698D01*
X13231705Y-9974698D02*
X13241229Y-9984222D01*
X13241229Y-9984222D02*
X13250753Y-10003270D01*
X13250753Y-10003270D02*
X13250753Y-10050889D01*
X13250753Y-10050889D02*
X13241229Y-10069936D01*
X13241229Y-10069936D02*
X13231705Y-10079460D01*
X13231705Y-10079460D02*
X13212658Y-10088984D01*
X13212658Y-10088984D02*
X13155515Y-10088984D01*
X13155515Y-10088984D02*
X13136467Y-10079460D01*
X13136467Y-10079460D02*
X13126943Y-10069936D01*
X13374562Y-9888984D02*
X13393610Y-9888984D01*
X13393610Y-9888984D02*
X13412658Y-9898508D01*
X13412658Y-9898508D02*
X13422182Y-9908031D01*
X13422182Y-9908031D02*
X13431705Y-9927079D01*
X13431705Y-9927079D02*
X13441229Y-9965174D01*
X13441229Y-9965174D02*
X13441229Y-10012793D01*
X13441229Y-10012793D02*
X13431705Y-10050889D01*
X13431705Y-10050889D02*
X13422182Y-10069936D01*
X13422182Y-10069936D02*
X13412658Y-10079460D01*
X13412658Y-10079460D02*
X13393610Y-10088984D01*
X13393610Y-10088984D02*
X13374562Y-10088984D01*
X13374562Y-10088984D02*
X13355515Y-10079460D01*
X13355515Y-10079460D02*
X13345991Y-10069936D01*
X13345991Y-10069936D02*
X13336467Y-10050889D01*
X13336467Y-10050889D02*
X13326943Y-10012793D01*
X13326943Y-10012793D02*
X13326943Y-9965174D01*
X13326943Y-9965174D02*
X13336467Y-9927079D01*
X13336467Y-9927079D02*
X13345991Y-9908031D01*
X13345991Y-9908031D02*
X13355515Y-9898508D01*
X13355515Y-9898508D02*
X13374562Y-9888984D01*
X13565039Y-9888984D02*
X13584086Y-9888984D01*
X13584086Y-9888984D02*
X13603134Y-9898508D01*
X13603134Y-9898508D02*
X13612658Y-9908031D01*
X13612658Y-9908031D02*
X13622182Y-9927079D01*
X13622182Y-9927079D02*
X13631705Y-9965174D01*
X13631705Y-9965174D02*
X13631705Y-10012793D01*
X13631705Y-10012793D02*
X13622182Y-10050889D01*
X13622182Y-10050889D02*
X13612658Y-10069936D01*
X13612658Y-10069936D02*
X13603134Y-10079460D01*
X13603134Y-10079460D02*
X13584086Y-10088984D01*
X13584086Y-10088984D02*
X13565039Y-10088984D01*
X13565039Y-10088984D02*
X13545991Y-10079460D01*
X13545991Y-10079460D02*
X13536467Y-10069936D01*
X13536467Y-10069936D02*
X13526943Y-10050889D01*
X13526943Y-10050889D02*
X13517420Y-10012793D01*
X13517420Y-10012793D02*
X13517420Y-9965174D01*
X13517420Y-9965174D02*
X13526943Y-9927079D01*
X13526943Y-9927079D02*
X13536467Y-9908031D01*
X13536467Y-9908031D02*
X13545991Y-9898508D01*
X13545991Y-9898508D02*
X13565039Y-9888984D01*
X13717420Y-10088984D02*
X13717420Y-9955650D01*
X13717420Y-9974698D02*
X13726943Y-9965174D01*
X13726943Y-9965174D02*
X13745991Y-9955650D01*
X13745991Y-9955650D02*
X13774563Y-9955650D01*
X13774563Y-9955650D02*
X13793610Y-9965174D01*
X13793610Y-9965174D02*
X13803134Y-9984222D01*
X13803134Y-9984222D02*
X13803134Y-10088984D01*
X13803134Y-9984222D02*
X13812658Y-9965174D01*
X13812658Y-9965174D02*
X13831705Y-9955650D01*
X13831705Y-9955650D02*
X13860277Y-9955650D01*
X13860277Y-9955650D02*
X13879324Y-9965174D01*
X13879324Y-9965174D02*
X13888848Y-9984222D01*
X13888848Y-9984222D02*
X13888848Y-10088984D01*
X13984086Y-10088984D02*
X13984086Y-9955650D01*
X13984086Y-9974698D02*
X13993610Y-9965174D01*
X13993610Y-9965174D02*
X14012658Y-9955650D01*
X14012658Y-9955650D02*
X14041229Y-9955650D01*
X14041229Y-9955650D02*
X14060277Y-9965174D01*
X14060277Y-9965174D02*
X14069801Y-9984222D01*
X14069801Y-9984222D02*
X14069801Y-10088984D01*
X14069801Y-9984222D02*
X14079324Y-9965174D01*
X14079324Y-9965174D02*
X14098372Y-9955650D01*
X14098372Y-9955650D02*
X14126943Y-9955650D01*
X14126943Y-9955650D02*
X14145991Y-9965174D01*
X14145991Y-9965174D02*
X14155515Y-9984222D01*
X14155515Y-9984222D02*
X14155515Y-10088984D01*
X14545991Y-9879460D02*
X14374563Y-10136603D01*
X14803134Y-9888984D02*
X14822182Y-9888984D01*
X14822182Y-9888984D02*
X14841229Y-9898508D01*
X14841229Y-9898508D02*
X14850753Y-9908031D01*
X14850753Y-9908031D02*
X14860277Y-9927079D01*
X14860277Y-9927079D02*
X14869801Y-9965174D01*
X14869801Y-9965174D02*
X14869801Y-10012793D01*
X14869801Y-10012793D02*
X14860277Y-10050889D01*
X14860277Y-10050889D02*
X14850753Y-10069936D01*
X14850753Y-10069936D02*
X14841229Y-10079460D01*
X14841229Y-10079460D02*
X14822182Y-10088984D01*
X14822182Y-10088984D02*
X14803134Y-10088984D01*
X14803134Y-10088984D02*
X14784086Y-10079460D01*
X14784086Y-10079460D02*
X14774563Y-10069936D01*
X14774563Y-10069936D02*
X14765039Y-10050889D01*
X14765039Y-10050889D02*
X14755515Y-10012793D01*
X14755515Y-10012793D02*
X14755515Y-9965174D01*
X14755515Y-9965174D02*
X14765039Y-9927079D01*
X14765039Y-9927079D02*
X14774563Y-9908031D01*
X14774563Y-9908031D02*
X14784086Y-9898508D01*
X14784086Y-9898508D02*
X14803134Y-9888984D01*
X14955515Y-10069936D02*
X14965039Y-10079460D01*
X14965039Y-10079460D02*
X14955515Y-10088984D01*
X14955515Y-10088984D02*
X14945991Y-10079460D01*
X14945991Y-10079460D02*
X14955515Y-10069936D01*
X14955515Y-10069936D02*
X14955515Y-10088984D01*
X15088848Y-9888984D02*
X15107896Y-9888984D01*
X15107896Y-9888984D02*
X15126944Y-9898508D01*
X15126944Y-9898508D02*
X15136467Y-9908031D01*
X15136467Y-9908031D02*
X15145991Y-9927079D01*
X15145991Y-9927079D02*
X15155515Y-9965174D01*
X15155515Y-9965174D02*
X15155515Y-10012793D01*
X15155515Y-10012793D02*
X15145991Y-10050889D01*
X15145991Y-10050889D02*
X15136467Y-10069936D01*
X15136467Y-10069936D02*
X15126944Y-10079460D01*
X15126944Y-10079460D02*
X15107896Y-10088984D01*
X15107896Y-10088984D02*
X15088848Y-10088984D01*
X15088848Y-10088984D02*
X15069801Y-10079460D01*
X15069801Y-10079460D02*
X15060277Y-10069936D01*
X15060277Y-10069936D02*
X15050753Y-10050889D01*
X15050753Y-10050889D02*
X15041229Y-10012793D01*
X15041229Y-10012793D02*
X15041229Y-9965174D01*
X15041229Y-9965174D02*
X15050753Y-9927079D01*
X15050753Y-9927079D02*
X15060277Y-9908031D01*
X15060277Y-9908031D02*
X15069801Y-9898508D01*
X15069801Y-9898508D02*
X15088848Y-9888984D01*
X15345991Y-10088984D02*
X15231706Y-10088984D01*
X15288848Y-10088984D02*
X15288848Y-9888984D01*
X15288848Y-9888984D02*
X15269801Y-9917555D01*
X15269801Y-9917555D02*
X15250753Y-9936603D01*
X15250753Y-9936603D02*
X15231706Y-9946127D01*
X15536467Y-10088984D02*
X15422182Y-10088984D01*
X15479325Y-10088984D02*
X15479325Y-9888984D01*
X15479325Y-9888984D02*
X15460277Y-9917555D01*
X15460277Y-9917555D02*
X15441229Y-9936603D01*
X15441229Y-9936603D02*
X15422182Y-9946127D01*
X15650753Y-9974698D02*
X15631706Y-9965174D01*
X15631706Y-9965174D02*
X15622182Y-9955650D01*
X15622182Y-9955650D02*
X15612658Y-9936603D01*
X15612658Y-9936603D02*
X15612658Y-9927079D01*
X15612658Y-9927079D02*
X15622182Y-9908031D01*
X15622182Y-9908031D02*
X15631706Y-9898508D01*
X15631706Y-9898508D02*
X15650753Y-9888984D01*
X15650753Y-9888984D02*
X15688848Y-9888984D01*
X15688848Y-9888984D02*
X15707896Y-9898508D01*
X15707896Y-9898508D02*
X15717420Y-9908031D01*
X15717420Y-9908031D02*
X15726944Y-9927079D01*
X15726944Y-9927079D02*
X15726944Y-9936603D01*
X15726944Y-9936603D02*
X15717420Y-9955650D01*
X15717420Y-9955650D02*
X15707896Y-9965174D01*
X15707896Y-9965174D02*
X15688848Y-9974698D01*
X15688848Y-9974698D02*
X15650753Y-9974698D01*
X15650753Y-9974698D02*
X15631706Y-9984222D01*
X15631706Y-9984222D02*
X15622182Y-9993746D01*
X15622182Y-9993746D02*
X15612658Y-10012793D01*
X15612658Y-10012793D02*
X15612658Y-10050889D01*
X15612658Y-10050889D02*
X15622182Y-10069936D01*
X15622182Y-10069936D02*
X15631706Y-10079460D01*
X15631706Y-10079460D02*
X15650753Y-10088984D01*
X15650753Y-10088984D02*
X15688848Y-10088984D01*
X15688848Y-10088984D02*
X15707896Y-10079460D01*
X15707896Y-10079460D02*
X15717420Y-10069936D01*
X15717420Y-10069936D02*
X15726944Y-10050889D01*
X15726944Y-10050889D02*
X15726944Y-10012793D01*
X15726944Y-10012793D02*
X15717420Y-9993746D01*
X15717420Y-9993746D02*
X15707896Y-9984222D01*
X15707896Y-9984222D02*
X15688848Y-9974698D01*
X15803134Y-9888984D02*
X15803134Y-9927079D01*
X15879325Y-9888984D02*
X15879325Y-9927079D01*
X16174563Y-10165174D02*
X16165039Y-10155650D01*
X16165039Y-10155650D02*
X16145991Y-10127079D01*
X16145991Y-10127079D02*
X16136468Y-10108031D01*
X16136468Y-10108031D02*
X16126944Y-10079460D01*
X16126944Y-10079460D02*
X16117420Y-10031841D01*
X16117420Y-10031841D02*
X16117420Y-9993746D01*
X16117420Y-9993746D02*
X16126944Y-9946127D01*
X16126944Y-9946127D02*
X16136468Y-9917555D01*
X16136468Y-9917555D02*
X16145991Y-9898508D01*
X16145991Y-9898508D02*
X16165039Y-9869936D01*
X16165039Y-9869936D02*
X16174563Y-9860412D01*
X16355515Y-10088984D02*
X16241229Y-10088984D01*
X16298372Y-10088984D02*
X16298372Y-9888984D01*
X16298372Y-9888984D02*
X16279325Y-9917555D01*
X16279325Y-9917555D02*
X16260277Y-9936603D01*
X16260277Y-9936603D02*
X16241229Y-9946127D01*
X16479325Y-9888984D02*
X16498372Y-9888984D01*
X16498372Y-9888984D02*
X16517420Y-9898508D01*
X16517420Y-9898508D02*
X16526944Y-9908031D01*
X16526944Y-9908031D02*
X16536468Y-9927079D01*
X16536468Y-9927079D02*
X16545991Y-9965174D01*
X16545991Y-9965174D02*
X16545991Y-10012793D01*
X16545991Y-10012793D02*
X16536468Y-10050889D01*
X16536468Y-10050889D02*
X16526944Y-10069936D01*
X16526944Y-10069936D02*
X16517420Y-10079460D01*
X16517420Y-10079460D02*
X16498372Y-10088984D01*
X16498372Y-10088984D02*
X16479325Y-10088984D01*
X16479325Y-10088984D02*
X16460277Y-10079460D01*
X16460277Y-10079460D02*
X16450753Y-10069936D01*
X16450753Y-10069936D02*
X16441229Y-10050889D01*
X16441229Y-10050889D02*
X16431706Y-10012793D01*
X16431706Y-10012793D02*
X16431706Y-9965174D01*
X16431706Y-9965174D02*
X16441229Y-9927079D01*
X16441229Y-9927079D02*
X16450753Y-9908031D01*
X16450753Y-9908031D02*
X16460277Y-9898508D01*
X16460277Y-9898508D02*
X16479325Y-9888984D01*
X16784087Y-10088984D02*
X16784087Y-9888984D01*
X16869801Y-10088984D02*
X16869801Y-9984222D01*
X16869801Y-9984222D02*
X16860277Y-9965174D01*
X16860277Y-9965174D02*
X16841230Y-9955650D01*
X16841230Y-9955650D02*
X16812658Y-9955650D01*
X16812658Y-9955650D02*
X16793611Y-9965174D01*
X16793611Y-9965174D02*
X16784087Y-9974698D01*
X16993611Y-10088984D02*
X16974563Y-10079460D01*
X16974563Y-10079460D02*
X16965039Y-10069936D01*
X16965039Y-10069936D02*
X16955515Y-10050889D01*
X16955515Y-10050889D02*
X16955515Y-9993746D01*
X16955515Y-9993746D02*
X16965039Y-9974698D01*
X16965039Y-9974698D02*
X16974563Y-9965174D01*
X16974563Y-9965174D02*
X16993611Y-9955650D01*
X16993611Y-9955650D02*
X17022182Y-9955650D01*
X17022182Y-9955650D02*
X17041230Y-9965174D01*
X17041230Y-9965174D02*
X17050753Y-9974698D01*
X17050753Y-9974698D02*
X17060277Y-9993746D01*
X17060277Y-9993746D02*
X17060277Y-10050889D01*
X17060277Y-10050889D02*
X17050753Y-10069936D01*
X17050753Y-10069936D02*
X17041230Y-10079460D01*
X17041230Y-10079460D02*
X17022182Y-10088984D01*
X17022182Y-10088984D02*
X16993611Y-10088984D01*
X17174563Y-10088984D02*
X17155515Y-10079460D01*
X17155515Y-10079460D02*
X17145992Y-10060412D01*
X17145992Y-10060412D02*
X17145992Y-9888984D01*
X17326944Y-10079460D02*
X17307896Y-10088984D01*
X17307896Y-10088984D02*
X17269801Y-10088984D01*
X17269801Y-10088984D02*
X17250753Y-10079460D01*
X17250753Y-10079460D02*
X17241230Y-10060412D01*
X17241230Y-10060412D02*
X17241230Y-9984222D01*
X17241230Y-9984222D02*
X17250753Y-9965174D01*
X17250753Y-9965174D02*
X17269801Y-9955650D01*
X17269801Y-9955650D02*
X17307896Y-9955650D01*
X17307896Y-9955650D02*
X17326944Y-9965174D01*
X17326944Y-9965174D02*
X17336468Y-9984222D01*
X17336468Y-9984222D02*
X17336468Y-10003270D01*
X17336468Y-10003270D02*
X17241230Y-10022317D01*
X17412658Y-10079460D02*
X17431706Y-10088984D01*
X17431706Y-10088984D02*
X17469801Y-10088984D01*
X17469801Y-10088984D02*
X17488849Y-10079460D01*
X17488849Y-10079460D02*
X17498373Y-10060412D01*
X17498373Y-10060412D02*
X17498373Y-10050889D01*
X17498373Y-10050889D02*
X17488849Y-10031841D01*
X17488849Y-10031841D02*
X17469801Y-10022317D01*
X17469801Y-10022317D02*
X17441230Y-10022317D01*
X17441230Y-10022317D02*
X17422182Y-10012793D01*
X17422182Y-10012793D02*
X17412658Y-9993746D01*
X17412658Y-9993746D02*
X17412658Y-9984222D01*
X17412658Y-9984222D02*
X17422182Y-9965174D01*
X17422182Y-9965174D02*
X17441230Y-9955650D01*
X17441230Y-9955650D02*
X17469801Y-9955650D01*
X17469801Y-9955650D02*
X17488849Y-9965174D01*
X17565039Y-10165174D02*
X17574563Y-10155650D01*
X17574563Y-10155650D02*
X17593611Y-10127079D01*
X17593611Y-10127079D02*
X17603134Y-10108031D01*
X17603134Y-10108031D02*
X17612658Y-10079460D01*
X17612658Y-10079460D02*
X17622182Y-10031841D01*
X17622182Y-10031841D02*
X17622182Y-9993746D01*
X17622182Y-9993746D02*
X17612658Y-9946127D01*
X17612658Y-9946127D02*
X17603134Y-9917555D01*
X17603134Y-9917555D02*
X17593611Y-9898508D01*
X17593611Y-9898508D02*
X17574563Y-9869936D01*
X17574563Y-9869936D02*
X17565039Y-9860412D01*
D12*
X12599500Y-10261500D02*
G75*
G02*
X12499500Y-10261500I-50000J0D01*
G01*
X12499500Y-10261500D02*
G75*
G02*
X12599500Y-10261500I50000J0D01*
G01*
D11*
X12965039Y-10352984D02*
X12850753Y-10352984D01*
X12907896Y-10352984D02*
X12907896Y-10152984D01*
X12907896Y-10152984D02*
X12888848Y-10181555D01*
X12888848Y-10181555D02*
X12869801Y-10200603D01*
X12869801Y-10200603D02*
X12850753Y-10210127D01*
X13050753Y-10333936D02*
X13060277Y-10343460D01*
X13060277Y-10343460D02*
X13050753Y-10352984D01*
X13050753Y-10352984D02*
X13041229Y-10343460D01*
X13041229Y-10343460D02*
X13050753Y-10333936D01*
X13050753Y-10333936D02*
X13050753Y-10352984D01*
X13184086Y-10152984D02*
X13203134Y-10152984D01*
X13203134Y-10152984D02*
X13222182Y-10162508D01*
X13222182Y-10162508D02*
X13231705Y-10172031D01*
X13231705Y-10172031D02*
X13241229Y-10191079D01*
X13241229Y-10191079D02*
X13250753Y-10229174D01*
X13250753Y-10229174D02*
X13250753Y-10276793D01*
X13250753Y-10276793D02*
X13241229Y-10314889D01*
X13241229Y-10314889D02*
X13231705Y-10333936D01*
X13231705Y-10333936D02*
X13222182Y-10343460D01*
X13222182Y-10343460D02*
X13203134Y-10352984D01*
X13203134Y-10352984D02*
X13184086Y-10352984D01*
X13184086Y-10352984D02*
X13165039Y-10343460D01*
X13165039Y-10343460D02*
X13155515Y-10333936D01*
X13155515Y-10333936D02*
X13145991Y-10314889D01*
X13145991Y-10314889D02*
X13136467Y-10276793D01*
X13136467Y-10276793D02*
X13136467Y-10229174D01*
X13136467Y-10229174D02*
X13145991Y-10191079D01*
X13145991Y-10191079D02*
X13155515Y-10172031D01*
X13155515Y-10172031D02*
X13165039Y-10162508D01*
X13165039Y-10162508D02*
X13184086Y-10152984D01*
X13374562Y-10152984D02*
X13393610Y-10152984D01*
X13393610Y-10152984D02*
X13412658Y-10162508D01*
X13412658Y-10162508D02*
X13422182Y-10172031D01*
X13422182Y-10172031D02*
X13431705Y-10191079D01*
X13431705Y-10191079D02*
X13441229Y-10229174D01*
X13441229Y-10229174D02*
X13441229Y-10276793D01*
X13441229Y-10276793D02*
X13431705Y-10314889D01*
X13431705Y-10314889D02*
X13422182Y-10333936D01*
X13422182Y-10333936D02*
X13412658Y-10343460D01*
X13412658Y-10343460D02*
X13393610Y-10352984D01*
X13393610Y-10352984D02*
X13374562Y-10352984D01*
X13374562Y-10352984D02*
X13355515Y-10343460D01*
X13355515Y-10343460D02*
X13345991Y-10333936D01*
X13345991Y-10333936D02*
X13336467Y-10314889D01*
X13336467Y-10314889D02*
X13326943Y-10276793D01*
X13326943Y-10276793D02*
X13326943Y-10229174D01*
X13326943Y-10229174D02*
X13336467Y-10191079D01*
X13336467Y-10191079D02*
X13345991Y-10172031D01*
X13345991Y-10172031D02*
X13355515Y-10162508D01*
X13355515Y-10162508D02*
X13374562Y-10152984D01*
X13565039Y-10152984D02*
X13584086Y-10152984D01*
X13584086Y-10152984D02*
X13603134Y-10162508D01*
X13603134Y-10162508D02*
X13612658Y-10172031D01*
X13612658Y-10172031D02*
X13622182Y-10191079D01*
X13622182Y-10191079D02*
X13631705Y-10229174D01*
X13631705Y-10229174D02*
X13631705Y-10276793D01*
X13631705Y-10276793D02*
X13622182Y-10314889D01*
X13622182Y-10314889D02*
X13612658Y-10333936D01*
X13612658Y-10333936D02*
X13603134Y-10343460D01*
X13603134Y-10343460D02*
X13584086Y-10352984D01*
X13584086Y-10352984D02*
X13565039Y-10352984D01*
X13565039Y-10352984D02*
X13545991Y-10343460D01*
X13545991Y-10343460D02*
X13536467Y-10333936D01*
X13536467Y-10333936D02*
X13526943Y-10314889D01*
X13526943Y-10314889D02*
X13517420Y-10276793D01*
X13517420Y-10276793D02*
X13517420Y-10229174D01*
X13517420Y-10229174D02*
X13526943Y-10191079D01*
X13526943Y-10191079D02*
X13536467Y-10172031D01*
X13536467Y-10172031D02*
X13545991Y-10162508D01*
X13545991Y-10162508D02*
X13565039Y-10152984D01*
X13717420Y-10352984D02*
X13717420Y-10219650D01*
X13717420Y-10238698D02*
X13726943Y-10229174D01*
X13726943Y-10229174D02*
X13745991Y-10219650D01*
X13745991Y-10219650D02*
X13774563Y-10219650D01*
X13774563Y-10219650D02*
X13793610Y-10229174D01*
X13793610Y-10229174D02*
X13803134Y-10248222D01*
X13803134Y-10248222D02*
X13803134Y-10352984D01*
X13803134Y-10248222D02*
X13812658Y-10229174D01*
X13812658Y-10229174D02*
X13831705Y-10219650D01*
X13831705Y-10219650D02*
X13860277Y-10219650D01*
X13860277Y-10219650D02*
X13879324Y-10229174D01*
X13879324Y-10229174D02*
X13888848Y-10248222D01*
X13888848Y-10248222D02*
X13888848Y-10352984D01*
X13984086Y-10352984D02*
X13984086Y-10219650D01*
X13984086Y-10238698D02*
X13993610Y-10229174D01*
X13993610Y-10229174D02*
X14012658Y-10219650D01*
X14012658Y-10219650D02*
X14041229Y-10219650D01*
X14041229Y-10219650D02*
X14060277Y-10229174D01*
X14060277Y-10229174D02*
X14069801Y-10248222D01*
X14069801Y-10248222D02*
X14069801Y-10352984D01*
X14069801Y-10248222D02*
X14079324Y-10229174D01*
X14079324Y-10229174D02*
X14098372Y-10219650D01*
X14098372Y-10219650D02*
X14126943Y-10219650D01*
X14126943Y-10219650D02*
X14145991Y-10229174D01*
X14145991Y-10229174D02*
X14155515Y-10248222D01*
X14155515Y-10248222D02*
X14155515Y-10352984D01*
X14545991Y-10143460D02*
X14374563Y-10400603D01*
X14803134Y-10152984D02*
X14822182Y-10152984D01*
X14822182Y-10152984D02*
X14841229Y-10162508D01*
X14841229Y-10162508D02*
X14850753Y-10172031D01*
X14850753Y-10172031D02*
X14860277Y-10191079D01*
X14860277Y-10191079D02*
X14869801Y-10229174D01*
X14869801Y-10229174D02*
X14869801Y-10276793D01*
X14869801Y-10276793D02*
X14860277Y-10314889D01*
X14860277Y-10314889D02*
X14850753Y-10333936D01*
X14850753Y-10333936D02*
X14841229Y-10343460D01*
X14841229Y-10343460D02*
X14822182Y-10352984D01*
X14822182Y-10352984D02*
X14803134Y-10352984D01*
X14803134Y-10352984D02*
X14784086Y-10343460D01*
X14784086Y-10343460D02*
X14774563Y-10333936D01*
X14774563Y-10333936D02*
X14765039Y-10314889D01*
X14765039Y-10314889D02*
X14755515Y-10276793D01*
X14755515Y-10276793D02*
X14755515Y-10229174D01*
X14755515Y-10229174D02*
X14765039Y-10191079D01*
X14765039Y-10191079D02*
X14774563Y-10172031D01*
X14774563Y-10172031D02*
X14784086Y-10162508D01*
X14784086Y-10162508D02*
X14803134Y-10152984D01*
X14955515Y-10333936D02*
X14965039Y-10343460D01*
X14965039Y-10343460D02*
X14955515Y-10352984D01*
X14955515Y-10352984D02*
X14945991Y-10343460D01*
X14945991Y-10343460D02*
X14955515Y-10333936D01*
X14955515Y-10333936D02*
X14955515Y-10352984D01*
X15088848Y-10152984D02*
X15107896Y-10152984D01*
X15107896Y-10152984D02*
X15126944Y-10162508D01*
X15126944Y-10162508D02*
X15136467Y-10172031D01*
X15136467Y-10172031D02*
X15145991Y-10191079D01*
X15145991Y-10191079D02*
X15155515Y-10229174D01*
X15155515Y-10229174D02*
X15155515Y-10276793D01*
X15155515Y-10276793D02*
X15145991Y-10314889D01*
X15145991Y-10314889D02*
X15136467Y-10333936D01*
X15136467Y-10333936D02*
X15126944Y-10343460D01*
X15126944Y-10343460D02*
X15107896Y-10352984D01*
X15107896Y-10352984D02*
X15088848Y-10352984D01*
X15088848Y-10352984D02*
X15069801Y-10343460D01*
X15069801Y-10343460D02*
X15060277Y-10333936D01*
X15060277Y-10333936D02*
X15050753Y-10314889D01*
X15050753Y-10314889D02*
X15041229Y-10276793D01*
X15041229Y-10276793D02*
X15041229Y-10229174D01*
X15041229Y-10229174D02*
X15050753Y-10191079D01*
X15050753Y-10191079D02*
X15060277Y-10172031D01*
X15060277Y-10172031D02*
X15069801Y-10162508D01*
X15069801Y-10162508D02*
X15088848Y-10152984D01*
X15222182Y-10152984D02*
X15345991Y-10152984D01*
X15345991Y-10152984D02*
X15279325Y-10229174D01*
X15279325Y-10229174D02*
X15307896Y-10229174D01*
X15307896Y-10229174D02*
X15326944Y-10238698D01*
X15326944Y-10238698D02*
X15336467Y-10248222D01*
X15336467Y-10248222D02*
X15345991Y-10267270D01*
X15345991Y-10267270D02*
X15345991Y-10314889D01*
X15345991Y-10314889D02*
X15336467Y-10333936D01*
X15336467Y-10333936D02*
X15326944Y-10343460D01*
X15326944Y-10343460D02*
X15307896Y-10352984D01*
X15307896Y-10352984D02*
X15250753Y-10352984D01*
X15250753Y-10352984D02*
X15231706Y-10343460D01*
X15231706Y-10343460D02*
X15222182Y-10333936D01*
X15441229Y-10352984D02*
X15479325Y-10352984D01*
X15479325Y-10352984D02*
X15498372Y-10343460D01*
X15498372Y-10343460D02*
X15507896Y-10333936D01*
X15507896Y-10333936D02*
X15526944Y-10305365D01*
X15526944Y-10305365D02*
X15536467Y-10267270D01*
X15536467Y-10267270D02*
X15536467Y-10191079D01*
X15536467Y-10191079D02*
X15526944Y-10172031D01*
X15526944Y-10172031D02*
X15517420Y-10162508D01*
X15517420Y-10162508D02*
X15498372Y-10152984D01*
X15498372Y-10152984D02*
X15460277Y-10152984D01*
X15460277Y-10152984D02*
X15441229Y-10162508D01*
X15441229Y-10162508D02*
X15431706Y-10172031D01*
X15431706Y-10172031D02*
X15422182Y-10191079D01*
X15422182Y-10191079D02*
X15422182Y-10238698D01*
X15422182Y-10238698D02*
X15431706Y-10257746D01*
X15431706Y-10257746D02*
X15441229Y-10267270D01*
X15441229Y-10267270D02*
X15460277Y-10276793D01*
X15460277Y-10276793D02*
X15498372Y-10276793D01*
X15498372Y-10276793D02*
X15517420Y-10267270D01*
X15517420Y-10267270D02*
X15526944Y-10257746D01*
X15526944Y-10257746D02*
X15536467Y-10238698D01*
X15707896Y-10219650D02*
X15707896Y-10352984D01*
X15660277Y-10143460D02*
X15612658Y-10286317D01*
X15612658Y-10286317D02*
X15736467Y-10286317D01*
X15803134Y-10152984D02*
X15803134Y-10191079D01*
X15879325Y-10152984D02*
X15879325Y-10191079D01*
X16174563Y-10429174D02*
X16165039Y-10419650D01*
X16165039Y-10419650D02*
X16145991Y-10391079D01*
X16145991Y-10391079D02*
X16136468Y-10372031D01*
X16136468Y-10372031D02*
X16126944Y-10343460D01*
X16126944Y-10343460D02*
X16117420Y-10295841D01*
X16117420Y-10295841D02*
X16117420Y-10257746D01*
X16117420Y-10257746D02*
X16126944Y-10210127D01*
X16126944Y-10210127D02*
X16136468Y-10181555D01*
X16136468Y-10181555D02*
X16145991Y-10162508D01*
X16145991Y-10162508D02*
X16165039Y-10133936D01*
X16165039Y-10133936D02*
X16174563Y-10124412D01*
X16336468Y-10152984D02*
X16298372Y-10152984D01*
X16298372Y-10152984D02*
X16279325Y-10162508D01*
X16279325Y-10162508D02*
X16269801Y-10172031D01*
X16269801Y-10172031D02*
X16250753Y-10200603D01*
X16250753Y-10200603D02*
X16241229Y-10238698D01*
X16241229Y-10238698D02*
X16241229Y-10314889D01*
X16241229Y-10314889D02*
X16250753Y-10333936D01*
X16250753Y-10333936D02*
X16260277Y-10343460D01*
X16260277Y-10343460D02*
X16279325Y-10352984D01*
X16279325Y-10352984D02*
X16317420Y-10352984D01*
X16317420Y-10352984D02*
X16336468Y-10343460D01*
X16336468Y-10343460D02*
X16345991Y-10333936D01*
X16345991Y-10333936D02*
X16355515Y-10314889D01*
X16355515Y-10314889D02*
X16355515Y-10267270D01*
X16355515Y-10267270D02*
X16345991Y-10248222D01*
X16345991Y-10248222D02*
X16336468Y-10238698D01*
X16336468Y-10238698D02*
X16317420Y-10229174D01*
X16317420Y-10229174D02*
X16279325Y-10229174D01*
X16279325Y-10229174D02*
X16260277Y-10238698D01*
X16260277Y-10238698D02*
X16250753Y-10248222D01*
X16250753Y-10248222D02*
X16241229Y-10267270D01*
X16593610Y-10352984D02*
X16593610Y-10152984D01*
X16679325Y-10352984D02*
X16679325Y-10248222D01*
X16679325Y-10248222D02*
X16669801Y-10229174D01*
X16669801Y-10229174D02*
X16650753Y-10219650D01*
X16650753Y-10219650D02*
X16622182Y-10219650D01*
X16622182Y-10219650D02*
X16603134Y-10229174D01*
X16603134Y-10229174D02*
X16593610Y-10238698D01*
X16803134Y-10352984D02*
X16784087Y-10343460D01*
X16784087Y-10343460D02*
X16774563Y-10333936D01*
X16774563Y-10333936D02*
X16765039Y-10314889D01*
X16765039Y-10314889D02*
X16765039Y-10257746D01*
X16765039Y-10257746D02*
X16774563Y-10238698D01*
X16774563Y-10238698D02*
X16784087Y-10229174D01*
X16784087Y-10229174D02*
X16803134Y-10219650D01*
X16803134Y-10219650D02*
X16831706Y-10219650D01*
X16831706Y-10219650D02*
X16850753Y-10229174D01*
X16850753Y-10229174D02*
X16860277Y-10238698D01*
X16860277Y-10238698D02*
X16869801Y-10257746D01*
X16869801Y-10257746D02*
X16869801Y-10314889D01*
X16869801Y-10314889D02*
X16860277Y-10333936D01*
X16860277Y-10333936D02*
X16850753Y-10343460D01*
X16850753Y-10343460D02*
X16831706Y-10352984D01*
X16831706Y-10352984D02*
X16803134Y-10352984D01*
X16984087Y-10352984D02*
X16965039Y-10343460D01*
X16965039Y-10343460D02*
X16955515Y-10324412D01*
X16955515Y-10324412D02*
X16955515Y-10152984D01*
X17136468Y-10343460D02*
X17117420Y-10352984D01*
X17117420Y-10352984D02*
X17079325Y-10352984D01*
X17079325Y-10352984D02*
X17060277Y-10343460D01*
X17060277Y-10343460D02*
X17050753Y-10324412D01*
X17050753Y-10324412D02*
X17050753Y-10248222D01*
X17050753Y-10248222D02*
X17060277Y-10229174D01*
X17060277Y-10229174D02*
X17079325Y-10219650D01*
X17079325Y-10219650D02*
X17117420Y-10219650D01*
X17117420Y-10219650D02*
X17136468Y-10229174D01*
X17136468Y-10229174D02*
X17145992Y-10248222D01*
X17145992Y-10248222D02*
X17145992Y-10267270D01*
X17145992Y-10267270D02*
X17050753Y-10286317D01*
X17222182Y-10343460D02*
X17241230Y-10352984D01*
X17241230Y-10352984D02*
X17279325Y-10352984D01*
X17279325Y-10352984D02*
X17298373Y-10343460D01*
X17298373Y-10343460D02*
X17307896Y-10324412D01*
X17307896Y-10324412D02*
X17307896Y-10314889D01*
X17307896Y-10314889D02*
X17298373Y-10295841D01*
X17298373Y-10295841D02*
X17279325Y-10286317D01*
X17279325Y-10286317D02*
X17250753Y-10286317D01*
X17250753Y-10286317D02*
X17231706Y-10276793D01*
X17231706Y-10276793D02*
X17222182Y-10257746D01*
X17222182Y-10257746D02*
X17222182Y-10248222D01*
X17222182Y-10248222D02*
X17231706Y-10229174D01*
X17231706Y-10229174D02*
X17250753Y-10219650D01*
X17250753Y-10219650D02*
X17279325Y-10219650D01*
X17279325Y-10219650D02*
X17298373Y-10229174D01*
X17374563Y-10429174D02*
X17384087Y-10419650D01*
X17384087Y-10419650D02*
X17403134Y-10391079D01*
X17403134Y-10391079D02*
X17412658Y-10372031D01*
X17412658Y-10372031D02*
X17422182Y-10343460D01*
X17422182Y-10343460D02*
X17431706Y-10295841D01*
X17431706Y-10295841D02*
X17431706Y-10257746D01*
X17431706Y-10257746D02*
X17422182Y-10210127D01*
X17422182Y-10210127D02*
X17412658Y-10181555D01*
X17412658Y-10181555D02*
X17403134Y-10162508D01*
X17403134Y-10162508D02*
X17384087Y-10133936D01*
X17384087Y-10133936D02*
X17374563Y-10124412D01*
M02*
