%TF.GenerationSoftware,KiCad,Pcbnew,9.0.6*%
%TF.CreationDate,2026-01-18T05:45:19-03:00*%
%TF.ProjectId,dual IMU_moduleV2,6475616c-2049-44d5-955f-6d6f64756c65,rev?*%
%TF.SameCoordinates,Original*%
%TF.FileFunction,Legend,Top*%
%TF.FilePolarity,Positive*%
%FSLAX46Y46*%
G04 Gerber Fmt 4.6, Leading zero omitted, Abs format (unit mm)*
G04 Created by KiCad (PCBNEW 9.0.6) date 2026-01-18 05:45:19*
%MOMM*%
%LPD*%
G01*
G04 APERTURE LIST*
%ADD10C,0.100000*%
%ADD11C,0.150000*%
%ADD12C,0.120000*%
%ADD13C,0.000000*%
G04 APERTURE END LIST*
D10*
X134576265Y-91558940D02*
X134576265Y-90758940D01*
X134576265Y-90758940D02*
X134766741Y-90758940D01*
X134766741Y-90758940D02*
X134881027Y-90797035D01*
X134881027Y-90797035D02*
X134957217Y-90873225D01*
X134957217Y-90873225D02*
X134995312Y-90949416D01*
X134995312Y-90949416D02*
X135033408Y-91101797D01*
X135033408Y-91101797D02*
X135033408Y-91216083D01*
X135033408Y-91216083D02*
X134995312Y-91368464D01*
X134995312Y-91368464D02*
X134957217Y-91444654D01*
X134957217Y-91444654D02*
X134881027Y-91520845D01*
X134881027Y-91520845D02*
X134766741Y-91558940D01*
X134766741Y-91558940D02*
X134576265Y-91558940D01*
X135719122Y-91025606D02*
X135719122Y-91558940D01*
X135376265Y-91025606D02*
X135376265Y-91444654D01*
X135376265Y-91444654D02*
X135414360Y-91520845D01*
X135414360Y-91520845D02*
X135490550Y-91558940D01*
X135490550Y-91558940D02*
X135604836Y-91558940D01*
X135604836Y-91558940D02*
X135681027Y-91520845D01*
X135681027Y-91520845D02*
X135719122Y-91482749D01*
X136442932Y-91558940D02*
X136442932Y-91139892D01*
X136442932Y-91139892D02*
X136404837Y-91063702D01*
X136404837Y-91063702D02*
X136328646Y-91025606D01*
X136328646Y-91025606D02*
X136176265Y-91025606D01*
X136176265Y-91025606D02*
X136100075Y-91063702D01*
X136442932Y-91520845D02*
X136366741Y-91558940D01*
X136366741Y-91558940D02*
X136176265Y-91558940D01*
X136176265Y-91558940D02*
X136100075Y-91520845D01*
X136100075Y-91520845D02*
X136061979Y-91444654D01*
X136061979Y-91444654D02*
X136061979Y-91368464D01*
X136061979Y-91368464D02*
X136100075Y-91292273D01*
X136100075Y-91292273D02*
X136176265Y-91254178D01*
X136176265Y-91254178D02*
X136366741Y-91254178D01*
X136366741Y-91254178D02*
X136442932Y-91216083D01*
X136938170Y-91558940D02*
X136861980Y-91520845D01*
X136861980Y-91520845D02*
X136823885Y-91444654D01*
X136823885Y-91444654D02*
X136823885Y-90758940D01*
X137852457Y-91558940D02*
X137852457Y-90758940D01*
X138233409Y-91558940D02*
X138233409Y-90758940D01*
X138233409Y-90758940D02*
X138500075Y-91330368D01*
X138500075Y-91330368D02*
X138766742Y-90758940D01*
X138766742Y-90758940D02*
X138766742Y-91558940D01*
X139147695Y-90758940D02*
X139147695Y-91406559D01*
X139147695Y-91406559D02*
X139185790Y-91482749D01*
X139185790Y-91482749D02*
X139223885Y-91520845D01*
X139223885Y-91520845D02*
X139300076Y-91558940D01*
X139300076Y-91558940D02*
X139452457Y-91558940D01*
X139452457Y-91558940D02*
X139528647Y-91520845D01*
X139528647Y-91520845D02*
X139566742Y-91482749D01*
X139566742Y-91482749D02*
X139604838Y-91406559D01*
X139604838Y-91406559D02*
X139604838Y-90758940D01*
X140481028Y-90758940D02*
X140938171Y-90758940D01*
X140709599Y-91558940D02*
X140709599Y-90758940D01*
X141509600Y-91520845D02*
X141433409Y-91558940D01*
X141433409Y-91558940D02*
X141281028Y-91558940D01*
X141281028Y-91558940D02*
X141204838Y-91520845D01*
X141204838Y-91520845D02*
X141166742Y-91444654D01*
X141166742Y-91444654D02*
X141166742Y-91139892D01*
X141166742Y-91139892D02*
X141204838Y-91063702D01*
X141204838Y-91063702D02*
X141281028Y-91025606D01*
X141281028Y-91025606D02*
X141433409Y-91025606D01*
X141433409Y-91025606D02*
X141509600Y-91063702D01*
X141509600Y-91063702D02*
X141547695Y-91139892D01*
X141547695Y-91139892D02*
X141547695Y-91216083D01*
X141547695Y-91216083D02*
X141166742Y-91292273D01*
X141852456Y-91520845D02*
X141928647Y-91558940D01*
X141928647Y-91558940D02*
X142081028Y-91558940D01*
X142081028Y-91558940D02*
X142157218Y-91520845D01*
X142157218Y-91520845D02*
X142195314Y-91444654D01*
X142195314Y-91444654D02*
X142195314Y-91406559D01*
X142195314Y-91406559D02*
X142157218Y-91330368D01*
X142157218Y-91330368D02*
X142081028Y-91292273D01*
X142081028Y-91292273D02*
X141966742Y-91292273D01*
X141966742Y-91292273D02*
X141890552Y-91254178D01*
X141890552Y-91254178D02*
X141852456Y-91177987D01*
X141852456Y-91177987D02*
X141852456Y-91139892D01*
X141852456Y-91139892D02*
X141890552Y-91063702D01*
X141890552Y-91063702D02*
X141966742Y-91025606D01*
X141966742Y-91025606D02*
X142081028Y-91025606D01*
X142081028Y-91025606D02*
X142157218Y-91063702D01*
X142423885Y-91025606D02*
X142728647Y-91025606D01*
X142538171Y-90758940D02*
X142538171Y-91444654D01*
X142538171Y-91444654D02*
X142576266Y-91520845D01*
X142576266Y-91520845D02*
X142652456Y-91558940D01*
X142652456Y-91558940D02*
X142728647Y-91558940D01*
X142995314Y-91558940D02*
X142995314Y-91025606D01*
X142995314Y-90758940D02*
X142957218Y-90797035D01*
X142957218Y-90797035D02*
X142995314Y-90835130D01*
X142995314Y-90835130D02*
X143033409Y-90797035D01*
X143033409Y-90797035D02*
X142995314Y-90758940D01*
X142995314Y-90758940D02*
X142995314Y-90835130D01*
X143376266Y-91025606D02*
X143376266Y-91558940D01*
X143376266Y-91101797D02*
X143414361Y-91063702D01*
X143414361Y-91063702D02*
X143490551Y-91025606D01*
X143490551Y-91025606D02*
X143604837Y-91025606D01*
X143604837Y-91025606D02*
X143681028Y-91063702D01*
X143681028Y-91063702D02*
X143719123Y-91139892D01*
X143719123Y-91139892D02*
X143719123Y-91558940D01*
X144442933Y-91025606D02*
X144442933Y-91673225D01*
X144442933Y-91673225D02*
X144404838Y-91749416D01*
X144404838Y-91749416D02*
X144366742Y-91787511D01*
X144366742Y-91787511D02*
X144290552Y-91825606D01*
X144290552Y-91825606D02*
X144176266Y-91825606D01*
X144176266Y-91825606D02*
X144100076Y-91787511D01*
X144442933Y-91520845D02*
X144366742Y-91558940D01*
X144366742Y-91558940D02*
X144214361Y-91558940D01*
X144214361Y-91558940D02*
X144138171Y-91520845D01*
X144138171Y-91520845D02*
X144100076Y-91482749D01*
X144100076Y-91482749D02*
X144061980Y-91406559D01*
X144061980Y-91406559D02*
X144061980Y-91177987D01*
X144061980Y-91177987D02*
X144100076Y-91101797D01*
X144100076Y-91101797D02*
X144138171Y-91063702D01*
X144138171Y-91063702D02*
X144214361Y-91025606D01*
X144214361Y-91025606D02*
X144366742Y-91025606D01*
X144366742Y-91025606D02*
X144442933Y-91063702D01*
X145319124Y-90758940D02*
X145585791Y-91558940D01*
X145585791Y-91558940D02*
X145852457Y-90758940D01*
X146081028Y-90835130D02*
X146119124Y-90797035D01*
X146119124Y-90797035D02*
X146195314Y-90758940D01*
X146195314Y-90758940D02*
X146385790Y-90758940D01*
X146385790Y-90758940D02*
X146461981Y-90797035D01*
X146461981Y-90797035D02*
X146500076Y-90835130D01*
X146500076Y-90835130D02*
X146538171Y-90911321D01*
X146538171Y-90911321D02*
X146538171Y-90987511D01*
X146538171Y-90987511D02*
X146500076Y-91101797D01*
X146500076Y-91101797D02*
X146042933Y-91558940D01*
X146042933Y-91558940D02*
X146538171Y-91558940D01*
X135033408Y-92770704D02*
X134995312Y-92808800D01*
X134995312Y-92808800D02*
X134881027Y-92846895D01*
X134881027Y-92846895D02*
X134804836Y-92846895D01*
X134804836Y-92846895D02*
X134690550Y-92808800D01*
X134690550Y-92808800D02*
X134614360Y-92732609D01*
X134614360Y-92732609D02*
X134576265Y-92656419D01*
X134576265Y-92656419D02*
X134538169Y-92504038D01*
X134538169Y-92504038D02*
X134538169Y-92389752D01*
X134538169Y-92389752D02*
X134576265Y-92237371D01*
X134576265Y-92237371D02*
X134614360Y-92161180D01*
X134614360Y-92161180D02*
X134690550Y-92084990D01*
X134690550Y-92084990D02*
X134804836Y-92046895D01*
X134804836Y-92046895D02*
X134881027Y-92046895D01*
X134881027Y-92046895D02*
X134995312Y-92084990D01*
X134995312Y-92084990D02*
X135033408Y-92123085D01*
X135376265Y-92846895D02*
X135376265Y-92313561D01*
X135376265Y-92465942D02*
X135414360Y-92389752D01*
X135414360Y-92389752D02*
X135452455Y-92351657D01*
X135452455Y-92351657D02*
X135528646Y-92313561D01*
X135528646Y-92313561D02*
X135604836Y-92313561D01*
X135871503Y-92846895D02*
X135871503Y-92313561D01*
X135871503Y-92046895D02*
X135833407Y-92084990D01*
X135833407Y-92084990D02*
X135871503Y-92123085D01*
X135871503Y-92123085D02*
X135909598Y-92084990D01*
X135909598Y-92084990D02*
X135871503Y-92046895D01*
X135871503Y-92046895D02*
X135871503Y-92123085D01*
X136214359Y-92808800D02*
X136290550Y-92846895D01*
X136290550Y-92846895D02*
X136442931Y-92846895D01*
X136442931Y-92846895D02*
X136519121Y-92808800D01*
X136519121Y-92808800D02*
X136557217Y-92732609D01*
X136557217Y-92732609D02*
X136557217Y-92694514D01*
X136557217Y-92694514D02*
X136519121Y-92618323D01*
X136519121Y-92618323D02*
X136442931Y-92580228D01*
X136442931Y-92580228D02*
X136328645Y-92580228D01*
X136328645Y-92580228D02*
X136252455Y-92542133D01*
X136252455Y-92542133D02*
X136214359Y-92465942D01*
X136214359Y-92465942D02*
X136214359Y-92427847D01*
X136214359Y-92427847D02*
X136252455Y-92351657D01*
X136252455Y-92351657D02*
X136328645Y-92313561D01*
X136328645Y-92313561D02*
X136442931Y-92313561D01*
X136442931Y-92313561D02*
X136519121Y-92351657D01*
X136785788Y-92313561D02*
X137090550Y-92313561D01*
X136900074Y-92046895D02*
X136900074Y-92732609D01*
X136900074Y-92732609D02*
X136938169Y-92808800D01*
X136938169Y-92808800D02*
X137014359Y-92846895D01*
X137014359Y-92846895D02*
X137090550Y-92846895D01*
X137357217Y-92846895D02*
X137357217Y-92313561D01*
X137357217Y-92046895D02*
X137319121Y-92084990D01*
X137319121Y-92084990D02*
X137357217Y-92123085D01*
X137357217Y-92123085D02*
X137395312Y-92084990D01*
X137395312Y-92084990D02*
X137357217Y-92046895D01*
X137357217Y-92046895D02*
X137357217Y-92123085D01*
X138081026Y-92846895D02*
X138081026Y-92427847D01*
X138081026Y-92427847D02*
X138042931Y-92351657D01*
X138042931Y-92351657D02*
X137966740Y-92313561D01*
X137966740Y-92313561D02*
X137814359Y-92313561D01*
X137814359Y-92313561D02*
X137738169Y-92351657D01*
X138081026Y-92808800D02*
X138004835Y-92846895D01*
X138004835Y-92846895D02*
X137814359Y-92846895D01*
X137814359Y-92846895D02*
X137738169Y-92808800D01*
X137738169Y-92808800D02*
X137700073Y-92732609D01*
X137700073Y-92732609D02*
X137700073Y-92656419D01*
X137700073Y-92656419D02*
X137738169Y-92580228D01*
X137738169Y-92580228D02*
X137814359Y-92542133D01*
X137814359Y-92542133D02*
X138004835Y-92542133D01*
X138004835Y-92542133D02*
X138081026Y-92504038D01*
X138461979Y-92313561D02*
X138461979Y-92846895D01*
X138461979Y-92389752D02*
X138500074Y-92351657D01*
X138500074Y-92351657D02*
X138576264Y-92313561D01*
X138576264Y-92313561D02*
X138690550Y-92313561D01*
X138690550Y-92313561D02*
X138766741Y-92351657D01*
X138766741Y-92351657D02*
X138804836Y-92427847D01*
X138804836Y-92427847D02*
X138804836Y-92846895D01*
X140252456Y-92770704D02*
X140214360Y-92808800D01*
X140214360Y-92808800D02*
X140100075Y-92846895D01*
X140100075Y-92846895D02*
X140023884Y-92846895D01*
X140023884Y-92846895D02*
X139909598Y-92808800D01*
X139909598Y-92808800D02*
X139833408Y-92732609D01*
X139833408Y-92732609D02*
X139795313Y-92656419D01*
X139795313Y-92656419D02*
X139757217Y-92504038D01*
X139757217Y-92504038D02*
X139757217Y-92389752D01*
X139757217Y-92389752D02*
X139795313Y-92237371D01*
X139795313Y-92237371D02*
X139833408Y-92161180D01*
X139833408Y-92161180D02*
X139909598Y-92084990D01*
X139909598Y-92084990D02*
X140023884Y-92046895D01*
X140023884Y-92046895D02*
X140100075Y-92046895D01*
X140100075Y-92046895D02*
X140214360Y-92084990D01*
X140214360Y-92084990D02*
X140252456Y-92123085D01*
X140938170Y-92846895D02*
X140938170Y-92427847D01*
X140938170Y-92427847D02*
X140900075Y-92351657D01*
X140900075Y-92351657D02*
X140823884Y-92313561D01*
X140823884Y-92313561D02*
X140671503Y-92313561D01*
X140671503Y-92313561D02*
X140595313Y-92351657D01*
X140938170Y-92808800D02*
X140861979Y-92846895D01*
X140861979Y-92846895D02*
X140671503Y-92846895D01*
X140671503Y-92846895D02*
X140595313Y-92808800D01*
X140595313Y-92808800D02*
X140557217Y-92732609D01*
X140557217Y-92732609D02*
X140557217Y-92656419D01*
X140557217Y-92656419D02*
X140595313Y-92580228D01*
X140595313Y-92580228D02*
X140671503Y-92542133D01*
X140671503Y-92542133D02*
X140861979Y-92542133D01*
X140861979Y-92542133D02*
X140938170Y-92504038D01*
X141281027Y-92808800D02*
X141357218Y-92846895D01*
X141357218Y-92846895D02*
X141509599Y-92846895D01*
X141509599Y-92846895D02*
X141585789Y-92808800D01*
X141585789Y-92808800D02*
X141623885Y-92732609D01*
X141623885Y-92732609D02*
X141623885Y-92694514D01*
X141623885Y-92694514D02*
X141585789Y-92618323D01*
X141585789Y-92618323D02*
X141509599Y-92580228D01*
X141509599Y-92580228D02*
X141395313Y-92580228D01*
X141395313Y-92580228D02*
X141319123Y-92542133D01*
X141319123Y-92542133D02*
X141281027Y-92465942D01*
X141281027Y-92465942D02*
X141281027Y-92427847D01*
X141281027Y-92427847D02*
X141319123Y-92351657D01*
X141319123Y-92351657D02*
X141395313Y-92313561D01*
X141395313Y-92313561D02*
X141509599Y-92313561D01*
X141509599Y-92313561D02*
X141585789Y-92351657D01*
X141852456Y-92313561D02*
X142157218Y-92313561D01*
X141966742Y-92046895D02*
X141966742Y-92732609D01*
X141966742Y-92732609D02*
X142004837Y-92808800D01*
X142004837Y-92808800D02*
X142081027Y-92846895D01*
X142081027Y-92846895D02*
X142157218Y-92846895D01*
X142423885Y-92846895D02*
X142423885Y-92313561D01*
X142423885Y-92465942D02*
X142461980Y-92389752D01*
X142461980Y-92389752D02*
X142500075Y-92351657D01*
X142500075Y-92351657D02*
X142576266Y-92313561D01*
X142576266Y-92313561D02*
X142652456Y-92313561D01*
X143033408Y-92846895D02*
X142957218Y-92808800D01*
X142957218Y-92808800D02*
X142919123Y-92770704D01*
X142919123Y-92770704D02*
X142881027Y-92694514D01*
X142881027Y-92694514D02*
X142881027Y-92465942D01*
X142881027Y-92465942D02*
X142919123Y-92389752D01*
X142919123Y-92389752D02*
X142957218Y-92351657D01*
X142957218Y-92351657D02*
X143033408Y-92313561D01*
X143033408Y-92313561D02*
X143147694Y-92313561D01*
X143147694Y-92313561D02*
X143223885Y-92351657D01*
X143223885Y-92351657D02*
X143261980Y-92389752D01*
X143261980Y-92389752D02*
X143300075Y-92465942D01*
X143300075Y-92465942D02*
X143300075Y-92694514D01*
X143300075Y-92694514D02*
X143261980Y-92770704D01*
X143261980Y-92770704D02*
X143223885Y-92808800D01*
X143223885Y-92808800D02*
X143147694Y-92846895D01*
X143147694Y-92846895D02*
X143033408Y-92846895D01*
X144633409Y-92846895D02*
X144252457Y-92846895D01*
X144252457Y-92846895D02*
X144252457Y-92046895D01*
X145242933Y-92846895D02*
X145242933Y-92427847D01*
X145242933Y-92427847D02*
X145204838Y-92351657D01*
X145204838Y-92351657D02*
X145128647Y-92313561D01*
X145128647Y-92313561D02*
X144976266Y-92313561D01*
X144976266Y-92313561D02*
X144900076Y-92351657D01*
X145242933Y-92808800D02*
X145166742Y-92846895D01*
X145166742Y-92846895D02*
X144976266Y-92846895D01*
X144976266Y-92846895D02*
X144900076Y-92808800D01*
X144900076Y-92808800D02*
X144861980Y-92732609D01*
X144861980Y-92732609D02*
X144861980Y-92656419D01*
X144861980Y-92656419D02*
X144900076Y-92580228D01*
X144900076Y-92580228D02*
X144976266Y-92542133D01*
X144976266Y-92542133D02*
X145166742Y-92542133D01*
X145166742Y-92542133D02*
X145242933Y-92504038D01*
X145966743Y-92313561D02*
X145966743Y-92961180D01*
X145966743Y-92961180D02*
X145928648Y-93037371D01*
X145928648Y-93037371D02*
X145890552Y-93075466D01*
X145890552Y-93075466D02*
X145814362Y-93113561D01*
X145814362Y-93113561D02*
X145700076Y-93113561D01*
X145700076Y-93113561D02*
X145623886Y-93075466D01*
X145966743Y-92808800D02*
X145890552Y-92846895D01*
X145890552Y-92846895D02*
X145738171Y-92846895D01*
X145738171Y-92846895D02*
X145661981Y-92808800D01*
X145661981Y-92808800D02*
X145623886Y-92770704D01*
X145623886Y-92770704D02*
X145585790Y-92694514D01*
X145585790Y-92694514D02*
X145585790Y-92465942D01*
X145585790Y-92465942D02*
X145623886Y-92389752D01*
X145623886Y-92389752D02*
X145661981Y-92351657D01*
X145661981Y-92351657D02*
X145738171Y-92313561D01*
X145738171Y-92313561D02*
X145890552Y-92313561D01*
X145890552Y-92313561D02*
X145966743Y-92351657D01*
X146461981Y-92846895D02*
X146385791Y-92808800D01*
X146385791Y-92808800D02*
X146347696Y-92770704D01*
X146347696Y-92770704D02*
X146309600Y-92694514D01*
X146309600Y-92694514D02*
X146309600Y-92465942D01*
X146309600Y-92465942D02*
X146347696Y-92389752D01*
X146347696Y-92389752D02*
X146385791Y-92351657D01*
X146385791Y-92351657D02*
X146461981Y-92313561D01*
X146461981Y-92313561D02*
X146576267Y-92313561D01*
X146576267Y-92313561D02*
X146652458Y-92351657D01*
X146652458Y-92351657D02*
X146690553Y-92389752D01*
X146690553Y-92389752D02*
X146728648Y-92465942D01*
X146728648Y-92465942D02*
X146728648Y-92694514D01*
X146728648Y-92694514D02*
X146690553Y-92770704D01*
X146690553Y-92770704D02*
X146652458Y-92808800D01*
X146652458Y-92808800D02*
X146576267Y-92846895D01*
X146576267Y-92846895D02*
X146461981Y-92846895D01*
X147033410Y-92808800D02*
X147109601Y-92846895D01*
X147109601Y-92846895D02*
X147261982Y-92846895D01*
X147261982Y-92846895D02*
X147338172Y-92808800D01*
X147338172Y-92808800D02*
X147376268Y-92732609D01*
X147376268Y-92732609D02*
X147376268Y-92694514D01*
X147376268Y-92694514D02*
X147338172Y-92618323D01*
X147338172Y-92618323D02*
X147261982Y-92580228D01*
X147261982Y-92580228D02*
X147147696Y-92580228D01*
X147147696Y-92580228D02*
X147071506Y-92542133D01*
X147071506Y-92542133D02*
X147033410Y-92465942D01*
X147033410Y-92465942D02*
X147033410Y-92427847D01*
X147033410Y-92427847D02*
X147071506Y-92351657D01*
X147071506Y-92351657D02*
X147147696Y-92313561D01*
X147147696Y-92313561D02*
X147261982Y-92313561D01*
X147261982Y-92313561D02*
X147338172Y-92351657D01*
X135296265Y-82906895D02*
X135296265Y-82106895D01*
X135677217Y-82906895D02*
X135677217Y-82106895D01*
X135677217Y-82106895D02*
X135943883Y-82678323D01*
X135943883Y-82678323D02*
X136210550Y-82106895D01*
X136210550Y-82106895D02*
X136210550Y-82906895D01*
X136591503Y-82106895D02*
X136591503Y-82754514D01*
X136591503Y-82754514D02*
X136629598Y-82830704D01*
X136629598Y-82830704D02*
X136667693Y-82868800D01*
X136667693Y-82868800D02*
X136743884Y-82906895D01*
X136743884Y-82906895D02*
X136896265Y-82906895D01*
X136896265Y-82906895D02*
X136972455Y-82868800D01*
X136972455Y-82868800D02*
X137010550Y-82830704D01*
X137010550Y-82830704D02*
X137048646Y-82754514D01*
X137048646Y-82754514D02*
X137048646Y-82106895D01*
X137848645Y-82906895D02*
X137391502Y-82906895D01*
X137620074Y-82906895D02*
X137620074Y-82106895D01*
X137620074Y-82106895D02*
X137543883Y-82221180D01*
X137543883Y-82221180D02*
X137467693Y-82297371D01*
X137467693Y-82297371D02*
X137391502Y-82335466D01*
X129826740Y-88120800D02*
X129941026Y-88158895D01*
X129941026Y-88158895D02*
X130131502Y-88158895D01*
X130131502Y-88158895D02*
X130207693Y-88120800D01*
X130207693Y-88120800D02*
X130245788Y-88082704D01*
X130245788Y-88082704D02*
X130283883Y-88006514D01*
X130283883Y-88006514D02*
X130283883Y-87930323D01*
X130283883Y-87930323D02*
X130245788Y-87854133D01*
X130245788Y-87854133D02*
X130207693Y-87816038D01*
X130207693Y-87816038D02*
X130131502Y-87777942D01*
X130131502Y-87777942D02*
X129979121Y-87739847D01*
X129979121Y-87739847D02*
X129902931Y-87701752D01*
X129902931Y-87701752D02*
X129864836Y-87663657D01*
X129864836Y-87663657D02*
X129826740Y-87587466D01*
X129826740Y-87587466D02*
X129826740Y-87511276D01*
X129826740Y-87511276D02*
X129864836Y-87435085D01*
X129864836Y-87435085D02*
X129902931Y-87396990D01*
X129902931Y-87396990D02*
X129979121Y-87358895D01*
X129979121Y-87358895D02*
X130169598Y-87358895D01*
X130169598Y-87358895D02*
X130283883Y-87396990D01*
X130626741Y-88158895D02*
X130626741Y-87358895D01*
X130626741Y-87358895D02*
X130817217Y-87358895D01*
X130817217Y-87358895D02*
X130931503Y-87396990D01*
X130931503Y-87396990D02*
X131007693Y-87473180D01*
X131007693Y-87473180D02*
X131045788Y-87549371D01*
X131045788Y-87549371D02*
X131083884Y-87701752D01*
X131083884Y-87701752D02*
X131083884Y-87816038D01*
X131083884Y-87816038D02*
X131045788Y-87968419D01*
X131045788Y-87968419D02*
X131007693Y-88044609D01*
X131007693Y-88044609D02*
X130931503Y-88120800D01*
X130931503Y-88120800D02*
X130817217Y-88158895D01*
X130817217Y-88158895D02*
X130626741Y-88158895D01*
X131388645Y-87930323D02*
X131769598Y-87930323D01*
X131312455Y-88158895D02*
X131579122Y-87358895D01*
X131579122Y-87358895D02*
X131845788Y-88158895D01*
X132074359Y-87435085D02*
X132112455Y-87396990D01*
X132112455Y-87396990D02*
X132188645Y-87358895D01*
X132188645Y-87358895D02*
X132379121Y-87358895D01*
X132379121Y-87358895D02*
X132455312Y-87396990D01*
X132455312Y-87396990D02*
X132493407Y-87435085D01*
X132493407Y-87435085D02*
X132531502Y-87511276D01*
X132531502Y-87511276D02*
X132531502Y-87587466D01*
X132531502Y-87587466D02*
X132493407Y-87701752D01*
X132493407Y-87701752D02*
X132036264Y-88158895D01*
X132036264Y-88158895D02*
X132531502Y-88158895D01*
X129864835Y-83168800D02*
X129979121Y-83206895D01*
X129979121Y-83206895D02*
X130169597Y-83206895D01*
X130169597Y-83206895D02*
X130245788Y-83168800D01*
X130245788Y-83168800D02*
X130283883Y-83130704D01*
X130283883Y-83130704D02*
X130321978Y-83054514D01*
X130321978Y-83054514D02*
X130321978Y-82978323D01*
X130321978Y-82978323D02*
X130283883Y-82902133D01*
X130283883Y-82902133D02*
X130245788Y-82864038D01*
X130245788Y-82864038D02*
X130169597Y-82825942D01*
X130169597Y-82825942D02*
X130017216Y-82787847D01*
X130017216Y-82787847D02*
X129941026Y-82749752D01*
X129941026Y-82749752D02*
X129902931Y-82711657D01*
X129902931Y-82711657D02*
X129864835Y-82635466D01*
X129864835Y-82635466D02*
X129864835Y-82559276D01*
X129864835Y-82559276D02*
X129902931Y-82483085D01*
X129902931Y-82483085D02*
X129941026Y-82444990D01*
X129941026Y-82444990D02*
X130017216Y-82406895D01*
X130017216Y-82406895D02*
X130207693Y-82406895D01*
X130207693Y-82406895D02*
X130321978Y-82444990D01*
X131121979Y-83130704D02*
X131083883Y-83168800D01*
X131083883Y-83168800D02*
X130969598Y-83206895D01*
X130969598Y-83206895D02*
X130893407Y-83206895D01*
X130893407Y-83206895D02*
X130779121Y-83168800D01*
X130779121Y-83168800D02*
X130702931Y-83092609D01*
X130702931Y-83092609D02*
X130664836Y-83016419D01*
X130664836Y-83016419D02*
X130626740Y-82864038D01*
X130626740Y-82864038D02*
X130626740Y-82749752D01*
X130626740Y-82749752D02*
X130664836Y-82597371D01*
X130664836Y-82597371D02*
X130702931Y-82521180D01*
X130702931Y-82521180D02*
X130779121Y-82444990D01*
X130779121Y-82444990D02*
X130893407Y-82406895D01*
X130893407Y-82406895D02*
X130969598Y-82406895D01*
X130969598Y-82406895D02*
X131083883Y-82444990D01*
X131083883Y-82444990D02*
X131121979Y-82483085D01*
X131845788Y-83206895D02*
X131464836Y-83206895D01*
X131464836Y-83206895D02*
X131464836Y-82406895D01*
X132531502Y-83206895D02*
X132074359Y-83206895D01*
X132302931Y-83206895D02*
X132302931Y-82406895D01*
X132302931Y-82406895D02*
X132226740Y-82521180D01*
X132226740Y-82521180D02*
X132150550Y-82597371D01*
X132150550Y-82597371D02*
X132074359Y-82635466D01*
X141076265Y-77046895D02*
X141076265Y-76246895D01*
X141457217Y-77046895D02*
X141457217Y-76246895D01*
X141457217Y-76246895D02*
X141723883Y-76818323D01*
X141723883Y-76818323D02*
X141990550Y-76246895D01*
X141990550Y-76246895D02*
X141990550Y-77046895D01*
X142371503Y-76246895D02*
X142371503Y-76894514D01*
X142371503Y-76894514D02*
X142409598Y-76970704D01*
X142409598Y-76970704D02*
X142447693Y-77008800D01*
X142447693Y-77008800D02*
X142523884Y-77046895D01*
X142523884Y-77046895D02*
X142676265Y-77046895D01*
X142676265Y-77046895D02*
X142752455Y-77008800D01*
X142752455Y-77008800D02*
X142790550Y-76970704D01*
X142790550Y-76970704D02*
X142828646Y-76894514D01*
X142828646Y-76894514D02*
X142828646Y-76246895D01*
X143171502Y-76323085D02*
X143209598Y-76284990D01*
X143209598Y-76284990D02*
X143285788Y-76246895D01*
X143285788Y-76246895D02*
X143476264Y-76246895D01*
X143476264Y-76246895D02*
X143552455Y-76284990D01*
X143552455Y-76284990D02*
X143590550Y-76323085D01*
X143590550Y-76323085D02*
X143628645Y-76399276D01*
X143628645Y-76399276D02*
X143628645Y-76475466D01*
X143628645Y-76475466D02*
X143590550Y-76589752D01*
X143590550Y-76589752D02*
X143133407Y-77046895D01*
X143133407Y-77046895D02*
X143628645Y-77046895D01*
X129826740Y-80692800D02*
X129941026Y-80730895D01*
X129941026Y-80730895D02*
X130131502Y-80730895D01*
X130131502Y-80730895D02*
X130207693Y-80692800D01*
X130207693Y-80692800D02*
X130245788Y-80654704D01*
X130245788Y-80654704D02*
X130283883Y-80578514D01*
X130283883Y-80578514D02*
X130283883Y-80502323D01*
X130283883Y-80502323D02*
X130245788Y-80426133D01*
X130245788Y-80426133D02*
X130207693Y-80388038D01*
X130207693Y-80388038D02*
X130131502Y-80349942D01*
X130131502Y-80349942D02*
X129979121Y-80311847D01*
X129979121Y-80311847D02*
X129902931Y-80273752D01*
X129902931Y-80273752D02*
X129864836Y-80235657D01*
X129864836Y-80235657D02*
X129826740Y-80159466D01*
X129826740Y-80159466D02*
X129826740Y-80083276D01*
X129826740Y-80083276D02*
X129864836Y-80007085D01*
X129864836Y-80007085D02*
X129902931Y-79968990D01*
X129902931Y-79968990D02*
X129979121Y-79930895D01*
X129979121Y-79930895D02*
X130169598Y-79930895D01*
X130169598Y-79930895D02*
X130283883Y-79968990D01*
X130626741Y-80730895D02*
X130626741Y-79930895D01*
X130626741Y-79930895D02*
X130817217Y-79930895D01*
X130817217Y-79930895D02*
X130931503Y-79968990D01*
X130931503Y-79968990D02*
X131007693Y-80045180D01*
X131007693Y-80045180D02*
X131045788Y-80121371D01*
X131045788Y-80121371D02*
X131083884Y-80273752D01*
X131083884Y-80273752D02*
X131083884Y-80388038D01*
X131083884Y-80388038D02*
X131045788Y-80540419D01*
X131045788Y-80540419D02*
X131007693Y-80616609D01*
X131007693Y-80616609D02*
X130931503Y-80692800D01*
X130931503Y-80692800D02*
X130817217Y-80730895D01*
X130817217Y-80730895D02*
X130626741Y-80730895D01*
X131388645Y-80502323D02*
X131769598Y-80502323D01*
X131312455Y-80730895D02*
X131579122Y-79930895D01*
X131579122Y-79930895D02*
X131845788Y-80730895D01*
X132531502Y-80730895D02*
X132074359Y-80730895D01*
X132302931Y-80730895D02*
X132302931Y-79930895D01*
X132302931Y-79930895D02*
X132226740Y-80045180D01*
X132226740Y-80045180D02*
X132150550Y-80121371D01*
X132150550Y-80121371D02*
X132074359Y-80159466D01*
X129864835Y-85644800D02*
X129979121Y-85682895D01*
X129979121Y-85682895D02*
X130169597Y-85682895D01*
X130169597Y-85682895D02*
X130245788Y-85644800D01*
X130245788Y-85644800D02*
X130283883Y-85606704D01*
X130283883Y-85606704D02*
X130321978Y-85530514D01*
X130321978Y-85530514D02*
X130321978Y-85454323D01*
X130321978Y-85454323D02*
X130283883Y-85378133D01*
X130283883Y-85378133D02*
X130245788Y-85340038D01*
X130245788Y-85340038D02*
X130169597Y-85301942D01*
X130169597Y-85301942D02*
X130017216Y-85263847D01*
X130017216Y-85263847D02*
X129941026Y-85225752D01*
X129941026Y-85225752D02*
X129902931Y-85187657D01*
X129902931Y-85187657D02*
X129864835Y-85111466D01*
X129864835Y-85111466D02*
X129864835Y-85035276D01*
X129864835Y-85035276D02*
X129902931Y-84959085D01*
X129902931Y-84959085D02*
X129941026Y-84920990D01*
X129941026Y-84920990D02*
X130017216Y-84882895D01*
X130017216Y-84882895D02*
X130207693Y-84882895D01*
X130207693Y-84882895D02*
X130321978Y-84920990D01*
X131121979Y-85606704D02*
X131083883Y-85644800D01*
X131083883Y-85644800D02*
X130969598Y-85682895D01*
X130969598Y-85682895D02*
X130893407Y-85682895D01*
X130893407Y-85682895D02*
X130779121Y-85644800D01*
X130779121Y-85644800D02*
X130702931Y-85568609D01*
X130702931Y-85568609D02*
X130664836Y-85492419D01*
X130664836Y-85492419D02*
X130626740Y-85340038D01*
X130626740Y-85340038D02*
X130626740Y-85225752D01*
X130626740Y-85225752D02*
X130664836Y-85073371D01*
X130664836Y-85073371D02*
X130702931Y-84997180D01*
X130702931Y-84997180D02*
X130779121Y-84920990D01*
X130779121Y-84920990D02*
X130893407Y-84882895D01*
X130893407Y-84882895D02*
X130969598Y-84882895D01*
X130969598Y-84882895D02*
X131083883Y-84920990D01*
X131083883Y-84920990D02*
X131121979Y-84959085D01*
X131845788Y-85682895D02*
X131464836Y-85682895D01*
X131464836Y-85682895D02*
X131464836Y-84882895D01*
X132074359Y-84959085D02*
X132112455Y-84920990D01*
X132112455Y-84920990D02*
X132188645Y-84882895D01*
X132188645Y-84882895D02*
X132379121Y-84882895D01*
X132379121Y-84882895D02*
X132455312Y-84920990D01*
X132455312Y-84920990D02*
X132493407Y-84959085D01*
X132493407Y-84959085D02*
X132531502Y-85035276D01*
X132531502Y-85035276D02*
X132531502Y-85111466D01*
X132531502Y-85111466D02*
X132493407Y-85225752D01*
X132493407Y-85225752D02*
X132036264Y-85682895D01*
X132036264Y-85682895D02*
X132531502Y-85682895D01*
X130855312Y-77492990D02*
X130779122Y-77454895D01*
X130779122Y-77454895D02*
X130664836Y-77454895D01*
X130664836Y-77454895D02*
X130550550Y-77492990D01*
X130550550Y-77492990D02*
X130474360Y-77569180D01*
X130474360Y-77569180D02*
X130436265Y-77645371D01*
X130436265Y-77645371D02*
X130398169Y-77797752D01*
X130398169Y-77797752D02*
X130398169Y-77912038D01*
X130398169Y-77912038D02*
X130436265Y-78064419D01*
X130436265Y-78064419D02*
X130474360Y-78140609D01*
X130474360Y-78140609D02*
X130550550Y-78216800D01*
X130550550Y-78216800D02*
X130664836Y-78254895D01*
X130664836Y-78254895D02*
X130741027Y-78254895D01*
X130741027Y-78254895D02*
X130855312Y-78216800D01*
X130855312Y-78216800D02*
X130893408Y-78178704D01*
X130893408Y-78178704D02*
X130893408Y-77912038D01*
X130893408Y-77912038D02*
X130741027Y-77912038D01*
X131236265Y-78254895D02*
X131236265Y-77454895D01*
X131236265Y-77454895D02*
X131693408Y-78254895D01*
X131693408Y-78254895D02*
X131693408Y-77454895D01*
X132074360Y-78254895D02*
X132074360Y-77454895D01*
X132074360Y-77454895D02*
X132264836Y-77454895D01*
X132264836Y-77454895D02*
X132379122Y-77492990D01*
X132379122Y-77492990D02*
X132455312Y-77569180D01*
X132455312Y-77569180D02*
X132493407Y-77645371D01*
X132493407Y-77645371D02*
X132531503Y-77797752D01*
X132531503Y-77797752D02*
X132531503Y-77912038D01*
X132531503Y-77912038D02*
X132493407Y-78064419D01*
X132493407Y-78064419D02*
X132455312Y-78140609D01*
X132455312Y-78140609D02*
X132379122Y-78216800D01*
X132379122Y-78216800D02*
X132264836Y-78254895D01*
X132264836Y-78254895D02*
X132074360Y-78254895D01*
X130207693Y-74978895D02*
X130702931Y-74978895D01*
X130702931Y-74978895D02*
X130436265Y-75283657D01*
X130436265Y-75283657D02*
X130550550Y-75283657D01*
X130550550Y-75283657D02*
X130626741Y-75321752D01*
X130626741Y-75321752D02*
X130664836Y-75359847D01*
X130664836Y-75359847D02*
X130702931Y-75436038D01*
X130702931Y-75436038D02*
X130702931Y-75626514D01*
X130702931Y-75626514D02*
X130664836Y-75702704D01*
X130664836Y-75702704D02*
X130626741Y-75740800D01*
X130626741Y-75740800D02*
X130550550Y-75778895D01*
X130550550Y-75778895D02*
X130321979Y-75778895D01*
X130321979Y-75778895D02*
X130245788Y-75740800D01*
X130245788Y-75740800D02*
X130207693Y-75702704D01*
X131045789Y-75702704D02*
X131083884Y-75740800D01*
X131083884Y-75740800D02*
X131045789Y-75778895D01*
X131045789Y-75778895D02*
X131007693Y-75740800D01*
X131007693Y-75740800D02*
X131045789Y-75702704D01*
X131045789Y-75702704D02*
X131045789Y-75778895D01*
X131350550Y-74978895D02*
X131845788Y-74978895D01*
X131845788Y-74978895D02*
X131579122Y-75283657D01*
X131579122Y-75283657D02*
X131693407Y-75283657D01*
X131693407Y-75283657D02*
X131769598Y-75321752D01*
X131769598Y-75321752D02*
X131807693Y-75359847D01*
X131807693Y-75359847D02*
X131845788Y-75436038D01*
X131845788Y-75436038D02*
X131845788Y-75626514D01*
X131845788Y-75626514D02*
X131807693Y-75702704D01*
X131807693Y-75702704D02*
X131769598Y-75740800D01*
X131769598Y-75740800D02*
X131693407Y-75778895D01*
X131693407Y-75778895D02*
X131464836Y-75778895D01*
X131464836Y-75778895D02*
X131388645Y-75740800D01*
X131388645Y-75740800D02*
X131350550Y-75702704D01*
X132074360Y-74978895D02*
X132341027Y-75778895D01*
X132341027Y-75778895D02*
X132607693Y-74978895D01*
D11*
X149123333Y-77899580D02*
X149075714Y-77947200D01*
X149075714Y-77947200D02*
X148932857Y-77994819D01*
X148932857Y-77994819D02*
X148837619Y-77994819D01*
X148837619Y-77994819D02*
X148694762Y-77947200D01*
X148694762Y-77947200D02*
X148599524Y-77851961D01*
X148599524Y-77851961D02*
X148551905Y-77756723D01*
X148551905Y-77756723D02*
X148504286Y-77566247D01*
X148504286Y-77566247D02*
X148504286Y-77423390D01*
X148504286Y-77423390D02*
X148551905Y-77232914D01*
X148551905Y-77232914D02*
X148599524Y-77137676D01*
X148599524Y-77137676D02*
X148694762Y-77042438D01*
X148694762Y-77042438D02*
X148837619Y-76994819D01*
X148837619Y-76994819D02*
X148932857Y-76994819D01*
X148932857Y-76994819D02*
X149075714Y-77042438D01*
X149075714Y-77042438D02*
X149123333Y-77090057D01*
X149980476Y-76994819D02*
X149790000Y-76994819D01*
X149790000Y-76994819D02*
X149694762Y-77042438D01*
X149694762Y-77042438D02*
X149647143Y-77090057D01*
X149647143Y-77090057D02*
X149551905Y-77232914D01*
X149551905Y-77232914D02*
X149504286Y-77423390D01*
X149504286Y-77423390D02*
X149504286Y-77804342D01*
X149504286Y-77804342D02*
X149551905Y-77899580D01*
X149551905Y-77899580D02*
X149599524Y-77947200D01*
X149599524Y-77947200D02*
X149694762Y-77994819D01*
X149694762Y-77994819D02*
X149885238Y-77994819D01*
X149885238Y-77994819D02*
X149980476Y-77947200D01*
X149980476Y-77947200D02*
X150028095Y-77899580D01*
X150028095Y-77899580D02*
X150075714Y-77804342D01*
X150075714Y-77804342D02*
X150075714Y-77566247D01*
X150075714Y-77566247D02*
X150028095Y-77471009D01*
X150028095Y-77471009D02*
X149980476Y-77423390D01*
X149980476Y-77423390D02*
X149885238Y-77375771D01*
X149885238Y-77375771D02*
X149694762Y-77375771D01*
X149694762Y-77375771D02*
X149599524Y-77423390D01*
X149599524Y-77423390D02*
X149551905Y-77471009D01*
X149551905Y-77471009D02*
X149504286Y-77566247D01*
X136143333Y-90384819D02*
X135810000Y-89908628D01*
X135571905Y-90384819D02*
X135571905Y-89384819D01*
X135571905Y-89384819D02*
X135952857Y-89384819D01*
X135952857Y-89384819D02*
X136048095Y-89432438D01*
X136048095Y-89432438D02*
X136095714Y-89480057D01*
X136095714Y-89480057D02*
X136143333Y-89575295D01*
X136143333Y-89575295D02*
X136143333Y-89718152D01*
X136143333Y-89718152D02*
X136095714Y-89813390D01*
X136095714Y-89813390D02*
X136048095Y-89861009D01*
X136048095Y-89861009D02*
X135952857Y-89908628D01*
X135952857Y-89908628D02*
X135571905Y-89908628D01*
X136476667Y-89384819D02*
X137095714Y-89384819D01*
X137095714Y-89384819D02*
X136762381Y-89765771D01*
X136762381Y-89765771D02*
X136905238Y-89765771D01*
X136905238Y-89765771D02*
X137000476Y-89813390D01*
X137000476Y-89813390D02*
X137048095Y-89861009D01*
X137048095Y-89861009D02*
X137095714Y-89956247D01*
X137095714Y-89956247D02*
X137095714Y-90194342D01*
X137095714Y-90194342D02*
X137048095Y-90289580D01*
X137048095Y-90289580D02*
X137000476Y-90337200D01*
X137000476Y-90337200D02*
X136905238Y-90384819D01*
X136905238Y-90384819D02*
X136619524Y-90384819D01*
X136619524Y-90384819D02*
X136524286Y-90337200D01*
X136524286Y-90337200D02*
X136476667Y-90289580D01*
X142003333Y-82229580D02*
X141955714Y-82277200D01*
X141955714Y-82277200D02*
X141812857Y-82324819D01*
X141812857Y-82324819D02*
X141717619Y-82324819D01*
X141717619Y-82324819D02*
X141574762Y-82277200D01*
X141574762Y-82277200D02*
X141479524Y-82181961D01*
X141479524Y-82181961D02*
X141431905Y-82086723D01*
X141431905Y-82086723D02*
X141384286Y-81896247D01*
X141384286Y-81896247D02*
X141384286Y-81753390D01*
X141384286Y-81753390D02*
X141431905Y-81562914D01*
X141431905Y-81562914D02*
X141479524Y-81467676D01*
X141479524Y-81467676D02*
X141574762Y-81372438D01*
X141574762Y-81372438D02*
X141717619Y-81324819D01*
X141717619Y-81324819D02*
X141812857Y-81324819D01*
X141812857Y-81324819D02*
X141955714Y-81372438D01*
X141955714Y-81372438D02*
X142003333Y-81420057D01*
X142336667Y-81324819D02*
X142955714Y-81324819D01*
X142955714Y-81324819D02*
X142622381Y-81705771D01*
X142622381Y-81705771D02*
X142765238Y-81705771D01*
X142765238Y-81705771D02*
X142860476Y-81753390D01*
X142860476Y-81753390D02*
X142908095Y-81801009D01*
X142908095Y-81801009D02*
X142955714Y-81896247D01*
X142955714Y-81896247D02*
X142955714Y-82134342D01*
X142955714Y-82134342D02*
X142908095Y-82229580D01*
X142908095Y-82229580D02*
X142860476Y-82277200D01*
X142860476Y-82277200D02*
X142765238Y-82324819D01*
X142765238Y-82324819D02*
X142479524Y-82324819D01*
X142479524Y-82324819D02*
X142384286Y-82277200D01*
X142384286Y-82277200D02*
X142336667Y-82229580D01*
X148853333Y-71604819D02*
X148520000Y-71128628D01*
X148281905Y-71604819D02*
X148281905Y-70604819D01*
X148281905Y-70604819D02*
X148662857Y-70604819D01*
X148662857Y-70604819D02*
X148758095Y-70652438D01*
X148758095Y-70652438D02*
X148805714Y-70700057D01*
X148805714Y-70700057D02*
X148853333Y-70795295D01*
X148853333Y-70795295D02*
X148853333Y-70938152D01*
X148853333Y-70938152D02*
X148805714Y-71033390D01*
X148805714Y-71033390D02*
X148758095Y-71081009D01*
X148758095Y-71081009D02*
X148662857Y-71128628D01*
X148662857Y-71128628D02*
X148281905Y-71128628D01*
X149805714Y-71604819D02*
X149234286Y-71604819D01*
X149520000Y-71604819D02*
X149520000Y-70604819D01*
X149520000Y-70604819D02*
X149424762Y-70747676D01*
X149424762Y-70747676D02*
X149329524Y-70842914D01*
X149329524Y-70842914D02*
X149234286Y-70890533D01*
X136143333Y-86784819D02*
X135810000Y-86308628D01*
X135571905Y-86784819D02*
X135571905Y-85784819D01*
X135571905Y-85784819D02*
X135952857Y-85784819D01*
X135952857Y-85784819D02*
X136048095Y-85832438D01*
X136048095Y-85832438D02*
X136095714Y-85880057D01*
X136095714Y-85880057D02*
X136143333Y-85975295D01*
X136143333Y-85975295D02*
X136143333Y-86118152D01*
X136143333Y-86118152D02*
X136095714Y-86213390D01*
X136095714Y-86213390D02*
X136048095Y-86261009D01*
X136048095Y-86261009D02*
X135952857Y-86308628D01*
X135952857Y-86308628D02*
X135571905Y-86308628D01*
X137000476Y-86118152D02*
X137000476Y-86784819D01*
X136762381Y-85737200D02*
X136524286Y-86451485D01*
X136524286Y-86451485D02*
X137143333Y-86451485D01*
X141933333Y-89074819D02*
X141600000Y-88598628D01*
X141361905Y-89074819D02*
X141361905Y-88074819D01*
X141361905Y-88074819D02*
X141742857Y-88074819D01*
X141742857Y-88074819D02*
X141838095Y-88122438D01*
X141838095Y-88122438D02*
X141885714Y-88170057D01*
X141885714Y-88170057D02*
X141933333Y-88265295D01*
X141933333Y-88265295D02*
X141933333Y-88408152D01*
X141933333Y-88408152D02*
X141885714Y-88503390D01*
X141885714Y-88503390D02*
X141838095Y-88551009D01*
X141838095Y-88551009D02*
X141742857Y-88598628D01*
X141742857Y-88598628D02*
X141361905Y-88598628D01*
X142314286Y-88170057D02*
X142361905Y-88122438D01*
X142361905Y-88122438D02*
X142457143Y-88074819D01*
X142457143Y-88074819D02*
X142695238Y-88074819D01*
X142695238Y-88074819D02*
X142790476Y-88122438D01*
X142790476Y-88122438D02*
X142838095Y-88170057D01*
X142838095Y-88170057D02*
X142885714Y-88265295D01*
X142885714Y-88265295D02*
X142885714Y-88360533D01*
X142885714Y-88360533D02*
X142838095Y-88503390D01*
X142838095Y-88503390D02*
X142266667Y-89074819D01*
X142266667Y-89074819D02*
X142885714Y-89074819D01*
X138632319Y-80171904D02*
X139441842Y-80171904D01*
X139441842Y-80171904D02*
X139537080Y-80124285D01*
X139537080Y-80124285D02*
X139584700Y-80076666D01*
X139584700Y-80076666D02*
X139632319Y-79981428D01*
X139632319Y-79981428D02*
X139632319Y-79790952D01*
X139632319Y-79790952D02*
X139584700Y-79695714D01*
X139584700Y-79695714D02*
X139537080Y-79648095D01*
X139537080Y-79648095D02*
X139441842Y-79600476D01*
X139441842Y-79600476D02*
X138632319Y-79600476D01*
X139632319Y-78600476D02*
X139632319Y-79171904D01*
X139632319Y-78886190D02*
X138632319Y-78886190D01*
X138632319Y-78886190D02*
X138775176Y-78981428D01*
X138775176Y-78981428D02*
X138870414Y-79076666D01*
X138870414Y-79076666D02*
X138918033Y-79171904D01*
X148183333Y-84419580D02*
X148135714Y-84467200D01*
X148135714Y-84467200D02*
X147992857Y-84514819D01*
X147992857Y-84514819D02*
X147897619Y-84514819D01*
X147897619Y-84514819D02*
X147754762Y-84467200D01*
X147754762Y-84467200D02*
X147659524Y-84371961D01*
X147659524Y-84371961D02*
X147611905Y-84276723D01*
X147611905Y-84276723D02*
X147564286Y-84086247D01*
X147564286Y-84086247D02*
X147564286Y-83943390D01*
X147564286Y-83943390D02*
X147611905Y-83752914D01*
X147611905Y-83752914D02*
X147659524Y-83657676D01*
X147659524Y-83657676D02*
X147754762Y-83562438D01*
X147754762Y-83562438D02*
X147897619Y-83514819D01*
X147897619Y-83514819D02*
X147992857Y-83514819D01*
X147992857Y-83514819D02*
X148135714Y-83562438D01*
X148135714Y-83562438D02*
X148183333Y-83610057D01*
X149040476Y-83848152D02*
X149040476Y-84514819D01*
X148802381Y-83467200D02*
X148564286Y-84181485D01*
X148564286Y-84181485D02*
X149183333Y-84181485D01*
X143453333Y-71469580D02*
X143405714Y-71517200D01*
X143405714Y-71517200D02*
X143262857Y-71564819D01*
X143262857Y-71564819D02*
X143167619Y-71564819D01*
X143167619Y-71564819D02*
X143024762Y-71517200D01*
X143024762Y-71517200D02*
X142929524Y-71421961D01*
X142929524Y-71421961D02*
X142881905Y-71326723D01*
X142881905Y-71326723D02*
X142834286Y-71136247D01*
X142834286Y-71136247D02*
X142834286Y-70993390D01*
X142834286Y-70993390D02*
X142881905Y-70802914D01*
X142881905Y-70802914D02*
X142929524Y-70707676D01*
X142929524Y-70707676D02*
X143024762Y-70612438D01*
X143024762Y-70612438D02*
X143167619Y-70564819D01*
X143167619Y-70564819D02*
X143262857Y-70564819D01*
X143262857Y-70564819D02*
X143405714Y-70612438D01*
X143405714Y-70612438D02*
X143453333Y-70660057D01*
X144405714Y-71564819D02*
X143834286Y-71564819D01*
X144120000Y-71564819D02*
X144120000Y-70564819D01*
X144120000Y-70564819D02*
X144024762Y-70707676D01*
X144024762Y-70707676D02*
X143929524Y-70802914D01*
X143929524Y-70802914D02*
X143834286Y-70850533D01*
X137153333Y-71469580D02*
X137105714Y-71517200D01*
X137105714Y-71517200D02*
X136962857Y-71564819D01*
X136962857Y-71564819D02*
X136867619Y-71564819D01*
X136867619Y-71564819D02*
X136724762Y-71517200D01*
X136724762Y-71517200D02*
X136629524Y-71421961D01*
X136629524Y-71421961D02*
X136581905Y-71326723D01*
X136581905Y-71326723D02*
X136534286Y-71136247D01*
X136534286Y-71136247D02*
X136534286Y-70993390D01*
X136534286Y-70993390D02*
X136581905Y-70802914D01*
X136581905Y-70802914D02*
X136629524Y-70707676D01*
X136629524Y-70707676D02*
X136724762Y-70612438D01*
X136724762Y-70612438D02*
X136867619Y-70564819D01*
X136867619Y-70564819D02*
X136962857Y-70564819D01*
X136962857Y-70564819D02*
X137105714Y-70612438D01*
X137105714Y-70612438D02*
X137153333Y-70660057D01*
X137534286Y-70660057D02*
X137581905Y-70612438D01*
X137581905Y-70612438D02*
X137677143Y-70564819D01*
X137677143Y-70564819D02*
X137915238Y-70564819D01*
X137915238Y-70564819D02*
X138010476Y-70612438D01*
X138010476Y-70612438D02*
X138058095Y-70660057D01*
X138058095Y-70660057D02*
X138105714Y-70755295D01*
X138105714Y-70755295D02*
X138105714Y-70850533D01*
X138105714Y-70850533D02*
X138058095Y-70993390D01*
X138058095Y-70993390D02*
X137486667Y-71564819D01*
X137486667Y-71564819D02*
X138105714Y-71564819D01*
X127456666Y-72274819D02*
X127456666Y-72989104D01*
X127456666Y-72989104D02*
X127409047Y-73131961D01*
X127409047Y-73131961D02*
X127313809Y-73227200D01*
X127313809Y-73227200D02*
X127170952Y-73274819D01*
X127170952Y-73274819D02*
X127075714Y-73274819D01*
X127885238Y-72370057D02*
X127932857Y-72322438D01*
X127932857Y-72322438D02*
X128028095Y-72274819D01*
X128028095Y-72274819D02*
X128266190Y-72274819D01*
X128266190Y-72274819D02*
X128361428Y-72322438D01*
X128361428Y-72322438D02*
X128409047Y-72370057D01*
X128409047Y-72370057D02*
X128456666Y-72465295D01*
X128456666Y-72465295D02*
X128456666Y-72560533D01*
X128456666Y-72560533D02*
X128409047Y-72703390D01*
X128409047Y-72703390D02*
X127837619Y-73274819D01*
X127837619Y-73274819D02*
X128456666Y-73274819D01*
X145159104Y-80634285D02*
X145159104Y-80158095D01*
X145444819Y-80729523D02*
X144444819Y-80396190D01*
X144444819Y-80396190D02*
X145444819Y-80062857D01*
X145349580Y-79158095D02*
X145397200Y-79205714D01*
X145397200Y-79205714D02*
X145444819Y-79348571D01*
X145444819Y-79348571D02*
X145444819Y-79443809D01*
X145444819Y-79443809D02*
X145397200Y-79586666D01*
X145397200Y-79586666D02*
X145301961Y-79681904D01*
X145301961Y-79681904D02*
X145206723Y-79729523D01*
X145206723Y-79729523D02*
X145016247Y-79777142D01*
X145016247Y-79777142D02*
X144873390Y-79777142D01*
X144873390Y-79777142D02*
X144682914Y-79729523D01*
X144682914Y-79729523D02*
X144587676Y-79681904D01*
X144587676Y-79681904D02*
X144492438Y-79586666D01*
X144492438Y-79586666D02*
X144444819Y-79443809D01*
X144444819Y-79443809D02*
X144444819Y-79348571D01*
X144444819Y-79348571D02*
X144492438Y-79205714D01*
X144492438Y-79205714D02*
X144540057Y-79158095D01*
X145444819Y-78205714D02*
X145444819Y-78777142D01*
X145444819Y-78491428D02*
X144444819Y-78491428D01*
X144444819Y-78491428D02*
X144587676Y-78586666D01*
X144587676Y-78586666D02*
X144682914Y-78681904D01*
X144682914Y-78681904D02*
X144730533Y-78777142D01*
D12*
%TO.C,C6*%
X146290000Y-79180000D02*
X146790000Y-79180000D01*
X146540000Y-78930000D02*
X146540000Y-79430000D01*
X147030000Y-79544437D02*
X147030000Y-79680000D01*
X147030000Y-79544437D02*
X148094437Y-78480000D01*
X147030000Y-81935563D02*
X147030000Y-81800000D01*
X147030000Y-81935563D02*
X148094437Y-83000000D01*
X148094437Y-78480000D02*
X151550000Y-78480000D01*
X148094437Y-83000000D02*
X151550000Y-83000000D01*
X151550000Y-78480000D02*
X151550000Y-79680000D01*
X151550000Y-83000000D02*
X151550000Y-81800000D01*
%TO.C,R3*%
X137037064Y-87190000D02*
X135582936Y-87190000D01*
X137037064Y-89010000D02*
X135582936Y-89010000D01*
%TO.C,C3*%
X141458748Y-82810000D02*
X142881252Y-82810000D01*
X141458748Y-84630000D02*
X142881252Y-84630000D01*
%TO.C,R1*%
X148292936Y-72070000D02*
X149747064Y-72070000D01*
X148292936Y-73890000D02*
X149747064Y-73890000D01*
%TO.C,R4*%
X137037064Y-83590000D02*
X135582936Y-83590000D01*
X137037064Y-85410000D02*
X135582936Y-85410000D01*
%TO.C,R2*%
X142827064Y-85880000D02*
X141372936Y-85880000D01*
X142827064Y-87700000D02*
X141372936Y-87700000D01*
%TO.C,U1*%
X135017500Y-77050000D02*
X136242500Y-77050000D01*
X135017500Y-77525000D02*
X135017500Y-77050000D01*
X135017500Y-81770000D02*
X135017500Y-81295000D01*
X136242500Y-81770000D02*
X135017500Y-81770000D01*
X137012500Y-77050000D02*
X138237500Y-77050000D01*
X138237500Y-77050000D02*
X138237500Y-77525000D01*
X138237500Y-81295000D02*
X138237500Y-81770000D01*
X138237500Y-81770000D02*
X137012500Y-81770000D01*
X138817500Y-78150000D02*
X138487500Y-77910000D01*
X138817500Y-77670000D01*
X138817500Y-78150000D01*
G36*
X138817500Y-78150000D02*
G01*
X138487500Y-77910000D01*
X138817500Y-77670000D01*
X138817500Y-78150000D01*
G37*
D13*
%TO.C,G\u002A\u002A\u002A*%
G36*
X149579231Y-90502920D02*
G01*
X149616342Y-90520086D01*
X149647756Y-90544431D01*
X149656961Y-90555065D01*
X149669918Y-90577255D01*
X149675756Y-90602873D01*
X149676706Y-90625890D01*
X149670464Y-90669632D01*
X149651146Y-90704443D01*
X149617867Y-90731703D01*
X149603832Y-90739198D01*
X149559733Y-90753329D01*
X149516844Y-90751674D01*
X149481895Y-90739022D01*
X149444050Y-90713662D01*
X149420506Y-90681429D01*
X149410291Y-90640801D01*
X149409678Y-90625890D01*
X149411860Y-90593777D01*
X149419773Y-90570070D01*
X149429423Y-90555065D01*
X149456803Y-90528873D01*
X149492506Y-90508506D01*
X149529765Y-90497455D01*
X149543192Y-90496422D01*
X149579231Y-90502920D01*
G37*
G36*
X150008309Y-88922577D02*
G01*
X150027982Y-88958848D01*
X150045354Y-88989357D01*
X150058897Y-89011537D01*
X150067088Y-89022823D01*
X150068428Y-89023724D01*
X150074371Y-89016984D01*
X150086292Y-88998464D01*
X150102652Y-88970720D01*
X150121912Y-88936305D01*
X150129365Y-88922577D01*
X150183842Y-88821430D01*
X150215672Y-88821430D01*
X150247503Y-88821430D01*
X150231812Y-88851774D01*
X150222045Y-88869972D01*
X150206241Y-88898642D01*
X150186391Y-88934204D01*
X150164486Y-88973077D01*
X150158822Y-88983067D01*
X150101523Y-89084015D01*
X150101523Y-89175246D01*
X150101523Y-89266477D01*
X150069156Y-89266477D01*
X150036789Y-89266477D01*
X150036789Y-89177479D01*
X150036789Y-89088481D01*
X149963963Y-88959868D01*
X149940789Y-88918684D01*
X149920659Y-88882421D01*
X149904834Y-88853391D01*
X149894577Y-88833906D01*
X149891137Y-88826342D01*
X149898314Y-88823241D01*
X149916200Y-88821541D01*
X149922894Y-88821430D01*
X149954651Y-88821430D01*
X150008309Y-88922577D01*
G37*
G36*
X151263186Y-89897571D02*
G01*
X151267937Y-89897633D01*
X151288572Y-89899060D01*
X151295234Y-89903861D01*
X151293963Y-89907748D01*
X151287598Y-89917947D01*
X151274283Y-89939044D01*
X151255759Y-89968287D01*
X151233768Y-90002923D01*
X151225469Y-90015976D01*
X151163069Y-90114090D01*
X151217184Y-90198041D01*
X151240134Y-90233765D01*
X151261701Y-90267553D01*
X151279345Y-90295411D01*
X151289906Y-90312335D01*
X151308513Y-90342679D01*
X151273463Y-90342430D01*
X151238413Y-90342181D01*
X151185817Y-90253541D01*
X151165714Y-90220170D01*
X151148482Y-90192520D01*
X151135805Y-90173225D01*
X151129367Y-90164917D01*
X151129064Y-90164780D01*
X151123488Y-90171209D01*
X151111194Y-90188878D01*
X151093901Y-90215216D01*
X151073330Y-90247653D01*
X151069580Y-90253670D01*
X151046847Y-90290015D01*
X151030487Y-90314812D01*
X151018345Y-90330269D01*
X151008267Y-90338594D01*
X150998100Y-90341993D01*
X150985687Y-90342675D01*
X150982704Y-90342679D01*
X150962731Y-90341791D01*
X150951835Y-90339580D01*
X150951156Y-90338775D01*
X150955299Y-90330977D01*
X150966737Y-90311987D01*
X150983986Y-90284207D01*
X151005560Y-90250039D01*
X151019936Y-90227514D01*
X151043466Y-90190259D01*
X151063532Y-90157491D01*
X151078631Y-90131739D01*
X151087263Y-90115535D01*
X151088715Y-90111501D01*
X151084546Y-90101947D01*
X151073072Y-90081478D01*
X151055849Y-90052725D01*
X151034427Y-90018319D01*
X151024199Y-90002262D01*
X150959681Y-89901679D01*
X150988852Y-89899104D01*
X151010369Y-89899444D01*
X151024937Y-89903650D01*
X151026044Y-89904549D01*
X151033237Y-89914434D01*
X151046607Y-89935100D01*
X151064139Y-89963368D01*
X151080867Y-89991096D01*
X151127670Y-90069621D01*
X151149917Y-90034201D01*
X151179032Y-89987766D01*
X151200873Y-89953193D01*
X151216939Y-89928743D01*
X151228731Y-89912681D01*
X151237751Y-89903269D01*
X151245500Y-89898771D01*
X151253478Y-89897451D01*
X151263186Y-89897571D01*
G37*
G36*
X149548171Y-88439874D02*
G01*
X149560190Y-88458850D01*
X149578261Y-88488423D01*
X149601356Y-88526890D01*
X149628449Y-88572545D01*
X149658509Y-88623686D01*
X149670678Y-88644512D01*
X149710148Y-88712966D01*
X149742434Y-88770633D01*
X149767200Y-88816878D01*
X149784114Y-88851071D01*
X149792843Y-88872579D01*
X149794036Y-88878585D01*
X149787568Y-88899257D01*
X149771754Y-88919048D01*
X149751978Y-88932281D01*
X149740800Y-88934715D01*
X149722018Y-88926963D01*
X149698631Y-88903716D01*
X149670653Y-88864993D01*
X149644138Y-88821430D01*
X149599938Y-88744559D01*
X149599886Y-89448712D01*
X149599834Y-90152866D01*
X149650408Y-90162470D01*
X149717745Y-90182602D01*
X149784701Y-90216150D01*
X149847771Y-90260652D01*
X149903448Y-90313646D01*
X149947067Y-90370823D01*
X149966471Y-90405537D01*
X149985180Y-90445932D01*
X150001486Y-90487511D01*
X150013682Y-90525773D01*
X150020061Y-90556220D01*
X150020605Y-90564606D01*
X150020605Y-90585432D01*
X150787238Y-90585432D01*
X151553871Y-90585432D01*
X151464922Y-90533790D01*
X151421062Y-90507211D01*
X151390576Y-90485539D01*
X151372081Y-90467029D01*
X151364197Y-90449937D01*
X151365542Y-90432518D01*
X151372447Y-90416977D01*
X151380605Y-90404465D01*
X151390000Y-90396103D01*
X151402171Y-90392413D01*
X151418656Y-90393914D01*
X151440992Y-90401127D01*
X151470717Y-90414573D01*
X151509370Y-90434771D01*
X151558490Y-90462244D01*
X151619613Y-90497510D01*
X151632351Y-90504925D01*
X151684370Y-90535265D01*
X151732587Y-90563445D01*
X151775002Y-90588292D01*
X151809618Y-90608634D01*
X151834434Y-90623299D01*
X151847452Y-90631112D01*
X151848009Y-90631460D01*
X151852860Y-90635092D01*
X151854678Y-90639152D01*
X151852137Y-90644572D01*
X151843911Y-90652283D01*
X151828675Y-90663217D01*
X151805103Y-90678305D01*
X151771867Y-90698481D01*
X151727644Y-90724674D01*
X151671106Y-90757818D01*
X151653807Y-90767934D01*
X151588677Y-90805576D01*
X151532463Y-90837179D01*
X151486177Y-90862204D01*
X151450834Y-90880113D01*
X151427448Y-90890369D01*
X151418455Y-90892716D01*
X151394516Y-90886439D01*
X151374685Y-90870365D01*
X151364320Y-90849289D01*
X151363836Y-90843836D01*
X151366372Y-90825711D01*
X151375500Y-90809447D01*
X151393497Y-90792712D01*
X151422638Y-90773173D01*
X151446640Y-90759008D01*
X151477739Y-90740978D01*
X151504975Y-90724856D01*
X151524240Y-90713087D01*
X151529494Y-90709671D01*
X151530247Y-90707800D01*
X151526142Y-90706148D01*
X151516307Y-90704702D01*
X151499870Y-90703449D01*
X151475957Y-90702376D01*
X151443696Y-90701470D01*
X151402216Y-90700719D01*
X151350643Y-90700110D01*
X151288104Y-90699630D01*
X151213728Y-90699266D01*
X151126642Y-90699006D01*
X151025974Y-90698836D01*
X150910850Y-90698743D01*
X150783030Y-90698716D01*
X150020605Y-90698716D01*
X150020605Y-90719542D01*
X150018068Y-90737161D01*
X150011369Y-90764508D01*
X150001876Y-90796102D01*
X150000356Y-90800689D01*
X149965216Y-90881451D01*
X149918066Y-90952659D01*
X149860475Y-91013416D01*
X149794008Y-91062824D01*
X149720231Y-91099985D01*
X149640713Y-91123999D01*
X149557019Y-91133970D01*
X149470715Y-91128999D01*
X149437999Y-91123099D01*
X149358647Y-91097995D01*
X149285181Y-91058724D01*
X149219154Y-91006711D01*
X149162115Y-90943382D01*
X149115613Y-90870161D01*
X149084428Y-90798070D01*
X149074371Y-90766782D01*
X149067917Y-90739099D01*
X149064312Y-90709623D01*
X149062799Y-90672957D01*
X149062579Y-90642074D01*
X149062724Y-90630225D01*
X149171941Y-90630225D01*
X149176932Y-90704912D01*
X149183362Y-90734793D01*
X149209868Y-90807254D01*
X149248416Y-90871024D01*
X149297279Y-90924994D01*
X149354729Y-90968056D01*
X149419038Y-90999101D01*
X149488478Y-91017022D01*
X149561323Y-91020711D01*
X149617642Y-91013367D01*
X149688709Y-90990413D01*
X149753084Y-90953712D01*
X149809088Y-90904904D01*
X149855039Y-90845631D01*
X149889256Y-90777534D01*
X149903022Y-90734793D01*
X149914496Y-90661526D01*
X149911427Y-90590080D01*
X149895156Y-90521955D01*
X149867022Y-90458648D01*
X149828364Y-90401656D01*
X149780521Y-90352478D01*
X149724834Y-90312610D01*
X149662642Y-90283552D01*
X149595283Y-90266800D01*
X149524098Y-90263852D01*
X149485849Y-90268301D01*
X149413530Y-90287468D01*
X149349530Y-90319469D01*
X149293302Y-90363324D01*
X149243253Y-90420233D01*
X149205847Y-90485366D01*
X149181827Y-90556203D01*
X149171941Y-90630225D01*
X149062724Y-90630225D01*
X149063123Y-90597674D01*
X149065258Y-90564039D01*
X149069740Y-90535771D01*
X149077326Y-90507475D01*
X149084428Y-90486078D01*
X149119052Y-90407835D01*
X149165139Y-90337226D01*
X149220908Y-90275894D01*
X149284572Y-90225480D01*
X149354348Y-90187628D01*
X149428451Y-90163980D01*
X149435976Y-90162470D01*
X149486550Y-90152866D01*
X149486488Y-89448712D01*
X149486426Y-88744559D01*
X149435914Y-88829299D01*
X149411649Y-88867877D01*
X149389664Y-88898797D01*
X149371872Y-88919501D01*
X149363521Y-88926234D01*
X149347315Y-88933555D01*
X149334645Y-88931877D01*
X149319017Y-88921611D01*
X149307586Y-88912301D01*
X149299646Y-88902653D01*
X149295742Y-88891108D01*
X149296422Y-88876106D01*
X149302230Y-88856088D01*
X149313714Y-88829497D01*
X149331420Y-88794773D01*
X149355893Y-88750358D01*
X149387679Y-88694692D01*
X149415166Y-88647176D01*
X149446115Y-88594021D01*
X149474506Y-88545673D01*
X149499320Y-88503836D01*
X149519539Y-88470210D01*
X149534142Y-88446500D01*
X149542113Y-88434405D01*
X149543233Y-88433199D01*
X149548171Y-88439874D01*
G37*
D12*
%TO.C,C4*%
X147638748Y-85000000D02*
X149061252Y-85000000D01*
X147638748Y-86820000D02*
X149061252Y-86820000D01*
%TO.C,C1*%
X142908748Y-72050000D02*
X144331252Y-72050000D01*
X142908748Y-73870000D02*
X144331252Y-73870000D01*
%TO.C,C2*%
X136608748Y-72050000D02*
X138031252Y-72050000D01*
X136608748Y-73870000D02*
X138031252Y-73870000D01*
%TO.C,J2*%
X126410000Y-73820000D02*
X127790000Y-73820000D01*
X126410000Y-75200000D02*
X126410000Y-73820000D01*
X126410000Y-76470000D02*
X126410000Y-89280000D01*
X126410000Y-76470000D02*
X129170000Y-76470000D01*
X126410000Y-89280000D02*
X129170000Y-89280000D01*
X129170000Y-76470000D02*
X129170000Y-89280000D01*
D10*
%TO.C,AC1*%
X140400000Y-78600000D02*
X140400000Y-78600000D01*
X140400000Y-78700000D02*
X140400000Y-78700000D01*
X140800000Y-78150000D02*
X141500000Y-78150000D01*
X140800000Y-78400000D02*
X140800000Y-78150000D01*
X140800000Y-80500000D02*
X140800000Y-80650000D01*
X140800000Y-80650000D02*
X141500000Y-80650000D01*
X143100000Y-78150000D02*
X143800000Y-78150000D01*
X143100000Y-80650000D02*
X143800000Y-80650000D01*
X143800000Y-78150000D02*
X143800000Y-78400000D01*
X143800000Y-80650000D02*
X143800000Y-80400000D01*
X140400000Y-78600000D02*
G75*
G02*
X140400000Y-78700000I0J-50000D01*
G01*
X140400000Y-78700000D02*
G75*
G02*
X140400000Y-78600000I0J50000D01*
G01*
%TD*%
M02*
